<svg width="25" height="25" viewBox="0 0 25 25" fill="none" xmlns="http://www.w3.org/2000/svg">
<g clip-path="url(#clip0_58_1416)">
<path d="M12.5 2.44995C6.98 2.44995 2.5 6.92995 2.5 12.45C2.5 17.97 6.98 22.45 12.5 22.45H17.5V20.45H12.5C8.16 20.45 4.5 16.79 4.5 12.45C4.5 8.10995 8.16 4.44995 12.5 4.44995C16.84 4.44995 20.5 8.10995 20.5 12.45V13.88C20.5 14.67 19.79 15.45 19 15.45C18.21 15.45 17.5 14.67 17.5 13.88V12.45C17.5 9.68995 15.26 7.44995 12.5 7.44995C9.74 7.44995 7.5 9.68995 7.5 12.45C7.5 15.21 9.74 17.45 12.5 17.45C13.88 17.45 15.14 16.89 16.04 15.98C16.69 16.87 17.81 17.45 19 17.45C20.97 17.45 22.5 15.85 22.5 13.88V12.45C22.5 6.92995 18.02 2.44995 12.5 2.44995ZM12.5 15.45C10.84 15.45 9.5 14.11 9.5 12.45C9.5 10.79 10.84 9.44995 12.5 9.44995C14.16 9.44995 15.5 10.79 15.5 12.45C15.5 14.11 14.16 15.45 12.5 15.45Z" fill="white"/>
</g>
<defs>
<clipPath id="clip0_58_1416">
<rect width="24" height="24" fill="white" transform="translate(0.5 0.5)"/>
</clipPath>
</defs>
</svg>
