<svg width="22" height="25" viewBox="0 0 22 25" fill="none" xmlns="http://www.w3.org/2000/svg">
<path fill-rule="evenodd" clip-rule="evenodd" d="M10.9997 9.24663V6.06481C6.58634 6.06481 2.99967 8.91784 2.99967 12.4284C2.99967 13.4997 3.33301 14.5178 3.93301 15.3981L1.98634 16.9466C0.946341 15.6421 0.333008 14.0936 0.333008 12.4284C0.333008 7.74057 5.10634 3.9436 10.9997 3.9436V0.76178L16.333 5.0042L10.9997 9.24663Z" fill="white"/>
<path d="M20.013 7.91026L18.0663 9.45875C18.653 10.3497 18.9997 11.3572 18.9997 12.4284C18.9997 15.9391 15.413 18.7921 10.9997 18.7921V15.6103L5.66634 19.8527L10.9997 24.0951V20.9133C16.893 20.9133 21.6663 17.1163 21.6663 12.4284C21.6663 10.7633 21.053 9.21481 20.013 7.91026Z" fill="white"/>
</svg>
