<svg width="42" height="42" viewBox="0 0 42 42" fill="none" xmlns="http://www.w3.org/2000/svg">
<circle cx="21" cy="21" r="21" fill="#F7931A"/>
<path fill-rule="evenodd" clip-rule="evenodd" d="M29.6951 18.2565C30.1321 15.3144 27.9082 13.7328 24.8673 12.6777L25.8537 8.69217L23.4453 8.08758L22.485 11.968C21.8518 11.8091 21.2016 11.6592 20.5554 11.5106L21.5226 7.60459L19.1155 7L18.1285 10.9841C17.6044 10.8639 17.0899 10.745 16.5905 10.62L16.5933 10.6075L13.2719 9.77215L12.6312 12.3633C12.6312 12.3633 14.4181 12.7758 14.3804 12.8013C15.3558 13.0466 15.5321 13.6968 15.5026 14.2123L14.379 18.7526C14.4462 18.7699 14.5333 18.7948 14.6294 18.8335L14.5478 18.813C14.4919 18.7988 14.434 18.7842 14.3749 18.7699L12.7999 25.1302C12.6806 25.4287 12.378 25.8765 11.6962 25.7065C11.7202 25.7418 9.94563 25.2664 9.94563 25.2664L8.75 28.0434L11.8842 28.8304C12.2342 28.9187 12.58 29.0096 12.9223 29.0995C13.1501 29.1593 13.3763 29.2187 13.6011 29.2767L12.6044 33.3078L15.0101 33.9124L15.9972 29.9242C16.6543 30.1038 17.2923 30.2696 17.9165 30.4258L16.9328 34.3954L19.3412 35L20.3379 30.9765C24.4448 31.7594 27.533 31.4436 28.8329 27.702C29.8803 24.6894 28.7807 22.9516 26.62 21.8184C28.1935 21.4529 29.3789 20.4103 29.6951 18.2565ZM24.1923 26.0292C23.5095 28.7931 19.2145 27.6504 17.2494 27.1276C17.0726 27.0806 16.9146 27.0385 16.7799 27.0048L18.1024 21.6644C18.2665 21.7056 18.467 21.7509 18.6941 21.8023C20.7266 22.2617 24.892 23.2032 24.1923 26.0292ZM19.1025 19.3239C20.7409 19.7644 24.3148 20.7251 24.9373 18.213C25.573 15.6435 22.0995 14.8689 20.4031 14.4907C20.2123 14.4481 20.0439 14.4106 19.9065 14.3761L18.7074 19.2197C18.8207 19.2482 18.9536 19.2839 19.1025 19.3239Z" fill="white"/>
</svg>
