<svg width="25" height="24" viewBox="0 0 25 24" fill="none" xmlns="http://www.w3.org/2000/svg">
<g clip-path="url(#clip0_119_2150)">
<path d="M24.202 14.9031C22.5993 21.3317 16.0878 25.2437 9.65838 23.641C3.232 22.0382 -0.680371 15.5267 0.922755 9.09847C2.52475 2.6691 9.03588 -1.24365 15.4634 0.359098C21.8924 1.96185 25.8044 8.4741 24.2016 14.9031H24.202Z" fill="url(#paint0_linear_119_2150)"/>
<path fill-rule="evenodd" clip-rule="evenodd" d="M19.0162 10.3165C19.2858 8.51138 17.9114 7.54099 16.0321 6.89364L16.6417 4.44838L15.1528 4.07743L14.5593 6.45826C14.1685 6.36075 13.7666 6.26876 13.3672 6.17761L13.965 3.7811L12.4774 3.41016L11.8673 5.85457C11.5434 5.78081 11.2255 5.70789 10.9169 5.63116L10.9186 5.62353L8.86587 5.11099L8.46992 6.70075C8.46992 6.70075 9.57427 6.95384 9.55095 6.96952C10.1538 7.12002 10.2632 7.51894 10.2445 7.8352L9.5501 10.6209C9.59165 10.6315 9.64549 10.6467 9.70484 10.6705L9.54798 10.6315L8.5742 14.5338C8.50044 14.7169 8.31348 14.9917 7.89209 14.8874C7.90693 14.909 6.81021 14.6173 6.81021 14.6173L6.07129 16.3215L8.00867 16.8044C8.22738 16.8592 8.44344 16.9156 8.65712 16.9713C8.7955 17.0074 8.93289 17.0433 9.06936 17.0783L8.45338 19.5519L9.94012 19.9229L10.5506 17.4759C10.9563 17.5861 11.3506 17.6879 11.7363 17.7837L11.1284 20.2192L12.6169 20.5902L13.2328 18.1216C15.7709 18.6019 17.6799 18.4082 18.4824 16.113C19.1298 14.2646 18.4506 13.1984 17.1152 12.5027C18.0877 12.2776 18.8203 11.6379 19.0157 10.3165H19.0162ZM15.6176 15.0862C15.1951 16.7827 12.5391 16.0807 11.325 15.7598C11.2163 15.7311 11.1191 15.7054 11.0361 15.6848L11.8535 12.4082C11.9549 12.4335 12.0787 12.4613 12.219 12.4928L12.2191 12.4928C13.4752 12.7747 16.0493 13.3523 15.618 15.0862H15.6176ZM12.4643 10.9704C13.4774 11.2406 15.6856 11.8298 16.0703 10.2887C16.4636 8.7121 14.3163 8.23692 13.2676 8.00484C13.1497 7.97875 13.0457 7.95573 12.9608 7.93457L12.2197 10.9064C12.2898 10.9238 12.3721 10.9458 12.4643 10.9704Z" fill="white"/>
</g>
<defs>
<linearGradient id="paint0_linear_119_2150" x1="12.5621" y1="-41.7876" x2="59.7287" y2="-17.2695" gradientUnits="userSpaceOnUse">
<stop stop-color="#FF038B"/>
<stop offset="1" stop-color="#326CFF"/>
</linearGradient>
<clipPath id="clip0_119_2150">
<rect width="24" height="24" fill="white" transform="translate(0.55957)"/>
</clipPath>
</defs>
</svg>
