<svg width="85" height="81" viewBox="0 0 85 81" fill="none" xmlns="http://www.w3.org/2000/svg">
<path d="M21.0385 63.2096C20.9351 63.1112 20.8256 63.0112 20.7238 62.9068C20.4165 62.6253 20.1184 62.3333 19.8312 62.0248C18.7232 60.9148 17.673 59.7486 16.6846 58.531C16.4995 58.3011 16.3144 58.0712 16.1369 57.8369L15.876 57.6C15.527 57.1329 15.1781 56.6659 14.8521 56.1855C14.2255 55.2917 13.6356 54.3731 13.0824 53.4297C12.925 53.1683 12.7736 52.9086 12.6372 52.6657L12.4667 52.3556L12.1808 51.8211C11.5348 50.5934 10.9565 49.3313 10.4485 48.0405C10.3369 47.7524 10.2253 47.4643 10.1274 47.1734L10.1068 47.1291L9.98533 46.7802C9.47015 45.3179 9.06097 43.8204 8.76098 42.2994C8.68666 41.9435 8.62601 41.5848 8.56379 41.2321C8.284 39.5209 8.16299 37.7874 8.20228 36.0539C8.20661 35.5959 8.23513 35.1443 8.2697 34.6943C8.37845 33.264 8.61999 31.8468 8.99118 30.4612C9.1717 29.7959 9.38561 29.14 9.6321 28.4962C10.5077 26.1617 11.828 24.0193 13.5197 22.1878L18.1136 17.2231C18.3488 16.9672 18.6655 16.8008 19.0096 16.7523C19.3538 16.7039 19.7041 16.7764 20.0008 16.9576C20.0892 17.0072 20.171 17.0679 20.2442 17.1381L67.0417 60.5155C67.1176 60.5846 67.1862 60.6612 67.2466 60.7441C67.4431 61.0301 67.5358 61.3747 67.5093 61.7206C67.4828 62.0666 67.3387 62.393 67.101 62.6457L62.5698 67.5687C60.876 69.3938 58.8434 70.872 56.5852 71.9211L56.541 71.9417C55.9612 72.2164 55.3678 72.4614 54.7631 72.6759L54.6702 72.7095C53.5204 73.1152 52.3397 73.4268 51.1395 73.6412C50.9342 73.6841 50.7184 73.7177 50.5026 73.7513C50.0633 73.8231 49.6152 73.8795 49.1625 73.9283C47.6504 74.0824 46.1283 74.1136 44.6112 74.0218L43.9778 73.9713C43.6172 73.9409 43.2598 73.8984 42.8948 73.8604C42.7134 73.8125 42.5253 73.8147 42.3468 73.7805C41.2666 73.6372 40.1949 73.4367 39.136 73.1798C38.755 73.0794 38.3681 72.9774 37.9811 72.8754C37.5941 72.7734 37.3764 72.716 37.0439 72.6283C36.092 72.3386 35.1437 72.011 34.1961 71.6318C33.5456 71.3763 32.9016 71.0966 32.2546 70.8031C31.9787 70.6722 31.7073 70.5489 31.427 70.4103C31.3839 70.3913 31.3421 70.3695 31.3019 70.345C30.8723 70.1348 30.4504 69.9201 30.0256 69.6917C28.9275 69.0983 27.8329 68.467 26.7683 67.7466C26.5306 67.5934 26.2901 67.4265 26.0556 67.2612C25.8707 67.1284 25.6843 67.0017 25.5131 66.866C24.0805 65.8478 22.7108 64.7439 21.4117 63.5602C21.2574 63.4096 21.1479 63.3096 21.0385 63.2096Z" fill="#FFD50B"/>
<path opacity="0.2" d="M21.0377 63.209C20.9343 63.1106 20.8248 63.0106 20.723 62.9062L41.5066 40.4877C41.5877 40.4131 41.6941 40.3718 41.8044 40.3721C41.9147 40.3725 42.0208 40.4144 42.1014 40.4896C42.1821 40.5648 42.2314 40.6677 42.2395 40.7777C42.2476 40.8877 42.2139 40.9967 42.1451 41.0829L21.3615 63.5013C21.2566 63.4089 21.1471 63.309 21.0377 63.209Z" fill="#A52F2F"/>
<path opacity="0.2" d="M54.6676 72.6951L64.62 61.9262C64.6635 61.8766 64.718 61.8379 64.7792 61.813C64.8546 61.7838 64.9368 61.7763 65.0162 61.7916C65.0957 61.8068 65.1692 61.8441 65.2285 61.8991C65.3012 61.9638 65.3495 62.0514 65.3654 62.1474C65.3813 62.2434 65.3638 62.3419 65.3158 62.4265C65.2986 62.4578 65.2779 62.4871 65.254 62.5137L56.5585 71.9003L56.5143 71.9209C55.9344 72.1956 55.341 72.4406 54.7364 72.655L54.6676 72.6951Z" fill="#A52F2F"/>
<path opacity="0.2" d="M49.1537 73.9122L62.2846 59.7455C62.323 59.7031 62.3695 59.6687 62.4213 59.6444C62.4732 59.6201 62.5293 59.6064 62.5865 59.604C62.6437 59.6016 62.7008 59.6107 62.7545 59.6306C62.8082 59.6505 62.8574 59.6809 62.8992 59.72C62.9821 59.7993 63.0306 59.9079 63.0342 60.0225C63.0379 60.1372 62.9964 60.2487 62.9186 60.333L50.4998 73.7368C50.0605 73.8085 49.6124 73.865 49.1537 73.9122Z" fill="#A52F2F"/>
<path opacity="0.2" d="M42.8759 73.8353L58.866 56.5747C58.9471 56.5 59.0535 56.4587 59.1638 56.459C59.274 56.4594 59.3801 56.5014 59.4608 56.5766C59.5415 56.6518 59.5908 56.7546 59.5989 56.8646C59.607 56.9746 59.5733 57.0836 59.5045 57.1698L43.959 73.9462C43.5984 73.9158 43.2426 73.8673 42.8759 73.8353Z" fill="#A52F2F"/>
<path opacity="0.2" d="M37.0298 72.5796L55.0947 53.0658C55.1732 52.9816 55.2817 52.9317 55.3968 52.9269C55.5118 52.9221 55.6241 52.9629 55.7093 53.0403C55.7518 53.0787 55.7861 53.1252 55.8104 53.177C55.8347 53.2289 55.8484 53.285 55.8508 53.3422C55.8532 53.3994 55.8442 53.4566 55.8243 53.5102C55.8043 53.5639 55.7739 53.6131 55.7348 53.6549L37.9655 72.8327C37.6463 72.7679 37.3395 72.6806 37.0298 72.5796Z" fill="#A52F2F"/>
<path opacity="0.2" d="M31.4134 70.3612L50.9698 49.2618C51.0081 49.2192 51.0547 49.1849 51.1067 49.1608C51.1586 49.1366 51.2149 49.1233 51.2722 49.1215C51.3294 49.1196 51.3864 49.1294 51.4398 49.1502C51.4932 49.1709 51.5418 49.2023 51.5828 49.2423C51.6252 49.2807 51.6596 49.3272 51.6839 49.3791C51.7082 49.4309 51.7219 49.4871 51.7243 49.5443C51.7267 49.6015 51.7177 49.6586 51.6977 49.7122C51.6778 49.7659 51.6474 49.8151 51.6083 49.8569L32.2411 70.754C31.9652 70.623 31.6938 70.4997 31.4134 70.3612Z" fill="#A52F2F"/>
<path opacity="0.2" d="M26.0228 67.2071L46.4943 45.1138C46.5152 45.086 46.5433 45.0644 46.5755 45.0512C46.6556 44.9965 46.7519 44.9704 46.8486 44.9772C46.9454 44.9839 47.0371 45.0231 47.1089 45.0883C47.1918 45.1676 47.2403 45.2762 47.2439 45.3909C47.2476 45.5055 47.2061 45.617 47.1284 45.7013L26.7536 67.6973C26.516 67.5441 26.2754 67.3772 26.0409 67.2119C26.0272 67.2148 26.0288 67.2087 26.0228 67.2071Z" fill="#A52F2F"/>
<path opacity="0.2" d="M9.01668 30.4098C9.1972 29.7444 9.41111 29.0886 9.65759 28.4447L18.3624 19.0477C18.4416 18.9648 18.5503 18.9163 18.6649 18.9126C18.7795 18.909 18.891 18.9505 18.9754 19.0282C19.0172 19.067 19.0508 19.1138 19.0745 19.1657C19.0981 19.2176 19.1112 19.2737 19.113 19.3307C19.1148 19.3877 19.1053 19.4445 19.085 19.4978C19.0647 19.5511 19.0341 19.5998 18.9948 19.6412L9.01668 30.4098Z" fill="#A52F2F"/>
<path opacity="0.2" d="M8.22888 36.0023C8.23322 35.5443 8.26176 35.0927 8.29633 34.6426L20.7229 21.2344C20.7613 21.192 20.8077 21.1576 20.8596 21.1333C20.9114 21.109 20.9676 21.0953 21.0248 21.0929C21.082 21.0905 21.1391 21.0996 21.1928 21.1195C21.2465 21.1394 21.2956 21.1698 21.3374 21.2089C21.4218 21.2887 21.4715 21.3983 21.476 21.5143C21.4805 21.6304 21.4393 21.7435 21.3614 21.8295L8.22888 36.0023Z" fill="#A52F2F"/>
<path opacity="0.2" d="M8.78775 42.2474C8.71343 41.8915 8.6528 41.5328 8.59057 41.1801L24.1376 24.3977C24.2182 24.3146 24.3279 24.2663 24.4435 24.263C24.5592 24.2596 24.6715 24.3015 24.7567 24.3798C24.8396 24.459 24.8881 24.5677 24.8917 24.6823C24.8954 24.7969 24.8539 24.9084 24.7762 24.9928L8.78775 42.2474Z" fill="#A52F2F"/>
<path opacity="0.2" d="M10.4745 47.9885C10.3629 47.7004 10.2513 47.4123 10.1534 47.1214L10.1327 47.0771L27.9097 27.8949C27.9536 27.8454 28.0102 27.8089 28.0733 27.7893C28.1485 27.7589 28.2306 27.7504 28.3103 27.7645C28.3901 27.7787 28.4642 27.815 28.5243 27.8694C28.6071 27.9487 28.656 28.057 28.6608 28.1715C28.6655 28.2861 28.6258 28.398 28.5498 28.484L10.4745 47.9885Z" fill="#A52F2F"/>
<path opacity="0.2" d="M13.102 53.4019C12.9445 53.1406 12.7932 52.8808 12.6567 52.6379L32.0239 31.7408C32.0603 31.6911 32.1068 31.6496 32.1603 31.6191C32.2139 31.5886 32.2732 31.5697 32.3345 31.5637C32.3959 31.5577 32.4578 31.5647 32.5162 31.5842C32.5746 31.6038 32.6283 31.6355 32.6736 31.6772C32.719 31.7189 32.755 31.7698 32.7793 31.8264C32.8037 31.883 32.8158 31.9441 32.8149 32.0057C32.814 32.0673 32.8001 32.128 32.7741 32.1839C32.7481 32.2398 32.7106 32.2895 32.6641 32.3299L13.102 53.4019Z" fill="#A52F2F"/>
<path opacity="0.2" d="M16.6791 58.549C16.4939 58.3191 16.3088 58.0892 16.1313 57.8549L36.4771 35.8707C36.5135 35.821 36.5599 35.7795 36.6134 35.749C36.667 35.7184 36.7263 35.6996 36.7877 35.6936C36.849 35.6875 36.9109 35.6946 36.9693 35.7141C37.0278 35.7337 37.0814 35.7654 37.1267 35.8071C37.1721 35.8488 37.2081 35.8997 37.2324 35.9563C37.2568 36.0129 37.2689 36.074 37.268 36.1356C37.2671 36.1972 37.2532 36.2579 37.2272 36.3138C37.2012 36.3697 37.1637 36.4194 37.1172 36.4598L16.6791 58.549Z" fill="#A52F2F"/>
<path opacity="0.2" d="M65.5652 62.1889L66.5788 63.1028C66.3818 63.3868 66.1639 63.6558 65.927 63.9075L62.5679 67.5486C60.8741 69.3737 58.8415 70.8519 56.5834 71.901L56.5391 71.9216L65.5652 62.1889Z" fill="white"/>
<path opacity="0.2" d="M51.1366 73.6273L63.5017 60.2805L64.9721 61.6446L54.7603 72.662L54.6673 72.6957C53.5176 73.1013 52.3368 73.4129 51.1366 73.6273Z" fill="white"/>
<path opacity="0.2" d="M44.5741 73.9925L60.1489 57.1786L62.5773 59.4225L49.148 73.9115C47.6281 74.0626 46.0984 74.0897 44.5741 73.9925Z" fill="white"/>
<path opacity="0.2" d="M39.1157 73.1551L56.7959 54.0702L58.8285 55.9512L42.3265 73.7558C41.2464 73.6125 40.1746 73.412 39.1157 73.1551Z" fill="white"/>
<path opacity="0.2" d="M34.1766 71.581L53.3547 50.8863L55.3829 52.7596L37.0244 72.5775C36.0786 72.2893 35.1303 71.9617 34.1766 71.581Z" fill="white"/>
<path opacity="0.2" d="M30.0116 69.643L50.1256 47.8758L51.1452 48.7913L31.2644 70.2384C30.8583 70.0861 30.4428 69.8472 30.0116 69.643Z" fill="white"/>
<path opacity="0.2" d="M25.4688 66.8089L46.2683 44.33L46.7901 44.8038L26.0113 67.2041C25.8385 67.0745 25.6521 66.9477 25.4688 66.8089Z" fill="white"/>
<path opacity="0.2" d="M18.4497 60.5933C18.5589 60.7191 18.6696 60.8388 18.7863 60.9601C19.1095 61.304 19.4388 61.6494 19.7712 61.9828L19.8136 61.994C20.2074 62.3888 20.6089 62.7792 21.0241 63.1667C34.5341 75.6977 53.1526 77.6572 62.5586 67.5138C62.6754 67.3894 62.7939 67.2589 62.9002 67.1253C53.398 76.8489 35.0963 74.7918 21.7345 62.4099C21.3193 62.0223 20.9178 61.632 20.5163 61.2416L40.8694 39.2787L66.5647 63.0861C67.2214 62.1405 67.4955 61.2233 67.2548 60.7136C67.2238 60.652 67.1813 60.5969 67.1295 60.5513L20.1773 17.0491C20.1276 17.002 20.0694 16.9647 20.0058 16.9392C19.3484 16.6365 18.0387 17.2871 16.9175 18.4983L13.5524 22.1379C13.291 22.4182 13.0445 22.7154 12.7981 23.0125L12.5869 23.2737L12.0685 23.9648L11.8847 24.2203C11.6685 24.5254 11.4627 24.8398 11.2691 25.1573L11.1605 25.3486C11.0009 25.6104 10.8518 25.8815 10.7088 26.1542L10.5409 26.4721L10.1577 27.2635L10.0484 27.5063C9.91397 27.82 9.78112 28.1278 9.66482 28.4463L9.63931 28.5431L9.54526 28.8998C9.452 29.1554 9.36532 29.4107 9.28522 29.6655L9.18161 30.0585L9.08437 30.4273L8.87396 31.2255L8.69278 32.1089L8.61149 32.4173L8.43719 33.5935L8.40043 33.9783L8.33267 34.6524L8.30557 34.7552C8.28188 35.0658 8.26709 35.3917 8.25423 35.6858L8.24105 36.0057L8.21873 36.0903C8.20813 36.3268 8.21121 36.5604 8.21429 36.794C8.21737 37.0276 8.21312 37.2399 8.23022 37.4449L8.25194 38.0003L8.30379 38.8094L8.34749 39.3059L8.44705 40.1793L8.51115 40.623L8.58315 41.1593L8.6584 41.5607L8.73939 41.9894L8.78035 42.2266L8.90073 42.7756L8.99792 43.241C9.09862 43.6685 9.20983 44.1052 9.30449 44.5311L9.32607 44.6209C9.44525 45.0273 9.56443 45.4338 9.6957 45.8435L9.78185 46.1055L9.9805 46.7011L10.1254 47.1079L10.1518 47.1795L10.3073 47.5956C10.3588 47.7191 10.3966 47.8454 10.4465 47.975C10.4964 48.1046 10.5292 48.152 10.5629 48.2449C10.7438 48.6871 10.9308 49.1309 11.1298 49.5778L11.3082 49.9805C11.5753 50.5618 11.8621 51.1418 12.1445 51.7142L12.438 52.2442L12.6085 52.5543L12.6886 52.6919L12.923 53.1028C12.9736 53.1808 13.0149 53.2693 13.0655 53.3473C13.1161 53.4253 13.1962 53.5629 13.2646 53.6714C13.4249 53.9465 13.5928 54.2171 13.7607 54.4877L14.1519 55.0888C14.3453 55.3855 14.5448 55.6838 14.7502 55.9837L14.8352 56.1031C15.1704 56.573 15.5117 57.0445 15.8667 57.5132L16.0846 57.7905L16.3025 58.0678L16.4965 58.313L16.6324 58.4846C16.8862 58.7972 17.1461 59.1115 17.4136 59.4213L17.6214 59.6636C17.9293 60.0164 18.1819 60.3093 18.4497 60.5933ZM10.7179 45.9643L27.9629 27.3531L28.2387 27.6069L10.8585 46.3634L10.7179 45.9643ZM12.9118 51.0111L31.6578 30.7781L32.079 31.1672L13.2054 51.5412L12.9118 51.0111ZM15.5949 55.4045L35.2913 34.1416L36.549 35.3073L16.6506 56.821C16.2714 56.3459 15.9225 55.8789 15.5949 55.4045Z" fill="#A52F2F"/>
<path d="M25.6055 58.2767C12.0954 45.7457 8.71927 27.3502 18.1115 17.2097C27.5038 7.0691 46.1013 9.01012 59.6476 21.5506C73.1939 34.0912 76.5303 52.515 67.1383 62.6298C57.7464 72.7445 39.1378 70.8458 25.6055 58.2767Z" fill="#FFD50B"/>
<path opacity="0.2" d="M28.3283 55.3272C39.6895 65.8547 55.295 67.487 63.1842 58.973C71.0734 50.4591 68.2587 35.0229 56.8975 24.4954C45.5362 13.9679 29.9307 12.3356 22.0415 20.8496C14.1523 29.3636 16.967 44.7997 28.3283 55.3272Z" fill="#A52F2F"/>
<path opacity="0.2" d="M32.0713 63.2524C44.5776 71.1279 59.1552 71.2202 67.1263 62.6191C76.5262 52.4741 73.1682 34.0834 59.634 21.5461C55.4631 17.6339 50.5386 14.6127 45.1612 12.6672C34.8803 9.03214 24.4202 10.3939 18.1059 17.1748C8.70758 27.3138 12.0595 45.7029 25.5982 58.2479C27.5953 60.1141 29.7624 61.7896 32.0713 63.2524ZM18.9315 17.968C24.5526 11.9032 33.5655 10.3152 42.7215 12.8453C48.8333 14.6111 54.4371 17.8063 59.0694 22.1668C72.1464 34.2796 75.394 52.0592 66.3157 61.8428C58.164 70.6873 42.8171 70.03 30.2696 60.9862C28.8475 59.9652 27.4894 58.8578 26.2032 57.6702C13.0975 45.5433 9.85444 27.7714 18.9315 17.968Z" fill="#A52F2F"/>
<path opacity="0.2" d="M38.5175 62.0108C47.4757 65.5364 56.7465 64.5401 62.2648 58.5711C70.15 50.0509 67.3321 34.6155 55.9698 24.0929C52.979 21.2971 49.5314 19.0344 45.7765 17.4028C49.8977 19.0473 53.6755 21.4468 56.9159 24.4781C68.2721 34.9992 71.0944 50.4421 63.2048 58.9547C57.4958 65.1321 47.7594 66.0057 38.5175 62.0108Z" fill="#A52F2F"/>
<path opacity="0.2" d="M25.6095 58.2839C12.0708 45.7389 8.72681 27.3195 18.1171 17.2108C24.4379 10.4057 34.8737 9.03754 45.1724 12.7032C44.406 12.7404 43.5909 12.7906 42.7404 12.8768C33.5845 10.3467 24.5635 11.965 18.9504 17.9995C9.89752 27.8092 13.1196 45.5627 26.1979 57.6953C27.489 58.894 28.853 60.0116 30.2821 61.0418C30.93 61.855 31.5327 62.6024 32.0902 63.2839C29.7789 61.8229 27.6092 60.1489 25.6095 58.2839Z" fill="#A52F2F"/>
<g opacity="0.2">
<path d="M28.7088 32.9099L24.6425 30.6481L25.2801 28.2295L26.3143 28.0106L29.3072 30.4681C29.8731 29.1444 30.7011 27.9491 31.7414 26.9541C32.7817 25.9592 34.0127 25.1851 35.3602 24.6788L37.6454 28.2753C36.6505 28.6633 35.7469 29.2533 34.9914 30.008C34.236 30.7627 33.6451 31.6657 33.256 32.6602L40.5135 36.701C41.6387 35.0576 44.3293 32.3331 46.6997 32.5893C47.7513 32.9321 48.7597 33.3955 49.7048 33.9701C53.4112 36.0271 56.0387 40.0178 55.316 44.9425L59.7845 49.4315L58.7503 49.6503L54.7248 47.4057C54.034 49.364 51.8985 51.9697 51.8985 51.9697L50.8643 52.1886L47.5328 48.9305C48.978 48.0618 50.1205 46.7688 50.8046 45.2276L43.4734 41.1479C42.5314 42.4322 41.4738 43.6274 40.3139 44.7188C39.3106 44.9931 38.2631 45.0668 37.2313 44.9357C36.1995 44.8046 35.2036 44.4713 34.3008 43.9549C32.3382 42.9213 30.7457 41.3029 29.7438 39.324C28.7418 37.3451 28.3802 35.1035 28.7088 32.9099ZM44.9008 39.1186L51.3646 42.7109C51.4847 41.7498 51.3117 40.7748 50.8683 39.9137C50.4249 39.0526 49.7318 38.3454 48.8798 37.8848C47.1341 36.9267 45.9969 37.7327 44.8976 39.1307L44.9008 39.1186ZM35.0177 39.9599C36.7932 40.9518 37.9887 40.0965 39.0867 38.6787L32.6636 35.1036C32.4723 37.4976 33.4528 39.1012 35.0145 39.972L35.0177 39.9599Z" fill="#A52F2F"/>
</g>
<path d="M29.7359 32.6954L25.6773 30.4291L26.3149 28.0105L30.342 30.2491C31.3528 27.4698 33.2825 25.3013 35.3366 24.6723L38.6378 28.0452C37.642 28.4316 36.7375 29.0209 35.9818 29.7758C35.2261 30.5307 34.6358 31.4346 34.2485 32.4301L41.5059 36.4709C43.3792 33.7314 45.6567 30.9303 50.702 33.7218C54.4008 35.7833 57.0299 39.768 56.3132 44.6942L60.4125 46.9777L59.7749 49.3963L55.7478 47.1578C55.0975 49.1783 53.7258 50.8886 51.8946 51.962L48.5614 48.71C50.0067 47.8381 51.1493 46.5434 51.8349 45.001L44.5037 40.9213C42.6243 43.6593 40.3716 46.538 35.3552 43.7347C33.3899 42.704 31.7934 41.0881 30.7867 39.1104C29.78 37.1327 29.4128 34.891 29.7359 32.6954ZM45.9339 38.9057L52.3917 42.4964C52.5144 41.535 52.3426 40.5591 51.8989 39.6974C51.4553 38.8357 50.7607 38.1289 49.9069 37.6703C48.1689 36.7077 47.0313 37.5395 45.9323 38.9118L45.9339 38.9057ZM36.0448 39.7454C37.8203 40.7373 39.0158 39.882 40.1199 38.4658L33.6968 34.8907C33.5191 37.2818 34.4815 38.8806 36.0432 39.7515L36.0448 39.7454Z" fill="#FFD50B"/>
<path opacity="0.15" d="M25.6055 58.2767C12.0954 45.7457 8.71927 27.3502 18.1115 17.2097C27.5038 7.0691 46.1013 9.01012 59.6476 21.5506C73.1939 34.0912 76.5303 52.515 67.1383 62.6298C57.7464 72.7445 39.1378 70.8458 25.6055 58.2767Z" fill="white"/>
</svg>
