<svg width="19" height="19" viewBox="0 0 19 19" fill="none" xmlns="http://www.w3.org/2000/svg">
<g clip-path="url(#clip0_1_8044)">
<path d="M9.79999 0.5C4.82947 0.5 0.799988 4.52948 0.799988 9.5C0.799988 13.7206 3.70591 17.2623 7.62595 18.235V12.2504H5.77015V9.5H7.62595V8.31488C7.62595 5.25164 9.01231 3.8318 12.0197 3.8318C12.59 3.8318 13.5739 3.94376 13.9763 4.05536V6.54836C13.7639 6.52604 13.3949 6.51488 12.9367 6.51488C11.461 6.51488 10.8908 7.07396 10.8908 8.52728V9.5H13.8305L13.3255 12.2504H10.8908V18.4341C15.3472 17.8959 18.8003 14.1015 18.8003 9.5C18.8 4.52948 14.7705 0.5 9.79999 0.5Z" fill="#82B6D3"/>
</g>
<defs>
<clipPath id="clip0_1_8044">
<rect width="18" height="18" fill="white" transform="translate(0.799988 0.5)"/>
</clipPath>
</defs>
</svg>
