<svg width="22" height="17" viewBox="0 0 22 17" fill="none" xmlns="http://www.w3.org/2000/svg">
<g clip-path="url(#clip0_165_3409)">
<rect width="22" height="16" transform="translate(0 0.264648)" fill="white"/>
<path fill-rule="evenodd" clip-rule="evenodd" d="M9.42857 9.86465H0V6.66465H9.42857V0.264648H12.5714V6.66465H22V9.86465H12.5714V16.2646H9.42857V9.86465Z" fill="#F93939"/>
<path fill-rule="evenodd" clip-rule="evenodd" d="M15.7143 11.998H14.6667V13.0647H15.7143V14.1313H16.7619V13.0647H17.8095V11.998H16.7619V10.9313H15.7143V11.998ZM15.7143 3.46468H14.6667V4.53134H15.7143V5.59801H16.7619V4.53134H17.8095V3.46468H16.7619V2.39801H15.7143V3.46468ZM5.23811 3.46468H4.19049V4.53134H5.23811V5.59801H6.28573V4.53134H7.33335V3.46468H6.28573V2.39801H5.23811V3.46468ZM5.23811 11.998H4.19049V13.0647H5.23811V14.1313H6.28573V13.0647H7.33335V11.998H6.28573V10.9313H5.23811V11.998Z" fill="#F93939"/>
</g>
<defs>
<clipPath id="clip0_165_3409">
<rect y="0.264648" width="22" height="16" rx="8" fill="white"/>
</clipPath>
</defs>
</svg>
