<svg width="19" height="19" viewBox="0 0 19 19" fill="none" xmlns="http://www.w3.org/2000/svg">
<g clip-path="url(#clip0_1_8042)">
<path d="M9.59998 2.1207C12.0047 2.1207 12.2894 2.13125 13.2351 2.17344C14.114 2.21211 14.5886 2.35977 14.9051 2.48281C15.3234 2.64453 15.6258 2.84141 15.9386 3.1543C16.2551 3.4707 16.4484 3.76953 16.6101 4.18789C16.7332 4.5043 16.8808 4.98242 16.9195 5.85781C16.9617 6.80703 16.9722 7.0918 16.9722 9.49297C16.9722 11.8977 16.9617 12.1824 16.9195 13.1281C16.8808 14.007 16.7332 14.4816 16.6101 14.798C16.4484 15.2164 16.2515 15.5187 15.9386 15.8316C15.6222 16.148 15.3234 16.3414 14.9051 16.5031C14.5886 16.6262 14.1105 16.7738 13.2351 16.8125C12.2859 16.8547 12.0011 16.8652 9.59998 16.8652C7.19529 16.8652 6.91052 16.8547 5.96482 16.8125C5.08591 16.7738 4.6113 16.6262 4.2949 16.5031C3.87654 16.3414 3.57419 16.1445 3.2613 15.8316C2.9449 15.5152 2.75154 15.2164 2.58982 14.798C2.46677 14.4816 2.31912 14.0035 2.28044 13.1281C2.23826 12.1789 2.22771 11.8941 2.22771 9.49297C2.22771 7.08828 2.23826 6.80351 2.28044 5.85781C2.31912 4.97891 2.46677 4.5043 2.58982 4.18789C2.75154 3.76953 2.94841 3.46719 3.2613 3.1543C3.57771 2.83789 3.87654 2.64453 4.2949 2.48281C4.6113 2.35977 5.08943 2.21211 5.96482 2.17344C6.91052 2.13125 7.19529 2.1207 9.59998 2.1207ZM9.59998 0.5C7.15662 0.5 6.85076 0.510547 5.89099 0.552734C4.93474 0.594922 4.27732 0.749609 3.70779 0.971094C3.11365 1.20312 2.61091 1.50898 2.11169 2.01172C1.60896 2.51094 1.3031 3.01367 1.07107 3.6043C0.849585 4.17734 0.694897 4.83125 0.65271 5.7875C0.610522 6.75078 0.599976 7.05664 0.599976 9.5C0.599976 11.9434 0.610522 12.2492 0.65271 13.209C0.694897 14.1652 0.849585 14.8227 1.07107 15.3922C1.3031 15.9863 1.60896 16.4891 2.11169 16.9883C2.61091 17.4875 3.11365 17.7969 3.70427 18.0254C4.27732 18.2469 4.93123 18.4016 5.88748 18.4437C6.84724 18.4859 7.1531 18.4965 9.59646 18.4965C12.0398 18.4965 12.3457 18.4859 13.3054 18.4437C14.2617 18.4016 14.9191 18.2469 15.4886 18.0254C16.0793 17.7969 16.582 17.4875 17.0812 16.9883C17.5804 16.4891 17.8898 15.9863 18.1183 15.3957C18.3398 14.8227 18.4945 14.1687 18.5367 13.2125C18.5789 12.2527 18.5894 11.9469 18.5894 9.50352C18.5894 7.06016 18.5789 6.7543 18.5367 5.79453C18.4945 4.83828 18.3398 4.18086 18.1183 3.61133C17.8969 3.01367 17.591 2.51094 17.0883 2.01172C16.589 1.5125 16.0863 1.20312 15.4957 0.974609C14.9226 0.753125 14.2687 0.598437 13.3125 0.55625C12.3492 0.510547 12.0433 0.5 9.59998 0.5Z" fill="#82B6D3"/>
<path d="M9.59998 4.87695C7.04763 4.87695 4.97693 6.94766 4.97693 9.5C4.97693 12.0523 7.04763 14.123 9.59998 14.123C12.1523 14.123 14.223 12.0523 14.223 9.5C14.223 6.94766 12.1523 4.87695 9.59998 4.87695ZM9.59998 12.4988C7.94412 12.4988 6.60115 11.1559 6.60115 9.5C6.60115 7.84414 7.94412 6.50117 9.59998 6.50117C11.2558 6.50117 12.5988 7.84414 12.5988 9.5C12.5988 11.1559 11.2558 12.4988 9.59998 12.4988Z" fill="#82B6D3"/>
<path d="M15.4851 4.69417C15.4851 5.29182 15 5.77346 14.4058 5.77346C13.8082 5.77346 13.3265 5.28831 13.3265 4.69417C13.3265 4.09651 13.8117 3.61487 14.4058 3.61487C15 3.61487 15.4851 4.10003 15.4851 4.69417Z" fill="#82B6D3"/>
</g>
<defs>
<clipPath id="clip0_1_8042">
<rect width="18" height="18" fill="white" transform="translate(0.599976 0.5)"/>
</clipPath>
</defs>
</svg>
