<svg width="22" height="17" viewBox="0 0 22 17" fill="none" xmlns="http://www.w3.org/2000/svg">
<g clip-path="url(#clip0_165_3413)">
<rect width="22" height="16" transform="translate(0 0.535675)" fill="#03BCDB"/>
<path fill-rule="evenodd" clip-rule="evenodd" d="M2.09525 3.19701C2.09525 2.90581 2.33829 2.66901 2.61905 2.66901C2.9082 2.66901 3.14286 2.89941 3.14286 3.19701V5.34101C3.14286 5.63221 2.89982 5.86901 2.61905 5.86901C2.32991 5.86901 2.09525 5.63861 2.09525 5.34101V3.19701ZM3.14286 5.33034C3.14286 5.03914 3.38591 4.80234 3.66667 4.80234C3.95582 4.80234 4.19048 5.03274 4.19048 5.33034V7.47434C4.19048 7.76554 3.94744 8.00234 3.66667 8.00234C3.37753 8.00234 3.14286 7.77194 3.14286 7.47434V5.33034ZM3.14286 9.59701C3.14286 9.30581 3.38591 9.06901 3.66667 9.06901C3.95582 9.06901 4.19048 9.29941 4.19048 9.59701V11.741C4.19048 12.0322 3.94744 12.269 3.66667 12.269C3.37753 12.269 3.14286 12.0386 3.14286 11.741V9.59701ZM2.09525 11.7303C2.09525 11.4391 2.33829 11.2023 2.61905 11.2023C2.9082 11.2023 3.14286 11.4327 3.14286 11.7303V13.8743C3.14286 14.1655 2.89982 14.4023 2.61905 14.4023C2.32991 14.4023 2.09525 14.1719 2.09525 13.8743V11.7303ZM2.09525 7.46901C2.09525 7.17461 2.33829 6.93567 2.61905 6.93567C2.9082 6.93567 3.14286 7.18314 3.14286 7.46901C3.14286 7.76341 2.89982 8.00234 2.61905 8.00234C2.32991 8.00234 2.09525 7.75487 2.09525 7.46901ZM3.14286 3.20234C3.14286 2.90794 3.38591 2.66901 3.66667 2.66901C3.95582 2.66901 4.19048 2.91647 4.19048 3.20234C4.19048 3.49674 3.94744 3.73567 3.66667 3.73567C3.37753 3.73567 3.14286 3.48821 3.14286 3.20234ZM2.09525 8.53567C2.09525 8.24127 2.33829 8.00234 2.61905 8.00234C2.9082 8.00234 3.14286 8.24981 3.14286 8.53567C3.14286 8.83007 2.89982 9.06901 2.61905 9.06901C2.32991 9.06901 2.09525 8.82154 2.09525 8.53567ZM3.14286 13.869C3.14286 13.5746 3.38591 13.3357 3.66667 13.3357C3.95582 13.3357 4.19048 13.5831 4.19048 13.869C4.19048 14.1634 3.94744 14.4023 3.66667 14.4023C3.37753 14.4023 3.14286 14.1549 3.14286 13.869ZM2.09525 9.60234C2.09525 9.30794 2.33829 9.06901 2.61905 9.06901C2.9082 9.06901 3.14286 9.31647 3.14286 9.60234C3.14286 9.89674 2.89982 10.1357 2.61905 10.1357C2.32991 10.1357 2.09525 9.88821 2.09525 9.60234Z" fill="#FFDA2C"/>
<path d="M12.0476 10.1357C13.4941 10.1357 14.6667 8.94176 14.6667 7.469C14.6667 5.99625 13.4941 4.80234 12.0476 4.80234C10.6011 4.80234 9.42856 5.99625 9.42856 7.469C9.42856 8.94176 10.6011 10.1357 12.0476 10.1357Z" fill="#FFDA2C"/>
<path fill-rule="evenodd" clip-rule="evenodd" d="M8.38095 8.00235L9.42857 10.1357L12.0476 11.2024L14.6667 10.1357L15.7143 8.00235V11.2024L12.0476 12.269L8.38095 11.2024V8.00235Z" fill="#FFDA2C"/>
</g>
<defs>
<clipPath id="clip0_165_3413">
<rect y="0.535675" width="22" height="16" rx="8" fill="white"/>
</clipPath>
</defs>
</svg>
