<svg width="22" height="17" viewBox="0 0 22 17" fill="none" xmlns="http://www.w3.org/2000/svg">
<g clip-path="url(#clip0_165_3418)">
<rect y="0.535675" width="22" height="16" rx="8" fill="#F93939"/>
<path fill-rule="evenodd" clip-rule="evenodd" d="M10.692 10.653C10.7936 10.6637 10.8963 10.669 11 10.669C11.1048 10.669 11.2064 10.6637 11.308 10.653L11 9.86902L10.692 10.653ZM9.27143 10.0717C8.72352 9.63008 8.38095 8.98582 8.38095 8.26902C8.38095 7.42315 8.85867 6.67969 9.57943 6.25302L10.4762 8.53569L9.27143 10.0717ZM12.4206 6.25302C13.1413 6.67969 13.619 7.42315 13.619 8.26902C13.619 8.98689 13.2754 9.63115 12.7286 10.0717L11.5238 8.53569L12.4206 6.25302ZM12.3158 6.19329C11.9282 5.98635 11.4798 5.86902 11 5.86902C10.5202 5.86902 10.0708 5.98635 9.68419 6.19329L11 7.86795L12.3158 6.19329Z" fill="#FFDA2C"/>
<path fill-rule="evenodd" clip-rule="evenodd" d="M11 13.3357C13.6033 13.3357 15.7143 11.1864 15.7143 8.53569C15.7143 5.88502 13.6033 3.73569 11 3.73569C8.39667 3.73569 6.28572 5.88502 6.28572 8.53569C6.28572 11.1864 8.39667 13.3357 11 13.3357ZM11 12.269C13.0251 12.269 14.6667 10.5976 14.6667 8.53569C14.6667 6.47382 13.0251 4.80235 11 4.80235C8.97496 4.80235 7.33334 6.47382 7.33334 8.53569C7.33334 10.5976 8.97496 12.269 11 12.269Z" fill="#FFDA2C"/>
</g>
<defs>
<clipPath id="clip0_165_3418">
<rect y="0.535675" width="22" height="16" rx="2" fill="white"/>
</clipPath>
</defs>
</svg>
