<svg width="24" height="24" viewBox="0 0 24 24" fill="none" xmlns="http://www.w3.org/2000/svg">
<path d="M15.0406 1.28516H8.32396C5.89706 1.28516 4.68362 1.28516 3.75667 1.75746C2.9413 2.17291 2.27838 2.83583 1.86293 3.6512C1.39062 4.57815 1.39062 5.7916 1.39062 8.21849V14.9352C1.39062 17.3621 1.39062 18.5755 1.86293 19.5024C2.27838 20.3178 2.9413 20.9807 3.75667 21.3962C4.68362 21.8685 5.89706 21.8685 8.32396 21.8685H15.0406C17.4675 21.8685 18.681 21.8685 19.6079 21.3962C20.4233 20.9807 21.0862 20.3178 21.5017 19.5024C21.974 18.5755 21.974 17.3621 21.974 14.9352V8.21849C21.974 5.7916 21.974 4.57815 21.5017 3.6512C21.0862 2.83583 20.4233 2.17291 19.6079 1.75746C18.681 1.28516 17.4675 1.28516 15.0406 1.28516Z" stroke="white" stroke-width="2" stroke-linecap="round" stroke-linejoin="round"/>
<path d="M11.8722 13.7438C9.44242 13.7438 7.35233 14.8003 6.42502 16.5356C5.86102 17.5909 6.88392 18.6188 8.08053 18.6188H15.6639C16.8605 18.6188 17.8834 17.5909 17.3194 16.5356C16.3921 14.8003 14.302 13.7438 11.8722 13.7438Z" stroke="white" stroke-width="2" stroke-linecap="round" stroke-linejoin="round"/>
<path d="M14.5805 7.78548C14.5805 9.28125 13.368 10.4938 11.8722 10.4938C10.3764 10.4938 9.16387 9.28125 9.16387 7.78548C9.16387 6.28971 10.3764 5.07715 11.8722 5.07715C13.368 5.07715 14.5805 6.28971 14.5805 7.78548Z" stroke="white" stroke-width="2" stroke-linecap="round" stroke-linejoin="round"/>
</svg>
