<svg width="27" height="26" viewBox="0 0 27 26" fill="none" xmlns="http://www.w3.org/2000/svg">
<path d="M17.025 2.70831H10.3083C7.88144 2.70831 6.66799 2.70831 5.74104 3.18062C4.92567 3.59607 4.26276 4.25899 3.84731 5.07435C3.375 6.00131 3.375 7.21475 3.375 9.64165V16.3583C3.375 18.7852 3.375 19.9987 3.84731 20.9256C4.26276 21.741 4.92567 22.4039 5.74104 22.8193C6.66799 23.2916 7.88144 23.2916 10.3083 23.2916H17.025C19.4519 23.2916 20.6653 23.2916 21.5923 22.8193C22.4077 22.4039 23.0706 21.741 23.486 20.9256C23.9583 19.9987 23.9583 18.7852 23.9583 16.3583V9.64165C23.9583 7.21475 23.9583 6.00131 23.486 5.07435C23.0706 4.25899 22.4077 3.59607 21.5923 3.18062C20.6653 2.70831 19.4519 2.70831 17.025 2.70831Z" stroke="#90A7E2" stroke-width="2" stroke-linecap="round" stroke-linejoin="round"/>
<path d="M13.8566 15.1667C11.4268 15.1667 9.3367 16.2232 8.40939 17.9584C7.8454 19.0138 8.86829 20.0417 10.0649 20.0417H17.6482C18.8449 20.0417 19.8678 19.0138 19.3038 17.9584C18.3764 16.2232 16.2864 15.1667 13.8566 15.1667Z" stroke="#90A7E2" stroke-width="2" stroke-linecap="round" stroke-linejoin="round"/>
<path d="M16.5649 9.20833C16.5649 10.7041 15.3523 11.9167 13.8566 11.9167C12.3608 11.9167 11.1482 10.7041 11.1482 9.20833C11.1482 7.71256 12.3608 6.5 13.8566 6.5C15.3523 6.5 16.5649 7.71256 16.5649 9.20833Z" stroke="#90A7E2" stroke-width="2" stroke-linecap="round" stroke-linejoin="round"/>
</svg>
