<svg width="32" height="32" viewBox="0 0 32 32" fill="none" xmlns="http://www.w3.org/2000/svg">
<path d="M20.132 3.33301H11.8654C8.87842 3.33301 7.38494 3.33301 6.24408 3.91431C5.24055 4.42563 4.42465 5.24153 3.91333 6.24506C3.33203 7.38592 3.33203 8.87939 3.33203 11.8663V20.133C3.33203 23.12 3.33203 24.6134 3.91333 25.7543C4.42465 26.7578 5.24055 27.5737 6.24408 28.085C7.38494 28.6663 8.87842 28.6663 11.8654 28.6663H20.132C23.119 28.6663 24.6125 28.6663 25.7533 28.085C26.7568 27.5737 27.5727 26.7578 28.0841 25.7543C28.6654 24.6134 28.6654 23.12 28.6654 20.133V11.8663C28.6654 8.87939 28.6654 7.38592 28.0841 6.24506C27.5727 5.24153 26.7568 4.42563 25.7533 3.91431C24.6125 3.33301 23.119 3.33301 20.132 3.33301Z" stroke="#90A7E2" stroke-width="2" stroke-linecap="round" stroke-linejoin="round"/>
<path d="M16.2324 18.6667C13.2419 18.6667 10.6695 19.967 9.52821 22.1027C8.83406 23.4016 10.093 24.6667 11.5658 24.6667H20.8991C22.3719 24.6667 23.6308 23.4016 22.9367 22.1027C21.7953 19.967 19.2229 18.6667 16.2324 18.6667Z" stroke="#90A7E2" stroke-width="2" stroke-linecap="round" stroke-linejoin="round"/>
<path d="M19.5658 11.3333C19.5658 13.1743 18.0734 14.6667 16.2324 14.6667C14.3915 14.6667 12.8991 13.1743 12.8991 11.3333C12.8991 9.49238 14.3915 8 16.2324 8C18.0734 8 19.5658 9.49238 19.5658 11.3333Z" stroke="#90A7E2" stroke-width="2" stroke-linecap="round" stroke-linejoin="round"/>
</svg>
