<svg width="19" height="19" viewBox="0 0 19 19" fill="none" xmlns="http://www.w3.org/2000/svg">
<path d="M11.0309 4.74405C11.187 5.40569 11.7812 5.89858 12.4906 5.89858C13.3189 5.89858 13.9904 5.2271 13.9904 4.39881C13.9904 3.57053 13.3189 2.89905 12.4906 2.89905C11.7664 2.89905 11.1624 3.41233 11.0218 4.09506C9.80891 4.22514 8.8618 5.25381 8.8618 6.50045C8.8618 6.50327 8.8618 6.50538 8.8618 6.50819C7.54274 6.56374 6.33829 6.9392 5.38204 7.53194C5.02696 7.25702 4.58118 7.09319 4.09743 7.09319C2.93657 7.09319 1.99579 8.03397 1.99579 9.19483C1.99579 10.0372 2.49079 10.7628 3.20587 11.0982C3.27548 13.538 5.93399 15.5005 9.20423 15.5005C12.4745 15.5005 15.1365 13.5359 15.2026 11.094C15.912 10.7565 16.4028 10.033 16.4028 9.19553C16.4028 8.03467 15.462 7.09389 14.3012 7.09389C13.8195 7.09389 13.3759 7.25631 13.0215 7.52913C12.0568 6.93217 10.839 6.5567 9.50657 6.50678C9.50657 6.50467 9.50657 6.50327 9.50657 6.50116C9.50657 5.60819 10.1703 4.8671 11.0309 4.74545V4.74405ZM5.29766 10.5287C5.33282 9.76647 5.83907 9.18147 6.42759 9.18147C7.0161 9.18147 7.4661 9.79952 7.43094 10.5617C7.39579 11.3239 6.95634 11.6009 6.36712 11.6009C5.7779 11.6009 5.26251 11.2908 5.29766 10.5287ZM11.9816 9.18147C12.5708 9.18147 13.077 9.76647 13.1115 10.5287C13.1466 11.2908 12.6306 11.6009 12.042 11.6009C11.4535 11.6009 11.0134 11.3246 10.9782 10.5617C10.9431 9.79952 11.3924 9.18147 11.9816 9.18147ZM11.2813 12.2921C11.3916 12.3033 11.462 12.418 11.4191 12.5206C11.057 13.3862 10.202 13.9944 9.20423 13.9944C8.20649 13.9944 7.3522 13.3862 6.98938 12.5206C6.94649 12.418 7.0168 12.3033 7.12719 12.2921C7.77407 12.2267 8.47368 12.1908 9.20423 12.1908C9.93477 12.1908 10.6337 12.2267 11.2813 12.2921Z" fill="#82B6D3"/>
</svg>
