<svg width="24" height="24" viewBox="0 0 24 24" fill="none" xmlns="http://www.w3.org/2000/svg">
<g clip-path="url(#clip0_1_2407)">
<path d="M16.9111 8.95203C16.8284 9.03603 16.7173 9.08403 16.6015 9.08403H5.62241C5.23477 9.08403 5.03859 8.60403 5.30805 8.31843L7.10914 6.42483C7.19186 6.33843 7.30532 6.28802 7.4235 6.28802H18.4428C18.8328 6.28802 19.029 6.77283 18.7524 7.05843L16.9111 8.95203ZM16.9111 17.4144C16.8284 17.496 16.7173 17.544 16.6015 17.544H5.62241C5.23477 17.544 5.03859 17.076 5.30805 16.7976L7.10914 14.9496C7.19186 14.8656 7.30532 14.8176 7.4235 14.8176H18.4428C18.8328 14.8176 19.029 15.2904 18.7524 15.5688L16.9111 17.4144ZM16.6015 10.5528C16.7173 10.5528 16.8284 10.5984 16.9111 10.6824L18.7524 12.5304C19.029 12.8064 18.8328 13.2816 18.4428 13.2816H7.4235C7.30532 13.2816 7.19186 13.2336 7.10914 13.1496L5.30805 11.3016C5.03623 11.0232 5.23241 10.5552 5.62241 10.5552L16.6015 10.5528Z" fill="#00FFAD"/>
<path d="M12.035 0C18.561 0 23.8532 5.3736 23.8532 12C23.8532 18.6264 18.561 24 12.035 24C5.50898 24 0.216797 18.6264 0.216797 12C0.216797 5.3736 5.50898 0 12.035 0Z" fill="black"/>
<path fill-rule="evenodd" clip-rule="evenodd" d="M5.68158 10.8552H16.6181C16.7552 10.8552 16.8852 10.9104 16.9798 11.0088L18.7099 12.7776C19.029 13.104 18.8021 13.6608 18.3483 13.6608H7.41176C7.27467 13.6608 7.14467 13.6056 7.05012 13.5072L5.31994 11.7384C4.99849 11.412 5.22776 10.8552 5.68158 10.8552ZM5.31994 8.51035L7.05012 6.74155C7.14703 6.64315 7.27703 6.58795 7.41176 6.58795H18.3459C18.7998 6.58795 19.029 7.14475 18.7076 7.47115L16.9798 9.23995C16.8829 9.33835 16.7529 9.39355 16.6181 9.39355H5.68158C5.22776 9.39355 4.99849 8.83675 5.31994 8.51035ZM18.7076 16.0056L16.9774 17.7743C16.8805 17.8727 16.7505 17.9279 16.6158 17.9279H5.68158C5.22776 17.9279 4.99849 17.3712 5.31994 17.0448L7.05012 15.276C7.14703 15.1776 7.27703 15.1223 7.41176 15.1223H18.3459C18.7998 15.1223 19.029 15.6792 18.7076 16.0056Z" fill="white"/>
</g>
<defs>
<clipPath id="clip0_1_2407">
<rect width="23.6364" height="24" fill="white" transform="translate(0.216797)"/>
</clipPath>
</defs>
</svg>
