<svg width="25" height="24" viewBox="0 0 25 24" fill="none" xmlns="http://www.w3.org/2000/svg">
<g clip-path="url(#clip0_119_2176)">
<g clip-path="url(#clip1_119_2176)">
<path d="M17.5779 8.68741C17.4952 8.77141 17.3841 8.81941 17.2683 8.81941H6.28916C5.90152 8.81941 5.70534 8.33941 5.97479 8.05381L7.77588 6.16021C7.85861 6.07381 7.97207 6.02341 8.09025 6.02341H19.1095C19.4995 6.02341 19.6957 6.50821 19.4192 6.79381L17.5779 8.68741ZM17.5779 17.1498C17.4952 17.2314 17.3841 17.2794 17.2683 17.2794H6.28916C5.90152 17.2794 5.70534 16.8114 5.97479 16.533L7.77588 14.685C7.85861 14.601 7.97207 14.553 8.09025 14.553H19.1095C19.4995 14.553 19.6957 15.0258 19.4192 15.3042L17.5779 17.1498ZM17.2683 10.2882C17.3841 10.2882 17.4952 10.3338 17.5779 10.4178L19.4192 12.2658C19.6957 12.5418 19.4995 13.017 19.1095 13.017H8.09025C7.97207 13.017 7.85861 12.969 7.77588 12.885L5.97479 11.037C5.70298 10.7586 5.89916 10.2906 6.28916 10.2906L17.2683 10.2882Z" fill="#00FFAD"/>
<path d="M12.702 -0.264648C19.228 -0.264648 24.5202 5.10895 24.5202 11.7354C24.5202 18.3618 19.228 23.7354 12.702 23.7354C6.17597 23.7354 0.883789 18.3618 0.883789 11.7354C0.883789 5.10895 6.17597 -0.264648 12.702 -0.264648Z" fill="url(#paint0_linear_119_2176)"/>
<path d="M12.702 -0.264648C19.228 -0.264648 24.5202 5.10895 24.5202 11.7354C24.5202 18.3618 19.228 23.7354 12.702 23.7354C6.17597 23.7354 0.883789 18.3618 0.883789 11.7354C0.883789 5.10895 6.17597 -0.264648 12.702 -0.264648Z" fill="url(#paint1_linear_119_2176)"/>
<path fill-rule="evenodd" clip-rule="evenodd" d="M6.34866 10.5905H17.2852C17.4223 10.5905 17.5523 10.6457 17.6468 10.7441L19.377 12.5129C19.6961 12.8393 19.4692 13.3961 19.0154 13.3961H8.07884C7.94175 13.3961 7.81175 13.3409 7.71721 13.2425L5.98702 11.4737C5.66557 11.1473 5.89484 10.5905 6.34866 10.5905ZM5.98702 8.24567L7.71721 6.47687C7.81412 6.37847 7.94412 6.32327 8.07884 6.32327H19.013C19.4668 6.32327 19.6961 6.88007 19.3747 7.20647L17.6468 8.97527C17.5499 9.07367 17.4199 9.12887 17.2852 9.12887H6.34866C5.89484 9.12887 5.66557 8.57207 5.98702 8.24567ZM19.3747 15.7409L17.6445 17.5097C17.5476 17.6081 17.4176 17.6633 17.2828 17.6633H6.34866C5.89484 17.6633 5.66557 17.1065 5.98702 16.7801L7.71721 15.0113C7.81412 14.9129 7.94412 14.8577 8.07884 14.8577H19.013C19.4668 14.8577 19.6961 15.4145 19.3747 15.7409Z" fill="white"/>
</g>
</g>
<defs>
<linearGradient id="paint0_linear_119_2176" x1="12.873" y1="-0.264646" x2="28.2585" y2="3.19698" gradientUnits="userSpaceOnUse">
<stop stop-color="#FF038B"/>
<stop offset="1" stop-color="#326CFF"/>
</linearGradient>
<linearGradient id="paint1_linear_119_2176" x1="12.702" y1="-42.0521" x2="59.456" y2="-18.1138" gradientUnits="userSpaceOnUse">
<stop stop-color="#FF038B"/>
<stop offset="1" stop-color="#326CFF"/>
</linearGradient>
<clipPath id="clip0_119_2176">
<rect width="24" height="24" fill="white" transform="translate(0.668945)"/>
</clipPath>
<clipPath id="clip1_119_2176">
<rect width="23.6364" height="24" fill="white" transform="translate(0.883789 -0.264648)"/>
</clipPath>
</defs>
</svg>
