<svg width="348" height="218" viewBox="0 0 348 218" fill="none" xmlns="http://www.w3.org/2000/svg">
<path d="M126.088 10.3839L133.236 9.34237L126.088 8.29127L127.856 5.50105L125.066 7.26883L124.024 0.130859L122.973 7.26883L120.183 5.50105L121.95 8.29127L114.812 9.34237L121.95 10.3839L120.183 13.1741L122.973 11.4064L124.024 18.5539L125.066 11.4064L127.856 13.1741L126.088 10.3839Z" fill="#FFD50B"/>
<path opacity="0.7" d="M126.088 10.3839L133.236 9.34237L126.088 8.29127L127.856 5.50105L125.066 7.26883L124.024 0.130859L122.973 7.26883L120.183 5.50105L121.95 8.29127L114.812 9.34237L121.95 10.3839L120.183 13.1741L122.973 11.4064L124.024 18.5539L125.066 11.4064L127.856 13.1741L126.088 10.3839Z" fill="#40B8FB"/>
<path d="M152.231 61.1433L162.102 59.7004L152.231 58.2479L154.668 54.3971L150.817 56.8337L149.365 46.9629L147.922 56.8337L144.061 54.3971L146.508 58.2479L136.637 59.7004L146.508 61.1433L144.061 64.9941L147.922 62.5575L149.365 72.4283L150.817 62.5575L154.668 64.9941L152.231 61.1433Z" fill="#FFD50B"/>
<path opacity="0.7" d="M152.231 61.1433L162.102 59.7004L152.231 58.2479L154.668 54.3971L150.817 56.8337L149.365 46.9629L147.922 56.8337L144.061 54.3971L146.508 58.2479L136.637 59.7004L146.508 61.1433L144.061 64.9941L147.922 62.5575L149.365 72.4283L150.817 62.5575L154.668 64.9941L152.231 61.1433Z" fill="white"/>
<path d="M68.6307 156.087L77.0204 154.864L68.6307 153.631L70.7042 150.353L67.4267 152.427L66.2035 144.047L64.9709 152.427L61.6933 150.353L63.7669 153.631L55.3867 154.864L63.7669 156.087L61.6933 159.364L64.9709 157.291L66.2035 165.681L67.4267 157.291L70.7042 159.364L68.6307 156.087Z" fill="#FFD50B"/>
<path opacity="0.7" d="M68.6307 156.087L77.0204 154.864L68.6307 153.631L70.7042 150.353L67.4267 152.427L66.2035 144.047L64.9709 152.427L61.6933 150.353L63.7669 153.631L55.3867 154.864L63.7669 156.087L61.6933 159.364L64.9709 157.291L66.2035 165.681L67.4267 157.291L70.7042 159.364L68.6307 156.087Z" fill="#40B8FB"/>
<path d="M233.548 138.714L241.661 137.52L233.548 136.335L235.555 133.163L232.382 135.169L231.197 127.057L230.003 135.169L226.831 133.163L228.837 136.335L220.725 137.52L228.837 138.714L226.831 141.887L230.003 139.88L231.197 147.993L232.382 139.88L235.555 141.887L233.548 138.714Z" fill="#FFD50B"/>
<path opacity="0.7" d="M233.548 138.714L241.661 137.52L233.548 136.335L235.555 133.163L232.382 135.169L231.197 127.057L230.003 135.169L226.831 133.163L228.837 136.335L220.725 137.52L228.837 138.714L226.831 141.887L230.003 139.88L231.197 147.993L232.382 139.88L235.555 141.887L233.548 138.714Z" fill="#40B8FB"/>
<path d="M311.942 77.6834L318.631 76.7087L311.942 75.7245L313.595 73.1158L310.986 74.7689L310.002 68.0801L309.027 74.7689L306.409 73.1158L308.062 75.7245L301.383 76.7087L308.062 77.6834L306.409 80.3016L309.027 78.6485L310.002 85.3278L310.986 78.6485L313.595 80.3016L311.942 77.6834Z" fill="#FFD50B"/>
<path opacity="0.7" d="M311.942 77.6834L318.631 76.7087L311.942 75.7245L313.595 73.1158L310.986 74.7689L310.002 68.0801L309.027 74.7689L306.409 73.1158L308.062 75.7245L301.383 76.7087L308.062 77.6834L306.409 80.3016L309.027 78.6485L310.002 85.3278L310.986 78.6485L313.595 80.3016L311.942 77.6834Z" fill="#40B8FB"/>
<path d="M338.048 205.756L347.919 204.313L338.048 202.87L340.494 199.01L336.634 201.456L335.191 191.585L333.748 201.456L329.888 199.01L332.334 202.87L322.463 204.313L332.334 205.756L329.888 209.616L333.748 207.18L335.191 217.041L336.634 207.18L340.494 209.616L338.048 205.756Z" fill="#FFD50B"/>
<path opacity="0.7" d="M338.048 205.756L347.919 204.313L338.048 202.87L340.494 199.01L336.634 201.456L335.191 191.585L333.748 201.456L329.888 199.01L332.334 202.87L322.463 204.313L332.334 205.756L329.888 209.616L333.748 207.18L335.191 217.041L336.634 207.18L340.494 209.616L338.048 205.756Z" fill="#40B8FB"/>
<path d="M134.009 206.674L143.879 205.231L134.009 203.778L136.455 199.927L132.594 202.364L131.152 192.493L129.699 202.364L125.848 199.927L128.285 203.778L118.414 205.231L128.285 206.674L125.848 210.524L129.699 208.088L131.152 217.959L132.594 208.088L136.455 210.524L134.009 206.674Z" fill="#FFD50B"/>
<path opacity="0.7" d="M134.009 206.674L143.879 205.231L134.009 203.778L136.455 199.927L132.594 202.364L131.152 192.493L129.699 202.364L125.848 199.927L128.285 203.778L118.414 205.231L128.285 206.674L125.848 210.524L129.699 208.088L131.152 217.959L132.594 208.088L136.455 210.524L134.009 206.674Z" fill="#40B8FB"/>
</svg>
