<svg width="42" height="42" viewBox="0 0 42 42" fill="none" xmlns="http://www.w3.org/2000/svg">
<g clip-path="url(#clip0_1_2149)">
<circle cx="21" cy="21" r="21" fill="#22A079"/>
<path fill-rule="evenodd" clip-rule="evenodd" d="M23.8423 14.0718V17.5617L23.846 17.5655C30.2134 17.8638 35 19.1518 35 20.689C35 22.23 30.2134 23.5142 23.846 23.8126V35H18.1725V23.8126C11.7978 23.5104 7 22.2263 7 20.6853C7 19.1442 11.7941 17.8601 18.1725 17.5617V14.0718H10.3247V8.75H31.6902V14.0718H23.8423ZM23.8423 22.8532V22.857V22.8608C29.4638 22.604 33.6605 21.6068 33.6605 20.4133C33.6605 19.2198 29.4675 18.2227 23.8423 17.9658V21.8637C23.679 21.8788 22.8033 21.9543 21.0519 21.9543C19.5937 21.9543 18.5362 21.8901 18.1688 21.8637V17.9621C12.5362 18.2151 8.32839 19.216 8.32839 20.4095C8.32839 21.6068 12.5325 22.604 18.1688 22.857V22.8532C18.5325 22.8721 19.5603 22.9137 21.026 22.9137C22.859 22.9137 23.6827 22.8646 23.8423 22.8532Z" fill="white"/>
</g>
<defs>
<clipPath id="clip0_1_2149">
<rect width="42" height="42" fill="white"/>
</clipPath>
</defs>
</svg>
