<svg width="18" height="19" viewBox="0 0 18 19" fill="none" xmlns="http://www.w3.org/2000/svg">
<g clip-path="url(#clip0_1_8041)">
<path fill-rule="evenodd" clip-rule="evenodd" d="M18 9.5C18 14.4706 13.9706 18.5 9 18.5C4.02944 18.5 0 14.4706 0 9.5C0 4.52944 4.02944 0.5 9 0.5C13.9706 0.5 18 4.52944 18 9.5ZM9.32252 7.1442C8.44714 7.5083 6.6976 8.2619 4.07392 9.40499C3.64787 9.57442 3.42469 9.74016 3.40438 9.90223C3.37004 10.1761 3.71303 10.284 4.1801 10.4308C4.24364 10.4508 4.30947 10.4715 4.37695 10.4935C4.83648 10.6428 5.45462 10.8176 5.77597 10.8245C6.06746 10.8308 6.3928 10.7106 6.75198 10.464C9.20337 8.80925 10.4688 7.97286 10.5482 7.95483C10.6043 7.94211 10.6819 7.92611 10.7346 7.97288C10.7872 8.01966 10.782 8.10824 10.7765 8.132C10.7425 8.27685 9.39609 9.52857 8.69934 10.1763C8.48213 10.3783 8.32806 10.5215 8.29656 10.5542C8.226 10.6275 8.1541 10.6968 8.08499 10.7635C7.65808 11.175 7.33793 11.4836 8.10271 11.9876C8.47023 12.2298 8.76432 12.4301 9.05772 12.6299C9.37813 12.8481 9.69772 13.0657 10.1112 13.3367C10.2166 13.4058 10.3172 13.4775 10.4152 13.5474C10.7881 13.8132 11.1231 14.0521 11.5369 14.014C11.7774 13.9918 12.0258 13.7657 12.152 13.0913C12.4502 11.4974 13.0362 8.04384 13.1717 6.62073C13.1835 6.49605 13.1686 6.33648 13.1566 6.26643C13.1446 6.19638 13.1196 6.09658 13.0285 6.0227C12.9207 5.9352 12.7542 5.91675 12.6798 5.91806C12.3413 5.92403 11.8219 6.10461 9.32252 7.1442Z" fill="#82B6D3"/>
</g>
<defs>
<clipPath id="clip0_1_8041">
<rect width="18" height="18" fill="white" transform="translate(0 0.5)"/>
</clipPath>
</defs>
</svg>
