<svg width="27" height="25" viewBox="0 0 27 25" fill="none" xmlns="http://www.w3.org/2000/svg">
<g clip-path="url(#clip0_1_2370)">
<path fill-rule="evenodd" clip-rule="evenodd" d="M5.20518 1.06712L0.477798 11.0122C0.459809 11.0491 0.454108 11.0909 0.46153 11.1314C0.468951 11.1719 0.489105 11.2089 0.519045 11.2371L13.2866 23.4901C13.3228 23.5249 13.3711 23.5444 13.4214 23.5444C13.4716 23.5444 13.5199 23.5249 13.5562 23.4901L26.3237 11.2378C26.3536 11.2097 26.3738 11.1726 26.3812 11.1322C26.3886 11.0917 26.3829 11.0499 26.365 11.0129L21.6376 1.06788C21.6223 1.03448 21.5978 1.00619 21.5669 0.986382C21.536 0.966576 21.5001 0.956095 21.4634 0.956192H5.38086C5.34401 0.955732 5.30782 0.965961 5.27664 0.985644C5.24547 1.00533 5.22065 1.03362 5.20518 1.06712Z" fill="#05D79A"/>
<path fill-rule="evenodd" clip-rule="evenodd" d="M15.0616 12.0346C14.97 12.0415 14.4964 12.0698 13.44 12.0698C12.5998 12.0698 12.0032 12.0445 11.7939 12.0346C8.54688 11.8915 6.12323 11.3254 6.12323 10.6477C6.12323 9.96986 8.54688 9.40452 11.7939 9.25917V11.4708C12.0063 11.4861 12.6143 11.5221 13.4545 11.5221C14.4628 11.5221 14.9677 11.48 15.0586 11.4716V9.2607C18.2988 9.40529 20.7171 9.97139 20.7171 10.6477C20.7171 11.3239 18.2995 11.89 15.0586 12.0338L15.0616 12.0346ZM15.0616 9.03197V7.05291H19.5835V4.03497H7.27204V7.05291H11.7932V9.0312C8.11837 9.20027 5.35481 9.92932 5.35481 10.8029C5.35481 11.6766 8.11837 12.4049 11.7932 12.5747V18.9166H15.0609V12.5724C18.7273 12.4033 21.4862 11.6751 21.4862 10.8022C21.4862 9.92932 18.7296 9.20103 15.0609 9.0312L15.0616 9.03197Z" fill="white"/>
</g>
<defs>
<clipPath id="clip0_1_2370">
<rect width="26.7826" height="24" fill="white" transform="translate(0.217407 0.264648)"/>
</clipPath>
</defs>
</svg>
