<svg width="42" height="43" viewBox="0 0 42 43" fill="none" xmlns="http://www.w3.org/2000/svg">
<rect y="0.5" width="42" height="42" rx="21" fill="#90A7E2"/>
<g clip-path="url(#clip0_58_654)">
<path d="M28 12.5H14C12.9 12.5 12 13.4 12 14.5V28.5C12 29.6 12.9 30.5 14 30.5H28C29.1 30.5 30 29.6 30 28.5V14.5C30 13.4 29.1 12.5 28 12.5ZM28 28.5H14V14.5H28V28.5ZM16 19.5H18V26.5H16V19.5ZM20 16.5H22V26.5H20V16.5ZM24 22.5H26V26.5H24V22.5Z" fill="white"/>
</g>
<defs>
<clipPath id="clip0_58_654">
<rect width="24" height="24" fill="white" transform="translate(9 9.5)"/>
</clipPath>
</defs>
</svg>
