<svg id="Слой_1" data-name="Слой 1" xmlns="http://www.w3.org/2000/svg" viewBox="0 0 34 23.38005"><defs><style>.cls-1{fill:#90a7e2;}</style></defs><path class="cls-1" d="M0,20.43372V8.481a1.531,1.531,0,0,1,.49577-.19092q16.50054-.01373,33.00108-.0078c.41127,0,.50147.09234.50155.51072.00071,3.70737.00609,7.41475-.00792,11.12206a4.0896,4.0896,0,0,1-.18833,1.20395,3.67955,3.67955,0,0,1-3.66658,2.5679q-12.94811.002-25.89621.00048c-.21026,0-.42115.00832-.63067-.0046a3.62662,3.62662,0,0,1-3.22241-2.095A8.28039,8.28039,0,0,1,0,20.43372Zm8.49925-3.66419c0-.16593.00359-.33195-.00063-.49777A1.06411,1.06411,0,0,0,7.39984,15.189c-.3539-.0054-.70835-.01094-1.06184.00247a1.05077,1.05077,0,0,0-1.02282,1.02018c-.00947.19869.011.39925-.00508.59709-.09327,1.14463.37244,1.58813,1.58246,1.588C8.12275,18.39666,8.59662,17.98847,8.49925,16.76953Z" transform="translate(0 -0.30998)"/><path class="cls-1" d="M0,3.56711A8.09007,8.09007,0,0,1,.47788,2.23729,3.59192,3.59192,0,0,1,3.774.31666C5.88769.30391,8.00149.31332,10.11524.31331q10.02647,0,20.05294.001a3.61663,3.61663,0,0,1,3.70937,2.88673,14.392,14.392,0,0,1,.10223,2.643c.00058.10308-.19556.22383-.32113.30411-.06311.04034-.17262.0086-.26115.0086Q16.99659,6.1569.59568,6.14857A2.07845,2.07845,0,0,1,0,5.95765Z" transform="translate(0 -0.30998)"/></svg>