<svg width="24" height="25" viewBox="0 0 24 25" fill="none" xmlns="http://www.w3.org/2000/svg">
<g clip-path="url(#clip0_1_2418)">
<circle cx="12" cy="12.2646" r="12" fill="#F3BA2F"/>
<path fill-rule="evenodd" clip-rule="evenodd" d="M12 7.88065L8.8927 10.988L8.89276 10.9878L7.08483 9.17985L12 4.26465L16.9168 9.18132L15.1088 10.9893L12 7.88065ZM5.80806 10.4563L4 12.2646L5.80794 14.0723L7.616 12.2643L5.80806 10.4563ZM8.89268 13.5415L12 16.6487L15.1087 13.54L16.9177 15.3471L16.9168 15.348L12 20.2646L7.08481 15.3495L7.08225 15.3469L8.89268 13.5415ZM18.1921 10.4573L16.384 12.2654L18.192 14.0733L20 12.2653L18.1921 10.4573Z" fill="white"/>
</g>
<defs>
<clipPath id="clip0_1_2418">
<rect width="24" height="24" fill="white" transform="translate(0 0.264648)"/>
</clipPath>
</defs>
</svg>
