<svg width="22" height="16" viewBox="0 0 22 16" fill="none" xmlns="http://www.w3.org/2000/svg">
<g clip-path="url(#clip0_165_2393)">
<path d="M19.9048 0H2.09524C0.93807 0 0 0.955126 0 2.13333V13.8667C0 15.0449 0.93807 16 2.09524 16H19.9048C21.0619 16 22 15.0449 22 13.8667V2.13333C22 0.955126 21.0619 0 19.9048 0Z" fill="#F93939"/>
<path fill-rule="evenodd" clip-rule="evenodd" d="M0 0H7V16H0V0Z" fill="#151515"/>
<path fill-rule="evenodd" clip-rule="evenodd" d="M15 0H22V16H15V0Z" fill="#249F58"/>
<path fill-rule="evenodd" clip-rule="evenodd" d="M11 10.6667C12.4457 10.6667 13.6191 9.47204 13.6191 8.00004C13.6191 6.52804 12.4457 5.33337 11 5.33337C9.55431 5.33337 8.38098 6.52804 8.38098 8.00004C8.38098 9.47204 9.55431 10.6667 11 10.6667ZM11 9.60004C11.8675 9.60004 12.5715 8.64537 12.5715 7.46671C12.5715 6.28804 11.8675 5.33337 11 5.33337C10.1326 5.33337 9.4286 6.28804 9.4286 7.46671C9.4286 8.64537 10.1326 9.60004 11 9.60004ZM11 8.53337C11.2892 8.53337 11.5238 8.05551 11.5238 7.46671C11.5238 6.87791 11.2892 6.40004 11 6.40004C10.7109 6.40004 10.4762 6.87791 10.4762 7.46671C10.4762 8.05551 10.7109 8.53337 11 8.53337Z" fill="white"/>
</g>
<defs>
<clipPath id="clip0_165_2393">
<rect width="22" height="16" rx="2" fill="white"/>
</clipPath>
</defs>
</svg>
