<svg width="22" height="16" viewBox="0 0 22 16" fill="none" xmlns="http://www.w3.org/2000/svg">
<g clip-path="url(#clip0_165_2388)">
<rect width="22" height="16" fill="#F93939"/>
<path d="M19.9048 0H2.09524C0.93807 0 0 0.955126 0 2.13333V13.8667C0 15.0449 0.93807 16 2.09524 16H19.9048C21.0619 16 22 15.0449 22 13.8667V2.13333C22 0.955126 21.0619 0 19.9048 0Z" fill="#F93939"/>
<path fill-rule="evenodd" clip-rule="evenodd" d="M11.0001 4.26662L9.42862 3.19995L8.381 4.26662H9.42862L8.381 5.33328L6.28577 4.26662V9.59995L9.42862 8.53328L8.381 10.6666H7.33339L8.381 11.7333L9.42862 10.6666L11.0001 12.8V4.26662ZM12.5715 3.19995L13.6191 4.26662H12.5715L13.6191 5.33328L15.7143 4.26662V9.59995L12.5715 8.53328L13.6191 10.6666H14.6667L13.6191 11.7333L12.5715 10.6666L11.0001 12.8V4.26662L12.5715 3.19995Z" fill="#151515"/>
</g>
<defs>
<clipPath id="clip0_165_2388">
<rect width="22" height="16" rx="2" fill="white"/>
</clipPath>
</defs>
</svg>
