<svg width="22" height="16" viewBox="0 0 22 16" fill="none" xmlns="http://www.w3.org/2000/svg">
<g clip-path="url(#clip0_165_2400)">
<rect width="22" height="16" fill="white"/>
<path d="M19.9048 0H2.09524C0.93807 0 0 0.955126 0 2.13333V13.8667C0 15.0449 0.93807 16 2.09524 16H19.9048C21.0619 16 22 15.0449 22 13.8667V2.13333C22 0.955126 21.0619 0 19.9048 0Z" fill="white"/>
<path fill-rule="evenodd" clip-rule="evenodd" d="M0 0H11V16H0V0Z" fill="#249F58"/>
<path fill-rule="evenodd" clip-rule="evenodd" d="M13.6735 10.9472C12.8123 12.0746 11.4651 12.8 9.95232 12.8C7.34899 12.8 5.23804 10.6506 5.23804 7.99995C5.23804 5.34928 7.34899 3.19995 9.95232 3.19995C11.4651 3.19995 12.8123 3.92528 13.6735 5.05275C13.0082 4.55995 12.1712 4.26662 11.2618 4.26662C9.09328 4.26662 7.33328 5.93808 7.33328 7.99995C7.33328 10.0618 9.09328 11.7333 11.2618 11.7333C12.1712 11.7333 13.0082 11.44 13.6735 10.9472Z" fill="#F93939"/>
<path fill-rule="evenodd" clip-rule="evenodd" d="M13.619 8.00002L14.6666 7.46669L15.1904 6.40002L15.7143 7.46669L16.7619 8.00002L15.7143 8.53336L15.1904 9.60002L14.6666 8.53336L13.619 8.00002Z" fill="#F93939"/>
</g>
<defs>
<clipPath id="clip0_165_2400">
<rect width="22" height="16" rx="2" fill="white"/>
</clipPath>
</defs>
</svg>
