<svg width="22" height="16" viewBox="0 0 22 16" fill="none" xmlns="http://www.w3.org/2000/svg">
<g clip-path="url(#clip0_165_2379)">
<path d="M19.9048 0H2.09524C0.93807 0 0 0.955126 0 2.13333V13.8667C0 15.0449 0.93807 16 2.09524 16H19.9048C21.0619 16 22 15.0449 22 13.8667V2.13333C22 0.955126 21.0619 0 19.9048 0Z" fill="#FFDA2C"/>
<path fill-rule="evenodd" clip-rule="evenodd" d="M0 0H7V16H0V0Z" fill="#1A47B8"/>
<path fill-rule="evenodd" clip-rule="evenodd" d="M15 0H22V16H15V0Z" fill="#F93939"/>
<path fill-rule="evenodd" clip-rule="evenodd" d="M12.5044 10.5974C13.1476 10.3979 13.6191 9.78886 13.6191 9.06672V5.86672C13.6191 4.97606 12.9151 4.26672 12.0476 4.26672H9.95241C9.08708 4.26672 8.38098 4.98139 8.38098 5.86672V9.06672C8.38098 9.79419 8.85031 10.4001 9.49565 10.5985C9.69051 11.2598 10.2897 11.7334 11 11.7334C11.7145 11.7334 12.3096 11.2534 12.5044 10.5974Z" fill="#D4AF2C"/>
<path fill-rule="evenodd" clip-rule="evenodd" d="M9.42859 5.33337H10.4762V6.93337H9.42859V5.33337ZM11.5238 7.46671H12.5714V9.06671H11.5238V7.46671Z" fill="#AF010D"/>
<path fill-rule="evenodd" clip-rule="evenodd" d="M11.5238 5.33337H12.5714V6.93337H11.5238V5.33337ZM9.42859 7.46671H10.4762V9.06671H9.42859V7.46671Z" fill="#FFDA2C"/>
</g>
<defs>
<clipPath id="clip0_165_2379">
<rect width="22" height="16" rx="2" fill="white"/>
</clipPath>
</defs>
</svg>
