<svg width="22" height="16" viewBox="0 0 22 16" fill="none" xmlns="http://www.w3.org/2000/svg">
<g clip-path="url(#clip0_165_2373)">
<rect width="22" height="16" fill="#F93939"/>
<path d="M19.9048 0H2.09524C0.93807 0 0 0.955126 0 2.13333V13.8667C0 15.0449 0.93807 16 2.09524 16H19.9048C21.0619 16 22 15.0449 22 13.8667V2.13333C22 0.955126 21.0619 0 19.9048 0Z" fill="#F93939"/>
<path fill-rule="evenodd" clip-rule="evenodd" d="M0 8H22V16H0V8Z" fill="#151515"/>
<path fill-rule="evenodd" clip-rule="evenodd" d="M13.0439 10.225C13.4986 9.60421 13.7668 8.83407 13.7668 7.99994C13.7668 6.43514 12.8208 5.09541 11.4799 4.53967L10.846 5.44314C11.9293 5.77061 12.7192 6.79141 12.7192 7.99994C12.7192 8.63354 12.5023 9.21594 12.1398 9.67247L8.52871 7.46661L11.3531 10.3423C10.9812 10.5493 10.5538 10.6666 10.1001 10.6666C9.22014 10.6666 8.44175 10.225 7.96718 9.54661L7.33337 10.4501C8.0049 11.2362 8.9949 11.7333 10.1001 11.7333C10.8439 11.7333 11.5375 11.5071 12.1158 11.1189L12.7192 11.7333L13.7668 10.6666L13.0439 10.225ZM8.52871 5.33327H9.57633V6.39994H8.52871V5.33327Z" fill="#FFDA2C"/>
</g>
<defs>
<clipPath id="clip0_165_2373">
<rect width="22" height="16" rx="2" fill="white"/>
</clipPath>
</defs>
</svg>
