<svg width="22" height="16" viewBox="0 0 22 16" fill="none" xmlns="http://www.w3.org/2000/svg">
<g clip-path="url(#clip0_165_2338)">
<path d="M19.9048 0H2.09524C0.93807 0 0 0.955126 0 2.13333V13.8667C0 15.0449 0.93807 16 2.09524 16H19.9048C21.0619 16 22 15.0449 22 13.8667V2.13333C22 0.955126 21.0619 0 19.9048 0Z" fill="white"/>
<path fill-rule="evenodd" clip-rule="evenodd" d="M0 11H22V16H0V11ZM0 0H22V5H0V0Z" fill="#3ECBF8"/>
<path d="M11 9.60002C11.8679 9.60002 12.5714 8.88368 12.5714 8.00002C12.5714 7.11637 11.8679 6.40002 11 6.40002C10.1321 6.40002 9.42859 7.11637 9.42859 8.00002C9.42859 8.88368 10.1321 9.60002 11 9.60002Z" fill="#FFDA2C"/>
</g>
<defs>
<clipPath id="clip0_165_2338">
<rect width="22" height="16" rx="2" fill="white"/>
</clipPath>
</defs>
</svg>
