<svg width="22" height="16" viewBox="0 0 22 16" fill="none" xmlns="http://www.w3.org/2000/svg">
<g clip-path="url(#clip0_165_2325)">
<rect width="22" height="16" fill="#3ECBF8"/>
<path d="M19.9048 0H2.09524C0.93807 0 0 0.955126 0 2.13333V13.8667C0 15.0449 0.93807 16 2.09524 16H19.9048C21.0619 16 22 15.0449 22 13.8667V2.13333C22 0.955126 21.0619 0 19.9048 0Z" fill="#3ECBF8"/>
<path fill-rule="evenodd" clip-rule="evenodd" d="M4.69855 4.78397C5.60998 4.7253 6.28569 4.5173 6.28569 4.26663C6.28569 4.01703 5.60998 3.80797 4.69855 3.7493C4.64093 2.8213 4.43664 2.1333 4.19045 2.1333C3.94531 2.1333 3.73998 2.8213 3.68236 3.7493C2.77093 3.80797 2.09521 4.01597 2.09521 4.26663C2.09521 4.51623 2.77093 4.7253 3.68236 4.78397C3.73998 5.71197 3.94426 6.39997 4.19045 6.39997C4.4356 6.39997 4.64093 5.71197 4.69855 4.78397Z" fill="#F93939"/>
<path fill-rule="evenodd" clip-rule="evenodd" d="M4.69855 4.78398C5.60998 4.72531 6.2857 4.51731 6.2857 4.26664C6.2857 4.01704 5.60998 3.80798 4.69855 3.74931C4.64094 2.82131 4.43665 2.13331 4.19046 2.13331C3.94532 2.13331 3.73998 2.82131 3.68236 3.74931C2.77094 3.80798 2.09522 4.01598 2.09522 4.26664C2.09522 4.51624 2.77094 4.72531 3.68236 4.78398C3.73998 5.71198 3.94427 6.39998 4.19046 6.39998C4.4356 6.39998 4.64094 5.71198 4.69855 4.78398ZM4.72998 5.31731L5.22236 4.81598C5.14379 6.09384 4.88189 6.93331 4.19046 6.93331C3.49903 6.93331 3.23713 6.09278 3.1596 4.81704L3.64989 5.31624C2.39693 5.23731 1.57141 4.97064 1.57141 4.26664C1.57141 3.56264 2.39693 3.29598 3.64989 3.21704L3.1596 3.71624C3.23713 2.44051 3.49903 1.59998 4.19046 1.59998C4.88189 1.59998 5.14379 2.44051 5.22132 3.71624L4.73103 3.21704C5.98398 3.29598 6.80951 3.56264 6.80951 4.26664C6.80951 4.97064 5.98398 5.23731 4.73103 5.31624L4.72998 5.31731Z" fill="white"/>
<path fill-rule="evenodd" clip-rule="evenodd" d="M0 10H22V11H0V10ZM0 12H22V13H0V12Z" fill="#FFDA2C"/>
</g>
<defs>
<clipPath id="clip0_165_2325">
<rect width="22" height="16" rx="2" fill="white"/>
</clipPath>
</defs>
</svg>
