<svg width="22" height="16" viewBox="0 0 22 16" fill="none" xmlns="http://www.w3.org/2000/svg">
<g clip-path="url(#clip0_165_2312)">
<path d="M19.9048 0H2.09524C0.93807 0 0 0.955126 0 2.13333V13.8667C0 15.0449 0.93807 16 2.09524 16H19.9048C21.0619 16 22 15.0449 22 13.8667V2.13333C22 0.955126 21.0619 0 19.9048 0Z" fill="#F93939"/>
<path fill-rule="evenodd" clip-rule="evenodd" d="M0 11H22V16H0V11Z" fill="#249F58"/>
<path fill-rule="evenodd" clip-rule="evenodd" d="M0 0H22V5H0V0Z" fill="#3ECBF8"/>
<path fill-rule="evenodd" clip-rule="evenodd" d="M12.5714 7.46667H13.619V8.53334H12.5714V7.46667Z" fill="white"/>
<path fill-rule="evenodd" clip-rule="evenodd" d="M13.0953 9.60004C12.6176 10.2475 11.857 10.6667 11 10.6667C9.55431 10.6667 8.38098 9.47204 8.38098 8.00004C8.38098 6.52804 9.55431 5.33337 11 5.33337C11.857 5.33337 12.6176 5.75257 13.0953 6.40004H11.5238C10.6564 6.40004 9.95241 7.11684 9.95241 8.00004C9.95241 8.88324 10.6564 9.60004 11.5238 9.60004H13.0953Z" fill="white"/>
</g>
<defs>
<clipPath id="clip0_165_2312">
<rect width="22" height="16" rx="2" fill="white"/>
</clipPath>
</defs>
</svg>
