<svg width="22" height="16" viewBox="0 0 22 16" fill="none" xmlns="http://www.w3.org/2000/svg">
<g clip-path="url(#clip0_165_2290)">
<path d="M19.9048 0H2.09524C0.93807 0 0 0.955126 0 2.13333V13.8667C0 15.0449 0.93807 16 2.09524 16H19.9048C21.0619 16 22 15.0449 22 13.8667V2.13333C22 0.955126 21.0619 0 19.9048 0Z" fill="#FFDA2C"/>
<path fill-rule="evenodd" clip-rule="evenodd" d="M0 0H7V16H0V0ZM15 0H22V16H15V0Z" fill="#1A47B8"/>
<path fill-rule="evenodd" clip-rule="evenodd" d="M10.4762 10.6667H11.5238V11.7333H10.4762V10.6667ZM12.5715 8.53333H13.6191V9.59999H12.5715V8.53333ZM8.38098 8.53333H9.4286V9.59999H8.38098V8.53333Z" fill="#AE6A3E"/>
<path fill-rule="evenodd" clip-rule="evenodd" d="M11.5238 8.53339V4.26672H10.4762V8.53339H9.4286V9.60006H10.4762V10.6667H11.5238V9.60006H12.5715V8.53339H11.5238ZM12.5715 5.33339H13.6191V8.53339H12.5715V5.33339ZM8.38098 5.33339H9.4286V8.53339H8.38098V5.33339Z" fill="#151515"/>
</g>
<defs>
<clipPath id="clip0_165_2290">
<rect width="22" height="16" rx="2" fill="white"/>
</clipPath>
</defs>
</svg>
