<svg width="22" height="16" viewBox="0 0 22 16" fill="none" xmlns="http://www.w3.org/2000/svg">
<g clip-path="url(#clip0_165_2266)">
<rect width="22" height="16" fill="#1A47B8"/>
<path d="M11.0001 12.8C13.6037 12.8 15.7143 10.6509 15.7143 7.99995C15.7143 5.34898 13.6037 3.19995 11.0001 3.19995C8.39642 3.19995 6.28577 5.34898 6.28577 7.99995C6.28577 10.6509 8.39642 12.8 11.0001 12.8Z" fill="white"/>
<path fill-rule="evenodd" clip-rule="evenodd" d="M8.90479 8.53333H13.0953V9.59999H8.90479V8.53333Z" fill="#CBCBCB"/>
<path fill-rule="evenodd" clip-rule="evenodd" d="M8.38098 5.33339H9.4286V6.40006H8.38098V5.33339ZM10.4762 4.26672H11.5238V5.33339H10.4762V4.26672ZM12.5715 5.33339H13.6191V6.40006H12.5715V5.33339ZM13.6191 7.46672H14.6667V8.53339H13.6191V7.46672ZM12.5715 9.60006H13.6191V10.6667H12.5715V9.60006Z" fill="#249F58"/>
<path fill-rule="evenodd" clip-rule="evenodd" d="M11.5238 6.40002H12.5714V7.46669H11.5238V6.40002Z" fill="#151515"/>
<path fill-rule="evenodd" clip-rule="evenodd" d="M11.5238 7.46667H12.5714V8.53334H11.5238V7.46667Z" fill="#AE6A3E"/>
<path fill-rule="evenodd" clip-rule="evenodd" d="M9.42859 6.40002H10.4762V7.46669H9.42859V6.40002Z" fill="#AE6A3E"/>
<path fill-rule="evenodd" clip-rule="evenodd" d="M9.42859 7.46667H10.4762V8.53334H9.42859V7.46667Z" fill="#FFDA2C"/>
<path fill-rule="evenodd" clip-rule="evenodd" d="M10.4762 10.6667H11.5239V11.7333H10.4762V10.6667ZM8.38099 9.60001H9.42861V10.6667H8.38099V9.60001ZM7.33337 7.46667H8.38099V8.53334H7.33337V7.46667Z" fill="#249F58"/>
<path fill-rule="evenodd" clip-rule="evenodd" d="M0 13.8667H22V16H0V13.8667ZM0 0H22V2.13333H0V0Z" fill="#F93939"/>
</g>
<defs>
<clipPath id="clip0_165_2266">
<rect width="22" height="16" rx="2" fill="white"/>
</clipPath>
</defs>
</svg>
