<svg width="22" height="16" viewBox="0 0 22 16" fill="none" xmlns="http://www.w3.org/2000/svg">
<g clip-path="url(#clip0_165_2254)">
<rect width="22" height="16" fill="#FF6C2D"/>
<path d="M19.9048 0H2.09524C0.93807 0 0 0.955126 0 2.13333V13.8667C0 15.0449 0.93807 16 2.09524 16H19.9048C21.0619 16 22 15.0449 22 13.8667V2.13333C22 0.955126 21.0619 0 19.9048 0Z" fill="#FF6C2D"/>
<path fill-rule="evenodd" clip-rule="evenodd" d="M0 16L22 0H0V16Z" fill="#FFDA2C"/>
<path fill-rule="evenodd" clip-rule="evenodd" d="M3.14282 10.6666L3.66663 12.2666L5.76187 12.8L6.28568 11.7333L10.4762 12.2666L9.42854 9.59995H11.5238L14.6666 10.6666L15.7143 9.59995L12.5714 8.53328L13.619 7.46662H16.7619L17.2857 6.39995H14.6666V5.33328H16.7619L17.8095 4.26662L13.619 3.19995L11.5238 5.33328L10.4762 6.39995L11.5238 7.46662L8.38092 6.93328L6.28568 10.6666L5.23806 11.7333L3.14282 10.6666Z" fill="white"/>
</g>
<defs>
<clipPath id="clip0_165_2254">
<rect width="22" height="16" rx="2" fill="white"/>
</clipPath>
</defs>
</svg>
