<svg width="22" height="16" viewBox="0 0 22 16" fill="none" xmlns="http://www.w3.org/2000/svg">
<g clip-path="url(#clip0_165_2242)">
<path d="M19.9048 0H2.09524C0.93807 0 0 0.955126 0 2.13333V13.8667C0 15.0449 0.93807 16 2.09524 16H19.9048C21.0619 16 22 15.0449 22 13.8667V2.13333C22 0.955126 21.0619 0 19.9048 0Z" fill="#FFDA2C"/>
<path fill-rule="evenodd" clip-rule="evenodd" d="M9.42859 7.46667H10.4762V8.53334H9.42859V7.46667ZM11.5238 7.46667H12.5714V8.53334H11.5238V7.46667Z" fill="#03BCDB"/>
<path fill-rule="evenodd" clip-rule="evenodd" d="M12.5715 7.46669H13.6191V9.60002H12.5715V7.46669ZM11.5238 6.40002H12.5715V7.46669H11.5238V6.40002ZM9.4286 6.40002H10.4762V7.46669H9.4286V6.40002ZM8.38098 7.46669H9.4286V9.60002H8.38098V7.46669Z" fill="#AF010D"/>
<path fill-rule="evenodd" clip-rule="evenodd" d="M10.4762 8.53333H11.5238V9.59999H10.4762V8.53333Z" fill="#249F58"/>
<path fill-rule="evenodd" clip-rule="evenodd" d="M10.4762 6.40002H11.5238V7.46669H10.4762V6.40002Z" fill="#151515"/>
<path fill-rule="evenodd" clip-rule="evenodd" d="M11.5238 8.53333H12.5714V9.59999H11.5238V8.53333ZM9.42859 8.53333H10.4762V9.59999H9.42859V8.53333Z" fill="#D4AF2C"/>
<path fill-rule="evenodd" clip-rule="evenodd" d="M10.4762 7.46667H11.5238V8.53334H10.4762V7.46667Z" fill="#249F58"/>
<path fill-rule="evenodd" clip-rule="evenodd" d="M0 10.6666H22V16H0V10.6666Z" fill="#249F58"/>
<path fill-rule="evenodd" clip-rule="evenodd" d="M0 0H22V5.33333H0V0Z" fill="#F93939"/>
</g>
<defs>
<clipPath id="clip0_165_2242">
<rect width="22" height="16" rx="2" fill="white"/>
</clipPath>
</defs>
</svg>
