<svg width="22" height="16" viewBox="0 0 22 16" fill="none" xmlns="http://www.w3.org/2000/svg">
<g clip-path="url(#clip0_165_2218)">
<rect width="22" height="16" fill="#249F58"/>
<path fill-rule="evenodd" clip-rule="evenodd" d="M11 2.1333L18.8571 7.99997L11 13.8666L3.14282 7.99997" fill="#FFDA2C"/>
<path d="M11 11.7334C13.0251 11.7334 14.6667 10.0619 14.6667 8.00006C14.6667 5.93819 13.0251 4.26672 11 4.26672C8.975 4.26672 7.33337 5.93819 7.33337 8.00006C7.33337 10.0619 8.975 11.7334 11 11.7334Z" fill="#1A47B8"/>
<path fill-rule="evenodd" clip-rule="evenodd" d="M9.42859 9.59998V10.6666H10.4762V9.59998H9.42859ZM11.5238 9.59998V10.6666H12.5714V9.59998H11.5238Z" fill="white"/>
<path fill-rule="evenodd" clip-rule="evenodd" d="M8.38098 6.40002C8.38098 6.40002 10.7528 6.82669 12.4625 7.57122L14.6667 8.53336" fill="white"/>
<path d="M8.38098 6.40002C8.38098 6.40002 10.7528 6.82669 12.4625 7.57122L14.6667 8.53336" stroke="white"/>
</g>
<defs>
<clipPath id="clip0_165_2218">
<rect width="22" height="16" rx="2" fill="white"/>
</clipPath>
</defs>
</svg>
