<svg width="22" height="16" viewBox="0 0 22 16" fill="none" xmlns="http://www.w3.org/2000/svg">
<g clip-path="url(#clip0_165_2199)">
<rect width="22" height="16" fill="#F93939"/>
<path d="M19.9048 0H2.09524C0.93807 0 0 0.955126 0 2.13333V13.8667C0 15.0449 0.93807 16 2.09524 16H19.9048C21.0619 16 22 15.0449 22 13.8667V2.13333C22 0.955126 21.0619 0 19.9048 0Z" fill="#F93939"/>
<path fill-rule="evenodd" clip-rule="evenodd" d="M0 8H22V16H0V8Z" fill="#249F58"/>
<path fill-rule="evenodd" clip-rule="evenodd" d="M11 9.86672L8.84509 11.0209L9.25681 8.57819L7.51147 6.84486L9.921 6.48859L11 4.26672L12.0791 6.48966L14.4886 6.84592L12.7433 8.57712L13.155 11.0219" fill="#FFDA2C"/>
</g>
<defs>
<clipPath id="clip0_165_2199">
<rect width="22" height="16" rx="2" fill="white"/>
</clipPath>
</defs>
</svg>
