<svg width="22" height="16" viewBox="0 0 22 16" fill="none" xmlns="http://www.w3.org/2000/svg">
<g clip-path="url(#clip0_165_2185)">
<rect width="22" height="16" fill="#F93939"/>
<path fill-rule="evenodd" clip-rule="evenodd" d="M8.381 5.33337H8.90481L9.42862 6.40004H8.381V5.33337ZM9.42862 6.40004H10.4762V7.46671H9.42862V6.40004ZM8.381 7.46671H9.42862V8.53337H8.381V7.46671ZM7.33339 8.53337H8.381V9.60004H7.33339V8.53337ZM7.33339 9.60004H8.381V10.6667H7.33339V9.60004ZM6.80958 9.60004H7.33339V10.6667H6.28577L6.80958 9.60004ZM9.42862 8.53337H11.5239V10.6667H9.42862V8.53337ZM13.6191 5.33337H13.0953L12.5715 6.40004H13.6191V5.33337ZM12.5715 6.40004H11.5239V7.46671H12.5715V6.40004ZM13.6191 7.46671H12.5715V8.53337H13.6191V7.46671ZM14.6667 8.53337H13.6191V9.60004H14.6667V8.53337ZM14.6667 9.60004H13.6191V10.6667H14.6667V9.60004ZM15.1905 9.60004H14.6667V10.6667H15.7143L15.1905 9.60004ZM12.5715 8.53337H11.5239V10.6667H12.5715V8.53337Z" fill="white"/>
<path opacity="0.7" fill-rule="evenodd" clip-rule="evenodd" d="M9.42861 7.46669H10.4762V8.53336H9.42861V7.46669ZM8.38099 8.53336H9.42861V10.6667H8.38099V8.53336ZM8.38099 6.40002H9.42861V7.46669H8.38099V6.40002ZM7.85718 7.46669H8.38099V8.53336H7.33337L7.85718 7.46669ZM12.5715 7.46669H11.5239V8.53336H12.5715V7.46669ZM13.6191 8.53336H12.5715V10.6667H13.6191V8.53336ZM13.6191 6.40002H12.5715V7.46669H13.6191V6.40002ZM14.1429 7.46669H13.6191V8.53336H14.6667L14.1429 7.46669ZM11.5239 6.40002H10.4762V8.53336H11.5239V6.40002Z" fill="white"/>
<path opacity="0.7" fill-rule="evenodd" clip-rule="evenodd" d="M10.4762 5.33337H11.5238V6.40004H10.4762V5.33337Z" fill="white"/>
<path fill-rule="evenodd" clip-rule="evenodd" d="M0 0H22V4H0V0ZM0 12H22V16H0V12Z" fill="#232C80"/>
</g>
<defs>
<clipPath id="clip0_165_2185">
<rect width="22" height="16" rx="2" fill="white"/>
</clipPath>
</defs>
</svg>
