<svg width="22" height="16" viewBox="0 0 22 16" fill="none" xmlns="http://www.w3.org/2000/svg">
<g clip-path="url(#clip0_165_2165)">
<rect width="22" height="16" fill="#1A47B8"/>
<path fill-rule="evenodd" clip-rule="evenodd" d="M0 8.53333H22V9.59999H0V8.53333Z" fill="white"/>
<path fill-rule="evenodd" clip-rule="evenodd" d="M0 9.59998H22V10.6666H0V9.59998Z" fill="#F93939"/>
<path fill-rule="evenodd" clip-rule="evenodd" d="M0 10.6666H22V11.7333H0V10.6666Z" fill="white"/>
<path fill-rule="evenodd" clip-rule="evenodd" d="M5.23805 7.46669H6.28567V8.53336H5.23805V7.46669ZM7.33329 6.40002H8.38091V7.46669H7.33329V6.40002ZM9.42852 7.46669H10.4761V8.53336H9.42852V7.46669ZM10.4761 9.60002H11.5238V10.6667H10.4761V9.60002ZM4.19043 9.60002H5.23805V10.6667H4.19043V9.60002ZM9.42852 11.7334H10.4761V12.8H9.42852V11.7334ZM7.33329 12.8H8.38091V13.8667H7.33329V12.8ZM5.23805 11.7334H6.28567V12.8H5.23805V11.7334Z" fill="#FFDA2C"/>
</g>
<defs>
<clipPath id="clip0_165_2165">
<rect width="22" height="16" rx="2" fill="white"/>
</clipPath>
</defs>
</svg>
