<svg width="22" height="16" viewBox="0 0 22 16" fill="none" xmlns="http://www.w3.org/2000/svg">
<g clip-path="url(#clip0_165_2155)">
<path d="M19.9048 0H2.09524C0.93807 0 0 0.955126 0 2.13333V13.8667C0 15.0449 0.93807 16 2.09524 16H19.9048C21.0619 16 22 15.0449 22 13.8667V2.13333C22 0.955126 21.0619 0 19.9048 0Z" fill="white"/>
<path fill-rule="evenodd" clip-rule="evenodd" d="M0 11H22V16H0V11Z" fill="#FFDA2C"/>
<path fill-rule="evenodd" clip-rule="evenodd" d="M0 9H22V12H0V9Z" fill="#249F58"/>
<path fill-rule="evenodd" clip-rule="evenodd" d="M0 0H22V6H0V0Z" fill="#1A47B8"/>
<path fill-rule="evenodd" clip-rule="evenodd" d="M3.14282 2.1333H4.19044V3.19997H3.14282V2.1333Z" fill="#FFDA2C"/>
<path fill-rule="evenodd" clip-rule="evenodd" d="M2.09521 2.13332H3.14283V3.19998H2.09521V2.13332ZM4.19045 2.13332H5.23807V3.19998H4.19045V2.13332ZM3.14283 3.19998H4.19045V4.26665H3.14283V3.19998ZM3.14283 1.06665H4.19045V2.13332H3.14283V1.06665Z" fill="#D4AF2C"/>
<path fill-rule="evenodd" clip-rule="evenodd" d="M9 0H13V16H9V0Z" fill="#F93939"/>
</g>
<defs>
<clipPath id="clip0_165_2155">
<rect width="22" height="16" rx="2" fill="white"/>
</clipPath>
</defs>
</svg>
