<svg width="22" height="16" viewBox="0 0 22 16" fill="none" xmlns="http://www.w3.org/2000/svg">
<g clip-path="url(#clip0_165_2138)">
<rect width="22" height="16" fill="#F93939"/>
<path d="M19.9048 0H2.09524C0.93807 0 0 0.955126 0 2.13333V13.8667C0 15.0449 0.93807 16 2.09524 16H19.9048C21.0619 16 22 15.0449 22 13.8667V2.13333C22 0.955126 21.0619 0 19.9048 0Z" fill="#F93939"/>
<path fill-rule="evenodd" clip-rule="evenodd" d="M5.75992 7.71195L4.21991 8.53649L4.51325 6.79035L3.26868 5.55302L4.98992 5.30022L5.75992 3.71088L6.52887 5.30022L8.25011 5.55302L7.00344 6.79035L7.29887 8.53542L5.75992 7.71195ZM9.42868 3.19995H10.4763V4.26662H9.42868V3.19995ZM10.4763 5.33328H11.5239V6.39995H10.4763V5.33328ZM10.4763 7.46662H11.5239V8.53328H10.4763V7.46662ZM9.42868 9.59995H10.4763V10.6666H9.42868V9.59995Z" fill="#FFDA2C"/>
</g>
<defs>
<clipPath id="clip0_165_2138">
<rect width="22" height="16" rx="2" fill="white"/>
</clipPath>
</defs>
</svg>
