<svg width="22" height="16" viewBox="0 0 22 16" fill="none" xmlns="http://www.w3.org/2000/svg">
<g clip-path="url(#clip0_165_2102)">
<rect width="22" height="16" fill="white"/>
<path fill-rule="evenodd" clip-rule="evenodd" d="M0 11H22V16H0V11Z" fill="#1A47B8"/>
<path fill-rule="evenodd" clip-rule="evenodd" d="M0 0H22V5H0V0Z" fill="#F93939"/>
<path fill-rule="evenodd" clip-rule="evenodd" d="M8.38098 4.26662H9.4286V5.33328H8.38098V4.26662ZM10.4762 3.19995H11.5238V5.33328H10.4762V3.19995ZM12.5715 4.26662H13.6191V5.33328H12.5715V4.26662Z" fill="#3A99FF"/>
<path fill-rule="evenodd" clip-rule="evenodd" d="M11.5238 3.19995H12.5714V5.33328H11.5238V3.19995ZM9.42859 3.19995H10.4762V5.33328H9.42859V3.19995Z" fill="#1A47B8"/>
<mask id="mask0_165_2102" style="mask-type:alpha" maskUnits="userSpaceOnUse" x="8" y="5" width="6" height="7">
<path d="M13.6191 9.06671C13.6191 10.5387 12.4457 11.7334 11 11.7334C9.55431 11.7334 8.38098 10.5387 8.38098 9.06671V5.33337H13.6191V9.06671Z" fill="white"/>
</mask>
<g mask="url(#mask0_165_2102)">
<path d="M13.6191 9.06671C13.6191 10.5387 12.4457 11.7334 11 11.7334C9.55431 11.7334 8.38098 10.5387 8.38098 9.06671V5.33337H13.6191V9.06671Z" fill="#F93939"/>
<path fill-rule="evenodd" clip-rule="evenodd" d="M9.4286 10.6667H10.4762V11.7334H9.4286V10.6667ZM11.5238 10.6667H12.5715V11.7334H11.5238V10.6667ZM10.4762 9.60004H11.5238V10.6667H10.4762V9.60004ZM9.4286 8.53337H10.4762V9.60004H9.4286V8.53337ZM11.5238 8.53337H12.5715V9.60004H11.5238V8.53337ZM10.4762 7.46671H11.5238V8.53337H10.4762V7.46671ZM9.4286 6.40004H10.4762V7.46671H9.4286V6.40004ZM11.5238 6.40004H12.5715V7.46671H11.5238V6.40004ZM10.4762 5.33337H11.5238V6.40004H10.4762V5.33337ZM12.5715 5.33337H13.6191V6.40004H12.5715V5.33337ZM12.5715 7.46671H13.6191V8.53337H12.5715V7.46671ZM12.5715 9.60004H13.6191V10.6667H12.5715V9.60004ZM8.38098 9.60004H9.4286V10.6667H8.38098V9.60004ZM8.38098 7.46671H9.4286V8.53337H8.38098V7.46671ZM8.38098 5.33337H9.4286V6.40004H8.38098V5.33337Z" fill="white"/>
</g>
</g>
<defs>
<clipPath id="clip0_165_2102">
<rect width="22" height="16" rx="2" fill="white"/>
</clipPath>
</defs>
</svg>
