<svg width="22" height="16" viewBox="0 0 22 16" fill="none" xmlns="http://www.w3.org/2000/svg">
<g clip-path="url(#clip0_165_2090)">
<rect width="22" height="16" fill="#1A47B8"/>
<path fill-rule="evenodd" clip-rule="evenodd" d="M5.23806 5.33328H4.70942C4.41647 5.33328 4.19044 5.57207 4.19044 5.86662C4.19044 6.15256 4.4228 6.39995 4.70942 6.39995H5.23806V6.9382C5.23806 7.23648 5.47258 7.46662 5.76187 7.46662C6.0427 7.46662 6.28568 7.23004 6.28568 6.9382V6.39995H6.81432C7.10727 6.39995 7.3333 6.16117 7.3333 5.86662C7.3333 5.58068 7.10094 5.33328 6.81432 5.33328H6.28568V4.79503C6.28568 4.49675 6.05116 4.26662 5.76187 4.26662C5.48104 4.26662 5.23806 4.5032 5.23806 4.79503V5.33328ZM3.14282 3.19995H4.19044V4.26662H3.14282V3.19995Z" fill="white"/>
<path d="M22 10H0V12H22V10Z" fill="#FFDA2C"/>
</g>
<defs>
<clipPath id="clip0_165_2090">
<rect width="22" height="16" rx="2" fill="white"/>
</clipPath>
</defs>
</svg>
