<svg width="22" height="16" viewBox="0 0 22 16" fill="none" xmlns="http://www.w3.org/2000/svg">
<g clip-path="url(#clip0_165_2054)">
<rect width="22" height="16" fill="#249F58"/>
<path fill-rule="evenodd" clip-rule="evenodd" d="M10.4762 7.46667H0V8.53333H10.4762V16H11.5238V8.53333H22V7.46667H11.5238V0H10.4762V7.46667Z" fill="#151515"/>
<path fill-rule="evenodd" clip-rule="evenodd" d="M9.42857 6.4V7.46667H10.4762V0H9.42857V6.4H0V7.46667H10.4762V6.4H9.42857ZM10.4762 7.46667H22V6.4H9.42857V7.46667H10.4762V6.4H9.42857V16H10.4762V7.46667Z" fill="#FFDA2C"/>
<path fill-rule="evenodd" clip-rule="evenodd" d="M12.5714 9.6V8.53333H11.5238V16H12.5714V9.6H22V8.53333H11.5238V9.6H12.5714ZM0 8.53333H13.619V9.6H0V8.53333ZM11.5238 0H12.5714V9.6H11.5238V0Z" fill="white"/>
<path d="M11 11.7334C13.0251 11.7334 14.6667 10.0619 14.6667 8.00006C14.6667 5.93819 13.0251 4.26672 11 4.26672C8.975 4.26672 7.33337 5.93819 7.33337 8.00006C7.33337 10.0619 8.975 11.7334 11 11.7334Z" fill="#F93939"/>
<path fill-rule="evenodd" clip-rule="evenodd" d="M9.42859 6.40002H10.4762V7.46669H9.42859V6.40002ZM11.5238 6.40002H12.5714V7.46669H11.5238V6.40002ZM11.5238 8.53336H12.5714V9.60002H11.5238V8.53336ZM9.42859 8.53336H10.4762V9.60002H9.42859V8.53336Z" fill="#0A6A30"/>
<path fill-rule="evenodd" clip-rule="evenodd" d="M10.4762 6.40002H11.5238V8.53336H10.4762V6.40002Z" fill="#955DCC"/>
</g>
<defs>
<clipPath id="clip0_165_2054">
<rect width="22" height="16" rx="2" fill="white"/>
</clipPath>
</defs>
</svg>
