<svg width="22" height="16" viewBox="0 0 22 16" fill="none" xmlns="http://www.w3.org/2000/svg">
<g clip-path="url(#clip0_165_2025)">
<path d="M19.9048 0H2.09524C0.93807 0 0 0.955126 0 2.13333V13.8667C0 15.0449 0.93807 16 2.09524 16H19.9048C21.0619 16 22 15.0449 22 13.8667V2.13333C22 0.955126 21.0619 0 19.9048 0Z" fill="white"/>
<path fill-rule="evenodd" clip-rule="evenodd" d="M0 11H22V16H0V11Z" fill="#151515"/>
<path fill-rule="evenodd" clip-rule="evenodd" d="M0 0H22V5H0V0Z" fill="#F93939"/>
<path fill-rule="evenodd" clip-rule="evenodd" d="M11 7.46669L9.4286 6.40002L8.38098 7.46669L9.4286 9.60002L10.4762 8.53336H11.5238L12.5715 9.60002L13.6191 7.46669L12.5715 6.40002L11 7.46669Z" fill="#D4AF2C"/>
</g>
<defs>
<clipPath id="clip0_165_2025">
<rect width="22" height="16" rx="2" fill="white"/>
</clipPath>
</defs>
</svg>
