<svg width="22" height="16" viewBox="0 0 22 16" fill="none" xmlns="http://www.w3.org/2000/svg">
<g clip-path="url(#clip0_165_2018)">
<rect width="22" height="16" fill="white"/>
<path fill-rule="evenodd" clip-rule="evenodd" d="M0 11H22V16H0V11ZM0 0H22V5H0V0Z" fill="#1A47B8"/>
<path d="M11 9.60002C11.8679 9.60002 12.5714 8.88368 12.5714 8.00002C12.5714 7.11637 11.8679 6.40002 11 6.40002C10.1321 6.40002 9.42859 7.11637 9.42859 8.00002C9.42859 8.88368 10.1321 9.60002 11 9.60002Z" fill="#1A47B8"/>
<path d="M11 8.53334C11.2893 8.53334 11.5238 8.29456 11.5238 8.00001C11.5238 7.70546 11.2893 7.46667 11 7.46667C10.7107 7.46667 10.4762 7.70546 10.4762 8.00001C10.4762 8.29456 10.7107 8.53334 11 8.53334Z" fill="#FFDA2C"/>
<path fill-rule="evenodd" clip-rule="evenodd" d="M8.38098 7.46667L9.4286 8.53334L11 9.60001L12.5715 8.53334L13.6191 7.46667L12.5715 9.60001H9.4286L8.38098 7.46667Z" fill="#249F58"/>
</g>
<defs>
<clipPath id="clip0_165_2018">
<rect width="22" height="16" rx="2" fill="white"/>
</clipPath>
</defs>
</svg>
