<svg width="22" height="16" viewBox="0 0 22 16" fill="none" xmlns="http://www.w3.org/2000/svg">
<g clip-path="url(#clip0_165_2008)">
<rect width="22" height="16" fill="white"/>
<path fill-rule="evenodd" clip-rule="evenodd" d="M0 11H22V16H0V11Z" fill="#F93939"/>
<path fill-rule="evenodd" clip-rule="evenodd" d="M0 0H22V5H0V0Z" fill="#00B731"/>
<path fill-rule="evenodd" clip-rule="evenodd" d="M11 7.46669C11.2891 7.46669 11.5238 7.22776 11.5238 6.93336C11.5238 6.63896 11.2891 6.40002 11 6.40002C10.7109 6.40002 10.4762 6.63896 10.4762 6.93336C10.4762 7.22776 10.7109 7.46669 11 7.46669ZM13.0952 7.46669C13.3844 7.46669 13.6191 7.22776 13.6191 6.93336C13.6191 6.63896 13.3844 6.40002 13.0952 6.40002C12.8061 6.40002 12.5714 6.63896 12.5714 6.93336C12.5714 7.22776 12.8061 7.46669 13.0952 7.46669ZM15.1905 7.46669C15.4796 7.46669 15.7143 7.22776 15.7143 6.93336C15.7143 6.63896 15.4796 6.40002 15.1905 6.40002C14.9013 6.40002 14.6667 6.63896 14.6667 6.93336C14.6667 7.22776 14.9013 7.46669 15.1905 7.46669Z" fill="#FFDA2C"/>
<path fill-rule="evenodd" clip-rule="evenodd" d="M12.0476 8.53334C12.3368 8.53334 12.5714 8.29441 12.5714 8.00001C12.5714 7.70561 12.3368 7.46667 12.0476 7.46667C11.7585 7.46667 11.5238 7.70561 11.5238 8.00001C11.5238 8.29441 11.7585 8.53334 12.0476 8.53334ZM14.1429 8.53334C14.432 8.53334 14.6667 8.29441 14.6667 8.00001C14.6667 7.70561 14.432 7.46667 14.1429 7.46667C13.8537 7.46667 13.619 7.70561 13.619 8.00001C13.619 8.29441 13.8537 8.53334 14.1429 8.53334Z" fill="#00B731"/>
<path fill-rule="evenodd" clip-rule="evenodd" d="M12.5714 7.46667H13.619V9.60001H12.5714V7.46667Z" fill="#AE6A3E"/>
<path fill-rule="evenodd" clip-rule="evenodd" d="M0 0V16.0352L7.33333 8L0 0Z" fill="#3A99FF"/>
</g>
<defs>
<clipPath id="clip0_165_2008">
<rect width="22" height="16" rx="2" fill="white"/>
</clipPath>
</defs>
</svg>
