<svg width="22" height="16" viewBox="0 0 22 16" fill="none" xmlns="http://www.w3.org/2000/svg">
<g clip-path="url(#clip0_165_2001)">
<rect width="22" height="16" fill="#3A99FF"/>
<path d="M19.9048 0H2.09524C0.93807 0 0 0.955126 0 2.13333V13.8667C0 15.0449 0.93807 16 2.09524 16H19.9048C21.0619 16 22 15.0449 22 13.8667V2.13333C22 0.955126 21.0619 0 19.9048 0Z" fill="#3A99FF"/>
<path fill-rule="evenodd" clip-rule="evenodd" d="M0 0H22V8H0V0Z" fill="#249F58"/>
<path fill-rule="evenodd" clip-rule="evenodd" d="M0 0L22 8L0 16V0Z" fill="#F93939"/>
<path fill-rule="evenodd" clip-rule="evenodd" d="M9.42854 7.99994C9.42854 6.52794 8.2552 5.33328 6.80949 4.79994C5.36377 5.33328 4.19044 6.52794 4.19044 7.99994C4.19044 9.29061 5.09139 10.3658 6.28568 10.6133V6.93114C6.28568 6.63781 6.52873 6.39994 6.80949 6.39994C7.09863 6.39994 7.3333 6.62928 7.3333 6.93114V10.6133C8.52758 10.3658 9.42854 9.29061 9.42854 7.99994ZM10.4762 7.99994C10.4762 5.93808 8.83454 4.26661 6.80949 4.79994C4.78444 4.26661 3.14282 5.93808 3.14282 7.99994C3.14282 10.0618 4.78444 11.7333 6.80949 11.7333C8.83454 11.7333 10.4762 10.0618 10.4762 7.99994Z" fill="#FFDA2C"/>
</g>
<defs>
<clipPath id="clip0_165_2001">
<rect width="22" height="16" rx="2" fill="white"/>
</clipPath>
</defs>
</svg>
