<svg width="22" height="16" viewBox="0 0 22 16" fill="none" xmlns="http://www.w3.org/2000/svg">
<g clip-path="url(#clip0_165_1968)">
<rect width="22" height="16" fill="#3ECBF8"/>
<path fill-rule="evenodd" clip-rule="evenodd" d="M18.8571 10.6667V6.93337C18.8571 6.04271 18.1531 5.33337 17.2857 5.33337H15.1904C14.3251 5.33337 13.619 6.04804 13.619 6.93337V10.6667C13.619 10.8608 14.6666 12.8 16.2381 12.8C17.8095 12.8 18.8571 10.8555 18.8571 10.6667Z" fill="white"/>
<path fill-rule="evenodd" clip-rule="evenodd" d="M16.7619 8.53337V9.72591H18.8571V10.752H16.7619V12.8H15.7143V10.752H13.619V9.72591H15.7143V8.53337H13.619V5.33337H18.8571V8.53337H16.7619Z" fill="#F93939"/>
<path fill-rule="evenodd" clip-rule="evenodd" d="M14.6666 6.40002H17.8095V7.46669H14.6666V6.40002Z" fill="#FFDA2C"/>
<path d="M9.42856 1.06665H2.09523C1.51664 1.06665 1.04761 1.54421 1.04761 2.13332V7.46665C1.04761 8.05575 1.51664 8.53332 2.09523 8.53332H9.42856C10.0071 8.53332 10.4762 8.05575 10.4762 7.46665V2.13332C10.4762 1.54421 10.0071 1.06665 9.42856 1.06665Z" fill="white"/>
<path fill-rule="evenodd" clip-rule="evenodd" d="M5.23807 5.3333H2.09521V4.26663H5.23807V2.1333H6.28569V4.26663H9.42855V5.3333H6.28569V7.46663H5.23807V5.3333ZM7.85712 6.39997V7.46663H9.42855V6.39997H7.85712ZM7.85712 2.1333V3.19997H9.42855V2.1333H7.85712ZM2.09521 6.39997V7.46663H3.66664V6.39997H2.09521ZM2.09521 2.1333V3.19997H3.66664V2.1333H2.09521Z" fill="#F93939"/>
</g>
<defs>
<clipPath id="clip0_165_1968">
<rect width="22" height="16" rx="2" fill="white"/>
</clipPath>
</defs>
</svg>
