<svg width="22" height="16" viewBox="0 0 22 16" fill="none" xmlns="http://www.w3.org/2000/svg">
<g clip-path="url(#clip0_165_1860)">
<rect width="22" height="16" fill="#F93939"/>
<path fill-rule="evenodd" clip-rule="evenodd" d="M10.6385 8.01488C7.7974 6.79035 9.05664 3.01862 11.7752 3.20635C11.2242 3.49435 11.1445 4.03195 11.4588 4.52902C11.8108 5.08795 11.4274 5.98502 10.9518 6.20368C10.1703 6.56102 10.0142 7.51568 10.6375 8.01488H10.6385ZM10.8764 7.88475C11.1414 4.75622 15.0564 4.80955 15.7164 7.49862C15.2785 7.05595 14.7525 7.14448 14.3838 7.60315C13.9721 8.11515 13.0156 8.01915 12.6657 7.62768C12.0895 6.98342 11.1466 7.12635 10.8764 7.88582V7.88475ZM10.9727 8.19728C13.9899 7.54128 15.0836 11.3674 12.7505 12.7989C13.0397 12.241 12.8029 11.7536 12.2645 11.5296C11.6631 11.2778 11.4725 10.3189 11.7385 9.86342C12.1765 9.11355 11.7658 8.23888 10.9738 8.19622L10.9727 8.19728ZM7.0714 11.712C7.67902 11.8186 8.0614 11.4378 8.10436 10.848C8.1536 10.1866 8.9896 9.70662 9.49769 9.82395C10.3337 10.016 11.0241 9.34822 10.8177 8.56742C12.364 11.2874 9.12788 13.5274 7.07036 11.7109L7.0714 11.712ZM6.44598 5.86662C6.56645 6.48315 7.0515 6.70928 7.60883 6.53862C8.23217 6.34875 8.97283 6.97168 9.04721 7.49862C9.17083 8.36048 10.0299 8.77648 10.671 8.30288C8.73293 10.7456 5.51674 8.47355 6.44598 5.86555V5.86662Z" fill="white"/>
</g>
<defs>
<clipPath id="clip0_165_1860">
<rect width="22" height="16" rx="2" fill="white"/>
</clipPath>
</defs>
</svg>
