<svg width="22" height="16" viewBox="0 0 22 16" fill="none" xmlns="http://www.w3.org/2000/svg">
<g clip-path="url(#clip0_165_1826)">
<rect width="22" height="16" fill="white"/>
<path fill-rule="evenodd" clip-rule="evenodd" d="M0 11H22V16H0V11Z" fill="#151515"/>
<path fill-rule="evenodd" clip-rule="evenodd" d="M10.4762 8.53336H11.5239V9.06136C11.5239 9.37069 11.7585 9.60002 12.0477 9.60002C12.3284 9.60002 12.5715 9.35896 12.5715 9.06136V6.92802C12.5715 6.63682 12.8145 6.40002 13.0953 6.40002C13.3844 6.40002 13.6191 6.63042 13.6191 6.92802V8.53336H15.1801C15.4755 8.53336 15.7143 8.78082 15.7143 9.06669C15.7143 9.36109 15.4818 9.60002 15.1801 9.60002H6.82005C6.52462 9.60002 6.28577 9.35256 6.28577 9.06669C6.28577 8.84056 6.42196 8.64749 6.621 8.56962C6.6472 8.50136 6.687 8.43629 6.74253 8.38082L8.23015 6.86616C8.43339 6.65922 8.76967 6.66669 8.96872 6.86829C9.17405 7.07629 9.18034 7.40696 8.97291 7.61816L8.07405 8.53336H9.42862V8.00536C9.42862 7.70669 9.67167 7.46669 9.95243 7.46669C10.2416 7.46669 10.4762 7.69496 10.4762 8.00536V8.53336Z" fill="#249F58"/>
<path fill-rule="evenodd" clip-rule="evenodd" d="M0 0H22V5H0V0Z" fill="#F93939"/>
</g>
<defs>
<clipPath id="clip0_165_1826">
<rect width="22" height="16" rx="2" fill="white"/>
</clipPath>
</defs>
</svg>
