<svg width="22" height="16" viewBox="0 0 22 16" fill="none" xmlns="http://www.w3.org/2000/svg">
<g clip-path="url(#clip0_165_1783)">
<rect width="22" height="16" fill="#03BCDB"/>
<path fill-rule="evenodd" clip-rule="evenodd" d="M2.09521 2.66136C2.09521 2.37016 2.33826 2.13336 2.61902 2.13336C2.90817 2.13336 3.14283 2.36376 3.14283 2.66136V4.80536C3.14283 5.09656 2.89979 5.33336 2.61902 5.33336C2.32988 5.33336 2.09521 5.10296 2.09521 4.80536V2.66136ZM3.14283 4.7947C3.14283 4.5035 3.38588 4.2667 3.66664 4.2667C3.95579 4.2667 4.19045 4.4971 4.19045 4.7947V6.9387C4.19045 7.2299 3.94741 7.4667 3.66664 7.4667C3.3775 7.4667 3.14283 7.2363 3.14283 6.9387V4.7947ZM3.14283 9.06136C3.14283 8.77016 3.38588 8.53336 3.66664 8.53336C3.95579 8.53336 4.19045 8.76376 4.19045 9.06136V11.2054C4.19045 11.4966 3.94741 11.7334 3.66664 11.7334C3.3775 11.7334 3.14283 11.503 3.14283 11.2054V9.06136ZM2.09521 11.1947C2.09521 10.9035 2.33826 10.6667 2.61902 10.6667C2.90817 10.6667 3.14283 10.8971 3.14283 11.1947V13.3387C3.14283 13.6299 2.89979 13.8667 2.61902 13.8667C2.32988 13.8667 2.09521 13.6363 2.09521 13.3387V11.1947ZM2.09521 6.93336C2.09521 6.63896 2.33826 6.40003 2.61902 6.40003C2.90817 6.40003 3.14283 6.6475 3.14283 6.93336C3.14283 7.22776 2.89979 7.4667 2.61902 7.4667C2.32988 7.4667 2.09521 7.21923 2.09521 6.93336ZM3.14283 2.6667C3.14283 2.3723 3.38588 2.13336 3.66664 2.13336C3.95579 2.13336 4.19045 2.38083 4.19045 2.6667C4.19045 2.9611 3.94741 3.20003 3.66664 3.20003C3.3775 3.20003 3.14283 2.95256 3.14283 2.6667ZM2.09521 8.00003C2.09521 7.70563 2.33826 7.4667 2.61902 7.4667C2.90817 7.4667 3.14283 7.71416 3.14283 8.00003C3.14283 8.29443 2.89979 8.53336 2.61902 8.53336C2.32988 8.53336 2.09521 8.2859 2.09521 8.00003ZM3.14283 13.3334C3.14283 13.039 3.38588 12.8 3.66664 12.8C3.95579 12.8 4.19045 13.0475 4.19045 13.3334C4.19045 13.6278 3.94741 13.8667 3.66664 13.8667C3.3775 13.8667 3.14283 13.6192 3.14283 13.3334ZM2.09521 9.0667C2.09521 8.7723 2.33826 8.53336 2.61902 8.53336C2.90817 8.53336 3.14283 8.78083 3.14283 9.0667C3.14283 9.3611 2.89979 9.60003 2.61902 9.60003C2.32988 9.60003 2.09521 9.35256 2.09521 9.0667Z" fill="#FFDA2C"/>
<path d="M12.0476 9.6C13.4941 9.6 14.6667 8.40609 14.6667 6.93333C14.6667 5.46057 13.4941 4.26666 12.0476 4.26666C10.6012 4.26666 9.42859 5.46057 9.42859 6.93333C9.42859 8.40609 10.6012 9.6 12.0476 9.6Z" fill="#FFDA2C"/>
<path fill-rule="evenodd" clip-rule="evenodd" d="M8.38098 7.46667L9.4286 9.60001L12.0476 10.6667L14.6667 9.60001L15.7143 7.46667V10.6667L12.0476 11.7333L8.38098 10.6667V7.46667Z" fill="#FFDA2C"/>
</g>
<defs>
<clipPath id="clip0_165_1783">
<rect width="22" height="16" rx="2" fill="white"/>
</clipPath>
</defs>
</svg>
