<svg width="22" height="16" viewBox="0 0 22 16" fill="none" xmlns="http://www.w3.org/2000/svg">
<g clip-path="url(#clip0_165_1772)">
<rect width="22" height="16" fill="#151515"/>
<path fill-rule="evenodd" clip-rule="evenodd" d="M0 10.6667H22V11.7334H0V10.6667Z" fill="white"/>
<path fill-rule="evenodd" clip-rule="evenodd" d="M0 11.7333H22V16H0V11.7333Z" fill="#0A6A30"/>
<path fill-rule="evenodd" clip-rule="evenodd" d="M0 5.33331H22V10.6666H0V5.33331Z" fill="#F93939"/>
<path fill-rule="evenodd" clip-rule="evenodd" d="M0 4.26666H22V5.33333H0V4.26666Z" fill="white"/>
<path fill-rule="evenodd" clip-rule="evenodd" d="M13.0052 6.30828C13.0806 6.30828 13.529 5.59361 13.529 4.70828C13.529 3.82508 13.0806 3.10828 13.0052 3.10828C12.9319 3.10828 12.4814 3.82508 12.4814 4.70828C12.4814 5.59361 12.9319 6.30828 13.0052 6.30828ZM9.92625 5.84001C9.87387 5.89334 9.05673 5.71201 8.44492 5.08588C7.83206 4.46081 7.65187 3.63094 7.7053 3.57761C7.75768 3.52428 8.57273 3.70561 9.18663 4.33174C9.80054 4.95681 9.97968 5.78668 9.9273 5.84108L9.92625 5.84001ZM11.8947 10.6752C11.9471 10.6251 12.7643 10.7957 13.3771 11.3792C13.99 11.9659 14.1702 12.7413 14.1178 12.7915C14.0654 12.8416 13.2483 12.6709 12.6343 12.0875C12.0215 11.5008 11.8413 10.7253 11.8947 10.6752ZM9.92625 10.6752C9.87387 10.6251 9.05673 10.7957 8.44492 11.3792C7.83206 11.9659 7.65187 12.7413 7.7053 12.7915C7.75768 12.8416 8.57273 12.6709 9.18663 12.0875C9.80054 11.5008 9.97968 10.7253 9.9273 10.6752H9.92625Z" fill="white"/>
<path fill-rule="evenodd" clip-rule="evenodd" d="M11 12.8C11.374 12.8 13.6191 10.6507 13.6191 8.00001C13.6191 5.34935 11.374 3.20001 11 3.20001C10.626 3.20001 8.38098 5.34935 8.38098 8.00001C8.38098 10.6507 10.626 12.8 11 12.8Z" fill="#F93939"/>
<path fill-rule="evenodd" clip-rule="evenodd" d="M8.90479 9.60002C8.97812 9.60002 9.4286 8.88322 9.4286 8.00002C9.4286 7.11682 8.97812 6.40002 8.90479 6.40002C8.83146 6.40002 8.38098 7.11682 8.38098 8.00002C8.38098 8.88322 8.83146 9.60002 8.90479 9.60002ZM13.0953 9.60002C13.1686 9.60002 13.6191 8.88322 13.6191 8.00002C13.6191 7.11682 13.1686 6.40002 13.0953 6.40002C13.0219 6.40002 12.5715 7.11682 12.5715 8.00002C12.5715 8.88322 13.0219 9.60002 13.0953 9.60002Z" fill="#151515"/>
<path d="M11.5238 8.00002C11.5238 7.11637 11.2893 6.40002 11 6.40002C10.7107 6.40002 10.4762 7.11637 10.4762 8.00002C10.4762 8.88368 10.7107 9.60002 11 9.60002C11.2893 9.60002 11.5238 8.88368 11.5238 8.00002Z" fill="white"/>
</g>
<defs>
<clipPath id="clip0_165_1772">
<rect width="22" height="16" rx="2" fill="white"/>
</clipPath>
</defs>
</svg>
