<svg width="22" height="16" viewBox="0 0 22 16" fill="none" xmlns="http://www.w3.org/2000/svg">
<g clip-path="url(#clip0_165_1765)">
<rect width="22" height="16" fill="#F93939"/>
<path d="M11 11.7333C13.0251 11.7333 14.6667 10.0619 14.6667 8C14.6667 5.93813 13.0251 4.26666 11 4.26666C8.975 4.26666 7.33337 5.93813 7.33337 8C7.33337 10.0619 8.975 11.7333 11 11.7333Z" fill="#FFDA2C"/>
<path fill-rule="evenodd" clip-rule="evenodd" d="M0 8.53333H22V16H0V8.53333Z" fill="#232C80"/>
<path fill-rule="evenodd" clip-rule="evenodd" d="M0 8.53333H22V9.59999H0V8.53333ZM0 10.6667H22V11.7333H0V10.6667ZM0 12.8H22V13.8667H0V12.8Z" fill="white"/>
<path fill-rule="evenodd" clip-rule="evenodd" d="M8.38098 2.13336L11 3.20003L13.6191 2.13336H8.38098Z" fill="#FFDA2C"/>
</g>
<defs>
<clipPath id="clip0_165_1765">
<rect width="22" height="16" rx="2" fill="white"/>
</clipPath>
</defs>
</svg>
