<svg width="22" height="16" viewBox="0 0 22 16" fill="none" xmlns="http://www.w3.org/2000/svg">
<g clip-path="url(#clip0_165_1754)">
<rect width="22" height="16" fill="#F93939"/>
<path fill-rule="evenodd" clip-rule="evenodd" d="M10.692 10.1173C10.7936 10.128 10.8963 10.1333 11 10.1333C11.1048 10.1333 11.2064 10.128 11.308 10.1173L11 9.33331L10.692 10.1173ZM9.27146 9.53598C8.72355 9.09438 8.38098 8.45011 8.38098 7.73331C8.38098 6.88745 8.8587 6.14398 9.57946 5.71731L10.4762 7.99998L9.27146 9.53598ZM12.4206 5.71731C13.1414 6.14398 13.6191 6.88745 13.6191 7.73331C13.6191 8.45118 13.2755 9.09545 12.7286 9.53598L11.5238 7.99998L12.4206 5.71731ZM12.3158 5.65758C11.9282 5.45065 11.4798 5.33331 11 5.33331C10.5202 5.33331 10.0708 5.45065 9.68422 5.65758L11 7.33225L12.3158 5.65758Z" fill="#FFDA2C"/>
<path fill-rule="evenodd" clip-rule="evenodd" d="M11.0001 12.8C13.6034 12.8 15.7143 10.6507 15.7143 8.00001C15.7143 5.34935 13.6034 3.20001 11.0001 3.20001C8.39672 3.20001 6.28577 5.34935 6.28577 8.00001C6.28577 10.6507 8.39672 12.8 11.0001 12.8ZM11.0001 11.7333C13.0251 11.7333 14.6667 10.0619 14.6667 8.00001C14.6667 5.93815 13.0251 4.26668 11.0001 4.26668C8.975 4.26668 7.33339 5.93815 7.33339 8.00001C7.33339 10.0619 8.975 11.7333 11.0001 11.7333Z" fill="#FFDA2C"/>
</g>
<defs>
<clipPath id="clip0_165_1754">
<rect width="22" height="16" rx="2" fill="white"/>
</clipPath>
</defs>
</svg>
