<svg width="22" height="16" viewBox="0 0 22 16" fill="none" xmlns="http://www.w3.org/2000/svg">
<g clip-path="url(#clip0_165_1721)">
<rect width="22" height="16" fill="#151515"/>
<path fill-rule="evenodd" clip-rule="evenodd" d="M0 11.7333H22V16H0V11.7333Z" fill="#249F58"/>
<path fill-rule="evenodd" clip-rule="evenodd" d="M0 0H22V4.26667H0V0Z" fill="#F93939"/>
<path fill-rule="evenodd" clip-rule="evenodd" d="M12.5714 7.46667H13.619V8.53334H12.5714V7.46667Z" fill="white"/>
<path fill-rule="evenodd" clip-rule="evenodd" d="M13.0953 9.59998C12.6176 10.2474 11.857 10.6666 11 10.6666C9.55431 10.6666 8.38098 9.47198 8.38098 7.99998C8.38098 6.52798 9.55431 5.33331 11 5.33331C11.857 5.33331 12.6176 5.75251 13.0953 6.39998H11.5238C10.6564 6.39998 9.95241 7.11678 9.95241 7.99998C9.95241 8.88318 10.6564 9.59998 11.5238 9.59998H13.0953Z" fill="white"/>
</g>
<defs>
<clipPath id="clip0_165_1721">
<rect width="22" height="16" rx="2" fill="white"/>
</clipPath>
</defs>
</svg>
