<svg width="22" height="16" viewBox="0 0 22 16" fill="none" xmlns="http://www.w3.org/2000/svg">
<g clip-path="url(#clip0_165_1715)">
<rect width="22" height="16" fill="#F93939"/>
<path fill-rule="evenodd" clip-rule="evenodd" d="M0 0H22V8H0V0Z" fill="#1A47B8"/>
<path fill-rule="evenodd" clip-rule="evenodd" d="M4.19043 5.33331H8.38091V6.39998H4.19043V5.33331Z" fill="#D4AF2C"/>
<path fill-rule="evenodd" clip-rule="evenodd" d="M5.24854 3.3515C4.92587 3.26616 4.55711 3.20003 4.19044 3.20003C3.14282 3.20003 3.14282 3.73336 3.14282 4.2667C3.14282 4.80003 4.19044 5.33336 4.19044 5.33336H8.38092C8.38092 5.33336 9.42854 4.80003 9.42854 4.2667C9.42854 3.73336 9.42854 3.20003 8.38092 3.20003C8.01425 3.20003 7.64549 3.26616 7.32282 3.3515C7.33015 3.30136 7.3333 3.25123 7.3333 3.20003C7.3333 2.61123 6.86396 2.13336 6.28568 2.13336C5.70739 2.13336 5.23806 2.61123 5.23806 3.20003C5.23806 3.25123 5.2412 3.30136 5.24854 3.3515Z" fill="#FFDA2C"/>
</g>
<defs>
<clipPath id="clip0_165_1715">
<rect width="22" height="16" rx="2" fill="white"/>
</clipPath>
</defs>
</svg>
