<svg width="22" height="16" viewBox="0 0 22 16" fill="none" xmlns="http://www.w3.org/2000/svg">
<g clip-path="url(#clip0_165_1680)">
<rect width="22" height="16" fill="white"/>
<rect width="22" height="1.14872" fill="#AF010D"/>
<rect y="2.29742" width="22" height="1.14872" fill="#AF010D"/>
<rect y="4.59485" width="22" height="1.14872" fill="#AF010D"/>
<rect y="6.89233" width="22" height="1.14872" fill="#AF010D"/>
<rect y="9.18976" width="22" height="1.14872" fill="#AF010D"/>
<rect y="11.4872" width="22" height="1.14872" fill="#AF010D"/>
<rect y="13.7846" width="22" height="1.14872" fill="#AF010D"/>
<path fill-rule="evenodd" clip-rule="evenodd" d="M0 0H11.5238V9.19467H0V0Z" fill="#1A47B8"/>
<path fill-rule="evenodd" clip-rule="evenodd" d="M7.33337 4.26666H8.38099V5.33333H7.33337V4.26666Z" fill="#FFDA2C"/>
<path fill-rule="evenodd" clip-rule="evenodd" d="M7.85711 6.40003C7.37939 7.0475 6.61882 7.4667 5.76187 7.4667C4.31616 7.4667 3.14282 6.27203 3.14282 4.80003C3.14282 3.32803 4.31616 2.13336 5.76187 2.13336C6.61882 2.13336 7.37939 2.55256 7.85711 3.20003H6.28568C5.41825 3.20003 4.71425 3.91683 4.71425 4.80003C4.71425 5.68323 5.41825 6.40003 6.28568 6.40003H7.85711Z" fill="#FFDA2C"/>
</g>
<defs>
<clipPath id="clip0_165_1680">
<rect width="22" height="16" rx="2" fill="white"/>
</clipPath>
</defs>
</svg>
