<svg width="22" height="16" viewBox="0 0 22 16" fill="none" xmlns="http://www.w3.org/2000/svg">
<g clip-path="url(#clip0_165_1633)">
<rect width="22" height="16" fill="#3A99FF"/>
<path fill-rule="evenodd" clip-rule="evenodd" d="M10.4761 4.26668H9.94708C9.65375 4.26668 9.42851 4.50561 9.42851 4.80001C9.42851 5.08588 9.66108 5.33335 9.94708 5.33335H10.4761V5.87201C10.4761 6.17068 10.7108 6.40001 10.9999 6.40001C11.2807 6.40001 11.5238 6.16321 11.5238 5.87201V5.33335H12.0528C12.3461 5.33335 12.5714 5.09441 12.5714 4.80001C12.5714 4.51415 12.3388 4.26668 12.0528 4.26668H11.5238V3.72801C11.5238 3.42935 11.2891 3.20001 10.9999 3.20001C10.7192 3.20001 10.4761 3.43681 10.4761 3.72801V4.26668ZM14.6666 7.46668H14.1376C13.8442 7.46668 13.619 7.70561 13.619 8.00001C13.619 8.28588 13.8516 8.53335 14.1376 8.53335H14.6666V9.07201C14.6666 9.37068 14.9013 9.60001 15.1904 9.60001C15.4712 9.60001 15.7142 9.36321 15.7142 9.07201V8.53335H16.2433C16.5366 8.53335 16.7618 8.29441 16.7618 8.00001C16.7618 7.71415 16.5293 7.46668 16.2433 7.46668H15.7142V6.92801C15.7142 6.62935 15.4796 6.40001 15.1904 6.40001C14.9097 6.40001 14.6666 6.63681 14.6666 6.92801V7.46668ZM10.4761 10.6667H9.94708C9.65375 10.6667 9.42851 10.9056 9.42851 11.2C9.42851 11.4859 9.66108 11.7333 9.94708 11.7333H10.4761V12.272C10.4761 12.5707 10.7108 12.8 10.9999 12.8C11.2807 12.8 11.5238 12.5632 11.5238 12.272V11.7333H12.0528C12.3461 11.7333 12.5714 11.4944 12.5714 11.2C12.5714 10.9141 12.3388 10.6667 12.0528 10.6667H11.5238V10.128C11.5238 9.82935 11.2891 9.60001 10.9999 9.60001C10.7192 9.60001 10.4761 9.83681 10.4761 10.128V10.6667ZM6.28566 7.46668H5.75661C5.46328 7.46668 5.23804 7.70561 5.23804 8.00001C5.23804 8.28588 5.47061 8.53335 5.75661 8.53335H6.28566V9.07201C6.28566 9.37068 6.52032 9.60001 6.80947 9.60001C7.09023 9.60001 7.33328 9.36321 7.33328 9.07201V8.53335H7.86232C8.15566 8.53335 8.38089 8.29441 8.38089 8.00001C8.38089 7.71415 8.14832 7.46668 7.86232 7.46668H7.33328V6.92801C7.33328 6.62935 7.09861 6.40001 6.80947 6.40001C6.5287 6.40001 6.28566 6.63681 6.28566 6.92801V7.46668Z" fill="white"/>
</g>
<defs>
<clipPath id="clip0_165_1633">
<rect width="22" height="16" rx="2" fill="white"/>
</clipPath>
</defs>
</svg>
