<svg width="22" height="16" viewBox="0 0 22 16" fill="none" xmlns="http://www.w3.org/2000/svg">
<g clip-path="url(#clip0_165_1604)">
<rect width="22" height="16" fill="#D4AF2C"/>
<rect x="1.04761" y="1.06665" width="19.9048" height="13.8667" fill="#AF010D"/>
<path fill-rule="evenodd" clip-rule="evenodd" d="M11 5.09653L9.77747 4.26666L8.96347 5.09653H9.77747L8.96347 5.9264L7.33337 5.09653V9.24586L9.77747 8.41386L8.96347 10.0736H8.14842L8.96347 10.9035L9.77747 10.0736L11 11.7333V5.09653ZM12.2226 4.26666L13.0366 5.09653H12.2226L13.0366 5.9264L14.6667 5.09653V9.24586L12.2226 8.41386L13.0366 10.0736H13.8517L13.0366 10.9035L12.2226 10.0736L11 11.7333V5.09653L12.2226 4.26666Z" fill="#D4AF2C"/>
<path fill-rule="evenodd" clip-rule="evenodd" d="M9.42859 6.93865C9.42859 6.05331 10.1263 5.33331 11 5.33331C11.8674 5.33331 12.5714 6.05118 12.5714 6.93865V6.57278C12.5714 7.45811 12.0393 8.65918 11.3981 9.24158L11 9.59998L10.6019 9.24158C9.95554 8.65491 9.42859 7.46025 9.42859 6.57278V6.93865Z" fill="#1A47B8"/>
<path fill-rule="evenodd" clip-rule="evenodd" d="M9.42859 6.40002H12.5714V7.46669H9.42859V6.40002Z" fill="#AE6A3E"/>
</g>
<defs>
<clipPath id="clip0_165_1604">
<rect width="22" height="16" rx="2" fill="white"/>
</clipPath>
</defs>
</svg>
