<svg width="22" height="16" viewBox="0 0 22 16" fill="none" xmlns="http://www.w3.org/2000/svg">
<g clip-path="url(#clip0_165_1562)">
<path fill-rule="evenodd" clip-rule="evenodd" d="M0 0L13.619 8.53333H6.28571L13.619 16H0V0Z" fill="#003495"/>
<path fill-rule="evenodd" clip-rule="evenodd" d="M1.04767 2.13336L9.42862 7.46669H3.14291L10.4762 14.9334H1.04762C1.04761 14.4 1.04767 14.447 1.04767 13.8646V2.13336Z" fill="#DF0A37"/>
<path fill-rule="evenodd" clip-rule="evenodd" d="M5.14902 5.33331C5.20664 5.41651 5.23807 5.50611 5.23807 5.59998C5.23807 6.04158 4.53407 6.39998 3.66664 6.39998C2.79921 6.39998 2.09521 6.04158 2.09521 5.59998C2.09521 5.50611 2.12664 5.41651 2.18426 5.33331C2.40007 5.48905 2.98255 5.59998 3.66664 5.59998C4.35074 5.59998 4.93426 5.48905 5.14902 5.33331Z" fill="white"/>
<path d="M3.66664 13.8667C4.53452 13.8667 5.23807 13.1503 5.23807 12.2667C5.23807 11.383 4.53452 10.6667 3.66664 10.6667C2.79877 10.6667 2.09521 11.383 2.09521 12.2667C2.09521 13.1503 2.79877 13.8667 3.66664 13.8667Z" fill="white"/>
</g>
<defs>
<clipPath id="clip0_165_1562">
<rect width="22" height="16" rx="2" fill="white"/>
</clipPath>
</defs>
</svg>
