<svg width="22" height="16" viewBox="0 0 22 16" fill="none" xmlns="http://www.w3.org/2000/svg">
<g clip-path="url(#clip0_165_1550)">
<rect width="22" height="16" fill="#1A47B8"/>
<path d="M19.9048 0H2.09524C0.93807 0 0 0.955126 0 2.13333V13.8667C0 15.0449 0.93807 16 2.09524 16H19.9048C21.0619 16 22 15.0449 22 13.8667V2.13333C22 0.955126 21.0619 0 19.9048 0Z" fill="#1A47B8"/>
<path fill-rule="evenodd" clip-rule="evenodd" d="M15.7143 4.26666V5.33333H16.7619V4.26666H15.7143ZM17.8095 6.4V7.46666H18.8571V6.4H17.8095ZM13.619 7.46666V8.53333H14.6666V7.46666H13.619ZM15.7143 11.7333V12.8H16.7619V11.7333H15.7143Z" fill="#F93939"/>
<path d="M9.42856 1.06665H2.09523C1.51664 1.06665 1.04761 1.54421 1.04761 2.13332V7.46665C1.04761 8.05575 1.51664 8.53332 2.09523 8.53332H9.42856C10.0071 8.53332 10.4762 8.05575 10.4762 7.46665V2.13332C10.4762 1.54421 10.0071 1.06665 9.42856 1.06665Z" fill="white"/>
<path fill-rule="evenodd" clip-rule="evenodd" d="M5.23807 5.33336H2.09521V4.2667H5.23807V2.13336H6.28569V4.2667H9.42855V5.33336H6.28569V7.4667H5.23807V5.33336ZM7.85712 6.40003V7.4667H9.42855V6.40003H7.85712ZM7.85712 2.13336V3.20003H9.42855V2.13336H7.85712ZM2.09521 6.40003V7.4667H3.66664V6.40003H2.09521ZM2.09521 2.13336V3.20003H3.66664V2.13336H2.09521Z" fill="#F93939"/>
</g>
<defs>
<clipPath id="clip0_165_1550">
<rect width="22" height="16" rx="2" fill="white"/>
</clipPath>
</defs>
</svg>
