<svg width="22" height="16" viewBox="0 0 22 16" fill="none" xmlns="http://www.w3.org/2000/svg">
<g clip-path="url(#clip0_165_1517)">
<rect width="22" height="16" fill="#AF010D"/>
<path fill-rule="evenodd" clip-rule="evenodd" d="M0 0L10.4762 7.46667H11.5238L4.19048 0H0ZM0 16L10.4762 8.53333H11.5238L4.19048 16H0Z" fill="#FFDA2C"/>
<path fill-rule="evenodd" clip-rule="evenodd" d="M11.5238 7.46667H10.4762L17.8095 0H22L11.5238 7.46667ZM11.5238 8.53333H10.4762L17.8095 16H22L11.5238 8.53333ZM8.38095 7.46667L0 6.4V9.6L8.38095 8.53333V7.46667ZM13.619 7.46667L22 6.4V9.6L13.619 8.53333V7.46667ZM10.4762 5.33333L9.42857 0H12.5714L11.5238 5.33333H10.4762ZM10.4762 10.6667L9.42857 16H12.5714L11.5238 10.6667" fill="#FFDA2C"/>
<path d="M11 10.6666C12.4465 10.6666 13.6191 9.47274 13.6191 7.99998C13.6191 6.52722 12.4465 5.33331 11 5.33331C9.55357 5.33331 8.38098 6.52722 8.38098 7.99998C8.38098 9.47274 9.55357 10.6666 11 10.6666Z" fill="#AF010D"/>
<path d="M11 9.60002C11.8679 9.60002 12.5714 8.88368 12.5714 8.00002C12.5714 7.11637 11.8679 6.40002 11 6.40002C10.1321 6.40002 9.42859 7.11637 9.42859 8.00002C9.42859 8.88368 10.1321 9.60002 11 9.60002Z" fill="#FFDA2C"/>
</g>
<defs>
<clipPath id="clip0_165_1517">
<rect width="22" height="16" rx="2" fill="white"/>
</clipPath>
</defs>
</svg>
