<svg width="22" height="16" viewBox="0 0 22 16" fill="none" xmlns="http://www.w3.org/2000/svg">
<g clip-path="url(#clip0_165_1499)">
<rect width="22" height="16" fill="#0A6A30"/>
<path fill-rule="evenodd" clip-rule="evenodd" d="M16.7347 6.37227C16.6655 7.008 16.4686 7.46667 16.2381 7.46667C16.0076 7.46667 15.8107 7.008 15.7415 6.37227C15.1171 6.30187 14.6667 6.10133 14.6667 5.86667C14.6667 5.632 15.1171 5.43147 15.7415 5.36107C15.8107 4.72533 16.0076 4.26667 16.2381 4.26667C16.4686 4.26667 16.6655 4.72533 16.7347 5.36107C17.359 5.43147 17.8095 5.632 17.8095 5.86667C17.8095 6.10133 17.359 6.30187 16.7347 6.37227ZM0 0H6V16H0V0Z" fill="white"/>
<path fill-rule="evenodd" clip-rule="evenodd" d="M18.8257 7.43255C18.8467 7.61921 18.8572 7.80801 18.8572 8.00001C18.8572 10.6507 16.7462 12.8 14.1429 12.8C11.5395 12.8 9.42859 10.6507 9.42859 8.00001C9.42859 5.34935 11.5395 3.20001 14.1429 3.20001C14.3314 3.20001 14.5169 3.21068 14.7002 3.23201C12.9067 3.47735 11.5238 5.04215 11.5238 6.93335C11.5238 8.99521 13.1654 10.6667 15.1905 10.6667C17.049 10.6667 18.5848 9.25868 18.8257 7.43255Z" fill="white"/>
</g>
<defs>
<clipPath id="clip0_165_1499">
<rect width="22" height="16" rx="2" fill="white"/>
</clipPath>
</defs>
</svg>
