<svg width="22" height="16" viewBox="0 0 22 16" fill="none" xmlns="http://www.w3.org/2000/svg">
<g clip-path="url(#clip0_165_1479)">
<rect width="22" height="16" fill="white"/>
<path d="M19.9048 0H2.09524C0.93807 0 0 0.955126 0 2.13333V13.8667C0 15.0449 0.93807 16 2.09524 16H19.9048C21.0619 16 22 15.0449 22 13.8667V2.13333C22 0.955126 21.0619 0 19.9048 0Z" fill="white"/>
<path fill-rule="evenodd" clip-rule="evenodd" d="M6.25843 5.30561C6.18929 5.94135 5.99233 6.40001 5.76186 6.40001C5.53138 6.40001 5.33443 5.94135 5.26529 5.30561C4.64091 5.23521 4.19043 5.03468 4.19043 4.80001C4.19043 4.56535 4.64091 4.36481 5.26529 4.29441C5.33443 3.65868 5.53138 3.20001 5.76186 3.20001C5.99233 3.20001 6.18929 3.65868 6.25843 4.29441C6.88281 4.36481 7.33329 4.56535 7.33329 4.80001C7.33329 5.03468 6.88281 5.23521 6.25843 5.30561Z" fill="#1A47B8"/>
<path fill-rule="evenodd" clip-rule="evenodd" d="M16.7346 12.7723C16.6655 13.408 16.4685 13.8667 16.2381 13.8667C16.0076 13.8667 15.8106 13.408 15.7415 12.7723C15.1171 12.7019 14.6666 12.5014 14.6666 12.2667C14.6666 12.032 15.1171 11.8315 15.7415 11.7611C15.8106 11.1254 16.0065 10.6667 16.2381 10.6667C16.4685 10.6667 16.6655 11.1254 16.7346 11.7611C17.359 11.8315 17.8095 12.031 17.8095 12.2667C17.8095 12.5014 17.359 12.7019 16.7346 12.7723Z" fill="#F93939"/>
<path fill-rule="evenodd" clip-rule="evenodd" d="M0 8H11V16H0V8Z" fill="#1A47B8"/>
<path fill-rule="evenodd" clip-rule="evenodd" d="M11 0H22V8H11V0Z" fill="#F93939"/>
</g>
<defs>
<clipPath id="clip0_165_1479">
<rect width="22" height="16" rx="2" fill="white"/>
</clipPath>
</defs>
</svg>
