<svg width="22" height="16" viewBox="0 0 22 16" fill="none" xmlns="http://www.w3.org/2000/svg">
<g clip-path="url(#clip0_165_1468)">
<rect width="22" height="16" fill="#AF010D"/>
<path fill-rule="evenodd" clip-rule="evenodd" d="M12.5714 3.20003L14.6667 5.33336C14.6667 5.33336 12.5714 4.2667 11.5238 5.33336L10.4762 6.40003H13.6191L18.8571 9.60003L16.7619 6.40003H18.8571C18.8571 6.40003 18.8571 5.33336 17.8095 4.2667C16.7619 3.20003 15.7143 3.20003 15.7143 3.20003V2.13336L14.6667 3.20003H12.5714Z" fill="#FFDA2C"/>
<path fill-rule="evenodd" clip-rule="evenodd" d="M0 0L22 16H0V0Z" fill="#151515"/>
<path d="M5.76185 8.53334C6.05114 8.53334 6.28566 8.29456 6.28566 8.00001C6.28566 7.70546 6.05114 7.46667 5.76185 7.46667C5.47255 7.46667 5.23804 7.70546 5.23804 8.00001C5.23804 8.29456 5.47255 8.53334 5.76185 8.53334Z" fill="white"/>
<path d="M3.66663 10.6666C3.95592 10.6666 4.19044 10.4279 4.19044 10.1333C4.19044 9.83876 3.95592 9.59998 3.66663 9.59998C3.37734 9.59998 3.14282 9.83876 3.14282 10.1333C3.14282 10.4279 3.37734 10.6666 3.66663 10.6666Z" fill="white"/>
<path d="M7.85718 10.6666C8.14648 10.6666 8.38099 10.4279 8.38099 10.1333C8.38099 9.83876 8.14648 9.59998 7.85718 9.59998C7.56789 9.59998 7.33337 9.83876 7.33337 10.1333C7.33337 10.4279 7.56789 10.6666 7.85718 10.6666Z" fill="white"/>
<path d="M5.76185 13.8667C6.05114 13.8667 6.28566 13.6279 6.28566 13.3333C6.28566 13.0388 6.05114 12.8 5.76185 12.8C5.47255 12.8 5.23804 13.0388 5.23804 13.3333C5.23804 13.6279 5.47255 13.8667 5.76185 13.8667Z" fill="white"/>
<path d="M6.80958 12.8C7.09887 12.8 7.33339 12.5612 7.33339 12.2667C7.33339 11.9721 7.09887 11.7333 6.80958 11.7333C6.52028 11.7333 6.28577 11.9721 6.28577 12.2667C6.28577 12.5612 6.52028 12.8 6.80958 12.8Z" fill="white"/>
</g>
<defs>
<clipPath id="clip0_165_1468">
<rect width="22" height="16" rx="2" fill="white"/>
</clipPath>
</defs>
</svg>
