<svg width="22" height="16" viewBox="0 0 22 16" fill="none" xmlns="http://www.w3.org/2000/svg">
<g clip-path="url(#clip0_165_1433)">
<rect width="22" height="16" fill="#F93939"/>
<path fill-rule="evenodd" clip-rule="evenodd" d="M0 0H7V16H0V0Z" fill="#249F58"/>
<path d="M7.33329 10.6667C9.06904 10.6667 10.4761 9.23397 10.4761 7.46666C10.4761 5.69935 9.06904 4.26666 7.33329 4.26666C5.59753 4.26666 4.19043 5.69935 4.19043 7.46666C4.19043 9.23397 5.59753 10.6667 7.33329 10.6667Z" fill="#FFDA2C"/>
<path fill-rule="evenodd" clip-rule="evenodd" d="M9.42851 8.53331V5.33331H5.23804V8.53331C5.23804 9.12211 6.17566 9.59998 7.33328 9.59998C8.49089 9.59998 9.42851 9.12211 9.42851 8.53331Z" fill="#F93939"/>
<path fill-rule="evenodd" clip-rule="evenodd" d="M6.28577 6.40002H8.381V8.53336H6.28577V6.40002Z" fill="white"/>
<path fill-rule="evenodd" clip-rule="evenodd" d="M6.28577 6.40002H7.33339V7.46669H6.28577V6.40002ZM7.33339 7.46669H8.381V8.53336H7.33339V7.46669Z" fill="#1A47B8"/>
</g>
<defs>
<clipPath id="clip0_165_1433">
<rect width="22" height="16" rx="2" fill="white"/>
</clipPath>
</defs>
</svg>
