<svg width="22" height="16" viewBox="0 0 22 16" fill="none" xmlns="http://www.w3.org/2000/svg">
<g clip-path="url(#clip0_165_1393)">
<rect width="22" height="16" fill="#F93939"/>
<path d="M19.9048 0H2.09524C0.93807 0 0 0.955126 0 2.13333V13.8667C0 15.0449 0.93807 16 2.09524 16H19.9048C21.0619 16 22 15.0449 22 13.8667V2.13333C22 0.955126 21.0619 0 19.9048 0Z" fill="#F93939"/>
<path fill-rule="evenodd" clip-rule="evenodd" d="M0 0H11.5238V8.53333H0V0Z" fill="#232C80"/>
<path opacity="0.5" fill-rule="evenodd" clip-rule="evenodd" d="M5.23805 2.13336H6.28567V3.20003H5.23805V2.13336ZM7.33329 3.20003H8.38091V4.2667H7.33329V3.20003ZM6.28567 4.2667H7.33329V5.33336H6.28567V4.2667ZM5.23805 5.33336H6.28567V6.40003H5.23805V5.33336ZM4.19043 3.20003H5.23805V4.2667H4.19043V3.20003Z" fill="white"/>
</g>
<defs>
<clipPath id="clip0_165_1393">
<rect width="22" height="16" rx="2" fill="white"/>
</clipPath>
</defs>
</svg>
