<svg width="22" height="16" viewBox="0 0 22 16" fill="none" xmlns="http://www.w3.org/2000/svg">
<g clip-path="url(#clip0_165_1386)">
<rect width="22" height="16" fill="white"/>
<path fill-rule="evenodd" clip-rule="evenodd" d="M0 8H22V16H0V8Z" fill="#3A99FF"/>
<path fill-rule="evenodd" clip-rule="evenodd" d="M8.38098 4.26666H13.6191V5.33333L11 6.4L8.38098 5.33333V4.26666Z" fill="#D4AF2C"/>
<path fill-rule="evenodd" clip-rule="evenodd" d="M13.6191 9.06669C13.6191 7.59469 12.4457 6.40002 11 6.40002C9.55431 6.40002 8.38098 7.59469 8.38098 9.06669C8.38098 10.5387 9.55431 11.7334 11 11.7334C12.4457 11.7334 13.6191 10.5387 13.6191 9.06669ZM11 10.6667C11.8675 10.6667 12.5715 9.71202 12.5715 8.53336C12.5715 7.35469 11.8675 6.40002 11 6.40002C10.1326 6.40002 9.4286 7.35469 9.4286 8.53336C9.4286 9.71202 10.1326 10.6667 11 10.6667Z" fill="#249F58"/>
<path d="M11 9.60001C11.2893 9.60001 11.5238 9.12245 11.5238 8.53334C11.5238 7.94424 11.2893 7.46667 11 7.46667C10.7107 7.46667 10.4762 7.94424 10.4762 8.53334C10.4762 9.12245 10.7107 9.60001 11 9.60001Z" fill="#D4AF2C"/>
</g>
<defs>
<clipPath id="clip0_165_1386">
<rect width="22" height="16" rx="2" fill="white"/>
</clipPath>
</defs>
</svg>
