<svg width="22" height="16" viewBox="0 0 22 16" fill="none" xmlns="http://www.w3.org/2000/svg">
<g clip-path="url(#clip0_165_1380)">
<rect width="22" height="16" fill="#FFDA2C"/>
<path fill-rule="evenodd" clip-rule="evenodd" d="M0 11.7333V16H22V11.7333H0ZM0 0V4.26667H22V0H0Z" fill="#00B731"/>
<path fill-rule="evenodd" clip-rule="evenodd" d="M0 0V16.0352L7.33333 8L0 0Z" fill="#F93939"/>
<path fill-rule="evenodd" clip-rule="evenodd" d="M11 8.98131L9.80048 9.6245L10.031 8.26451L9.05981 7.3013L10.4008 7.10397L11 5.86664L11.5992 7.10397L12.9402 7.3013L11.9701 8.26451L12.2006 9.6245L11 8.98131ZM17.2857 8.98131L16.0862 9.6245L16.3167 8.26451L15.3455 7.3013L16.6865 7.10397L17.2857 5.86664L17.885 7.10397L19.2259 7.3013L18.2558 8.26451L18.4863 9.6245" fill="#151515"/>
</g>
<defs>
<clipPath id="clip0_165_1380">
<rect width="22" height="16" rx="2" fill="white"/>
</clipPath>
</defs>
</svg>
