<svg width="22" height="16" viewBox="0 0 22 16" fill="none" xmlns="http://www.w3.org/2000/svg">
<g clip-path="url(#clip0_165_1376)">
<rect width="22" height="16" fill="#249F58"/>
<path fill-rule="evenodd" clip-rule="evenodd" d="M16.762 10.6666V9.59998H5.23821L7.33345 10.6666H13.6192C13.6192 11.2554 14.3232 11.7333 15.1906 11.7333C16.058 11.7333 16.762 11.2554 16.762 10.6666ZM9.14583 4.16638C9.13326 4.16638 9.1144 4.17278 9.09031 4.18772C9.03373 4.22612 8.92269 4.34452 8.9185 4.48105C8.91535 4.55892 8.90069 4.55892 8.94993 4.60905C8.98554 4.66025 9.02326 4.65598 9.0945 4.61652C9.1364 4.58452 9.15002 4.56638 9.16469 4.51412C9.18145 4.42878 9.07354 4.55678 9.05992 4.45865C9.03583 4.36905 9.10497 4.33065 9.16993 4.24532C9.17202 4.20265 9.17202 4.17065 9.14583 4.16852V4.16638ZM10.1966 4.17172C10.1756 4.17598 10.1515 4.20372 10.117 4.26558C10.0929 4.33172 9.98707 4.43198 10.0646 4.63892C10.1254 4.77012 10.1515 4.98238 10.1233 5.22025C10.0793 5.28745 10.0709 5.31091 10.0133 5.37812C9.93364 5.46665 9.84564 5.44425 9.78069 5.41012C9.71783 5.36745 9.66964 5.34612 9.64135 5.21172C9.64659 4.99838 9.65916 4.64425 9.6204 4.56958C9.56383 4.45438 9.46954 4.49492 9.42973 4.53012C9.23802 4.71145 9.14269 5.01332 9.08402 5.25545C9.03164 5.43038 8.97402 5.37918 8.93421 5.30878C8.83678 5.21492 8.82945 4.48745 8.71212 4.60798C8.52354 5.15625 8.82002 5.75678 9.0264 5.69812C9.17307 5.76212 9.26735 5.47412 9.32812 5.15945C9.37002 5.07092 9.40145 5.06025 9.4224 5.10612C9.41716 5.52425 9.45383 5.61812 9.55859 5.74398C9.79326 5.92958 9.98812 5.76745 10.0038 5.75252L10.1872 5.56692C10.2291 5.52425 10.2814 5.51998 10.3391 5.55838C10.3956 5.61172 10.3883 5.70025 10.5067 5.76105C10.6094 5.80372 10.8241 5.77172 10.8734 5.68318C10.9414 5.56585 10.9572 5.52532 10.9886 5.48052C11.0368 5.41652 11.1195 5.44532 11.1195 5.46558C11.1122 5.50292 11.064 5.54025 11.0965 5.60425C11.1541 5.64692 11.1677 5.61918 11.2013 5.60958C11.3207 5.55198 11.4108 5.28745 11.4108 5.28745C11.416 5.18931 11.3615 5.19678 11.327 5.21705C11.2798 5.24585 11.2777 5.25545 11.2327 5.28425C11.173 5.29278 11.0598 5.33225 11.0043 5.24372C10.9467 5.13705 10.9467 4.98985 10.9027 4.88105C10.9027 4.87465 10.8262 4.71358 10.8964 4.70398C10.931 4.71038 11.0085 4.73065 11.02 4.66558C11.0577 4.60158 10.9394 4.42025 10.8587 4.33065C10.7895 4.25278 10.6932 4.24318 10.5999 4.32212C10.5339 4.38398 10.5444 4.45225 10.5308 4.51732C10.5151 4.59198 10.5182 4.68478 10.5936 4.78398C10.6586 4.91412 10.777 5.08265 10.7372 5.31945C10.7372 5.31945 10.6691 5.43252 10.5486 5.41758C10.4962 5.40692 10.4145 5.38558 10.3705 5.05492C10.3391 4.80638 10.3789 4.45758 10.2762 4.29438C10.2521 4.23358 10.2322 4.17385 10.1987 4.17705L10.1966 4.17172ZM9.86345 4.19945C9.83202 4.20265 9.79745 4.23998 9.76916 4.31145C9.74507 4.36692 9.71469 4.65278 9.71992 4.65278C9.69897 4.73812 9.80688 4.77438 9.85612 4.66558C9.92945 4.46292 9.92945 4.37758 9.93364 4.29438C9.92316 4.23038 9.89488 4.19838 9.86345 4.20052V4.19945ZM11.0923 4.22078C11.0609 4.22505 11.0347 4.24425 11.0253 4.29332C11.0116 4.40638 11.019 4.46932 11.0378 4.56425C11.0514 4.62825 11.1426 4.73278 11.1866 4.79465C11.3993 5.08585 11.6056 5.37812 11.8026 5.67998C11.834 5.90611 11.855 6.12585 11.8707 6.34558C11.9042 6.82558 11.9126 7.42292 11.8843 7.92958C11.9723 7.93278 12.1148 7.78345 12.164 7.56692C12.1954 7.26398 12.1535 6.64958 12.1494 6.47038L12.1389 6.21652C12.3694 6.60052 12.5914 7.00585 12.8094 7.44958C12.89 7.41118 12.8722 6.95358 12.8261 6.88958C12.6501 6.50558 12.4071 6.12585 12.3306 5.97972C12.3023 5.92638 12.207 5.78025 12.0949 5.61065C12.0739 5.36745 12.0509 5.16265 12.0362 5.10078C11.9995 4.84478 12.1389 5.12958 12.12 4.98132C12.0739 4.72532 11.9356 4.55252 11.7722 4.31785C11.7198 4.24318 11.7198 4.22612 11.6392 4.33705C11.592 4.44905 11.592 4.54292 11.6077 4.63038C11.5847 4.59838 11.5585 4.56212 11.5208 4.51518L11.2536 4.28478C11.217 4.25812 11.1457 4.21758 11.0923 4.22078ZM14.7338 4.26025C14.7181 4.25812 14.7024 4.26558 14.6814 4.29438C14.6448 4.32638 14.606 4.38718 14.6081 4.46505C14.6154 4.59838 14.6395 4.73598 14.6479 4.87038L14.6584 4.92372C14.6437 4.90665 14.6312 4.89172 14.6238 4.88532C14.3651 4.60798 14.7422 4.83838 14.5735 4.62612C14.4321 4.46612 14.3902 4.41705 14.2697 4.32105C14.2069 4.28265 14.1713 4.20585 14.1514 4.33598C14.143 4.45012 14.1346 4.58345 14.1409 4.67945C14.1409 4.73278 14.1964 4.83412 14.2435 4.89278C14.4154 5.10932 14.5914 5.33865 14.7674 5.57758C14.8051 6.06505 14.8145 6.51198 14.8512 7.00052C14.847 7.20958 14.7841 7.48692 14.7254 7.51252C14.7254 7.51252 14.6333 7.56585 14.5725 7.50718C14.5274 7.48905 14.3504 7.20532 14.3504 7.20532C14.2593 7.11998 14.1985 7.14452 14.1346 7.20532C13.9565 7.38025 13.8748 7.70878 13.7543 7.93492C13.7229 7.98505 13.6359 8.02878 13.5385 7.93065C13.2902 7.58505 13.4337 7.09332 13.4044 7.22025C13.1844 7.47412 13.2808 7.89438 13.3311 7.98505C13.4044 8.13438 13.4631 8.23038 13.6034 8.30185C13.7344 8.39785 13.8339 8.33918 13.8905 8.26985C14.0204 8.13331 14.0225 7.78238 14.0833 7.71305C14.1252 7.58505 14.2331 7.60638 14.2854 7.66398C14.3378 7.73865 14.3965 7.78665 14.4709 7.82718C14.5924 7.93598 14.737 7.95518 14.8794 7.85598C14.9769 7.80051 15.0408 7.72798 15.0974 7.58505C15.1602 7.41865 15.1288 6.54398 15.1152 6.05758L15.3875 6.45865C15.4253 6.88531 15.4431 7.30665 15.4294 7.70985C15.4211 7.78985 15.705 7.47092 15.7018 7.31945C15.7018 7.18825 15.7039 7.06771 15.7018 6.95678C15.8412 7.18078 15.9742 7.40798 16.0999 7.63945C16.1785 7.59678 16.1523 7.14558 16.1031 7.08478C15.9711 6.85865 15.8014 6.61545 15.6704 6.42558C15.6442 6.18772 15.6096 5.90718 15.5929 5.82078C15.5688 5.68638 15.5436 5.48478 15.5059 5.32585C15.4954 5.26505 15.464 5.06665 15.4745 5.04852C15.4892 5.00265 15.5478 5.04852 15.5761 4.99732C15.618 4.94932 15.4274 4.44265 15.3299 4.29972C15.2954 4.23572 15.2314 4.25705 15.1539 4.36372C15.0806 4.43198 15.1078 4.58985 15.1351 4.74025C15.2063 5.12425 15.2713 5.51252 15.3215 5.90292C15.2273 5.75892 15.112 5.58612 14.9989 5.42078L14.9842 5.34612C14.9842 5.33758 14.9695 5.03145 14.9559 4.95892C14.9528 4.92905 14.9454 4.92052 14.9769 4.92478C15.0083 4.95252 15.0125 4.95358 15.0324 4.96318C15.0659 4.96745 15.0953 4.91198 15.0743 4.85972L14.7705 4.29012C14.76 4.27625 14.7454 4.26345 14.7286 4.26132L14.7338 4.26025ZM5.33669 4.27092C5.27907 4.26878 5.21831 4.30292 5.2424 4.37225C5.22773 4.40958 5.35135 4.53545 5.37335 4.60478C5.39116 4.65492 5.3524 4.81278 5.39431 4.82878C5.43097 4.84478 5.48231 4.71785 5.50116 4.60158C5.51164 4.53758 5.50431 4.31785 5.35764 4.27305C5.35031 4.27092 5.34297 4.27092 5.33459 4.26985L5.33669 4.27092ZM16.0434 4.27092C16.0297 4.27305 16.014 4.29225 15.991 4.34558C15.9334 4.44158 15.9134 4.61225 15.9365 4.76158C16.0727 5.71092 16.1774 6.63038 16.1984 7.47092C16.1858 7.55198 16.1816 7.59465 16.146 7.69492C16.0643 7.80158 15.9742 7.93385 15.8894 7.99785C15.8055 8.06185 15.6254 8.12371 15.5667 8.17065C15.3781 8.27945 15.3781 8.40532 15.529 8.41065C15.7888 8.37865 16.0968 8.35732 16.3084 8.03198C16.365 7.94132 16.432 7.69385 16.4341 7.54132C16.4551 6.65598 16.4236 5.78665 16.2927 5.14558C16.2843 5.08158 16.2571 4.93972 16.2675 4.92158C16.2833 4.87678 16.3681 4.92478 16.3985 4.87465C16.4435 4.82772 16.1785 4.48318 16.0863 4.33598C16.0674 4.29972 16.0549 4.26878 16.0402 4.27198L16.0434 4.27092ZM13.3164 4.28585C13.3059 4.28798 13.2913 4.30505 13.2619 4.34452C13.1886 4.58558 13.1634 4.78185 13.1917 4.93332C13.3803 5.92532 13.5689 6.82665 13.5395 7.77065C13.6275 7.77065 13.7302 7.56478 13.7742 7.35998C13.7983 7.07732 13.7574 6.90558 13.7512 6.74132C13.7438 6.57492 13.5668 5.23092 13.5312 5.10612C13.4872 4.86932 13.703 5.07412 13.6799 4.93758C13.6045 4.76265 13.418 4.51092 13.3614 4.35838C13.3405 4.31785 13.3363 4.28052 13.3195 4.28372L13.3164 4.28585ZM6.68078 4.30505C6.65983 4.30932 6.63573 4.32852 6.6284 4.35838C6.62316 4.37972 6.63678 4.41492 6.61793 4.42558C6.60745 4.43625 6.56764 4.42878 6.56973 4.37225C6.56973 4.35305 6.55612 4.33385 6.54878 4.32212C6.5404 4.31785 6.53516 4.31678 6.5205 4.31678C6.50269 4.31678 6.50269 4.32212 6.49326 4.33812C6.48907 4.35305 6.48278 4.36798 6.48278 4.38505C6.48069 4.40638 6.47231 4.41172 6.45869 4.41492C6.44193 4.41492 6.44507 4.41705 6.4325 4.40745C6.42202 4.39998 6.41364 4.39678 6.41364 4.38185C6.41364 4.36585 6.40945 4.33918 6.40526 4.33065C6.39793 4.31998 6.3864 4.31572 6.37383 4.31252C6.30469 4.31252 6.3005 4.39572 6.30364 4.42558C6.2984 4.43198 6.29631 4.57492 6.39059 4.61545C6.51631 4.67732 6.75516 4.65065 6.74678 4.44265C6.74678 4.42452 6.74154 4.36265 6.73945 4.34665C6.72688 4.31465 6.70278 4.30398 6.67973 4.30718L6.68078 4.30505ZM8.38421 4.30718C8.34021 4.30932 8.3004 4.32212 8.26897 4.33918C8.18516 4.42132 8.16421 4.55252 8.23126 4.63465C8.29412 4.66665 8.36012 4.73065 8.31716 4.76798C8.13488 4.96531 7.66031 5.29705 7.63621 5.35785V5.36425H7.6404V5.36638C7.6645 5.38238 7.96202 5.38238 7.9945 5.36638H7.99659C8.09926 5.32692 8.58326 4.76372 8.58326 4.76372C8.55812 4.74238 8.53507 4.72532 8.50993 4.70292C8.48269 4.67945 8.48583 4.65598 8.50993 4.63252C8.62935 4.56212 8.59164 4.40532 8.52878 4.33385C8.4764 4.31038 8.42821 4.30185 8.38421 4.30505V4.30718ZM12.8366 4.30718C12.824 4.31038 12.8083 4.32852 12.7842 4.38185C12.7266 4.47785 12.6878 4.64318 12.6931 4.79785C12.8167 5.67252 12.8544 6.43732 12.9361 7.31198C12.9424 7.39732 12.9298 7.51891 12.8754 7.56798C12.67 7.78558 12.3756 8.05225 12.0551 8.17598C12.0205 8.21545 12.141 8.38292 12.296 8.38292C12.5558 8.35092 12.7842 8.20371 12.9979 7.81225C13.0534 7.72158 13.153 7.52638 13.1551 7.37492C13.176 6.48745 13.1132 5.79625 12.9812 5.15625C12.9738 5.09225 12.9791 5.01758 12.9895 5.00052C13.0063 4.97918 13.0629 5.00051 13.0943 4.95038C13.1383 4.90345 12.9749 4.52052 12.8827 4.37438C12.8638 4.33705 12.8534 4.30718 12.8366 4.30825V4.30718ZM5.93907 4.33598C5.90345 4.34025 5.86993 4.36798 5.85316 4.41065C5.84793 4.54932 5.84688 4.68798 5.86364 4.81812C5.9265 5.04532 5.94431 5.24478 5.97469 5.47625C5.98516 5.78771 5.79869 5.61065 5.80707 5.45705C5.84897 5.25652 5.8385 4.94185 5.80078 4.86185C5.76935 4.78185 5.73583 4.76265 5.6625 4.77652C5.60488 4.77225 5.45507 4.93652 5.41316 5.21385C5.41316 5.21385 5.37754 5.35465 5.36288 5.48052C5.34193 5.62238 5.24973 5.72372 5.18478 5.46132C5.12926 5.26932 5.09573 4.79998 5.0025 4.90878C4.97526 5.27572 4.94383 5.92211 5.24973 5.98825C5.62059 6.02452 5.41526 5.35038 5.54935 5.22772C5.57554 5.16905 5.62269 5.16798 5.62583 5.24372V5.81652C5.62164 6.00212 5.74107 6.05758 5.83535 6.09598C5.93278 6.08852 5.99669 6.09172 6.0344 6.18772L6.08154 7.17972C6.08154 7.17972 6.30573 7.24372 6.31621 6.62185C6.32669 6.25598 6.24288 5.94985 6.29212 5.87838C6.29421 5.80798 6.38221 5.80372 6.44297 5.83892C6.5404 5.90825 6.58335 5.99358 6.73421 5.95945C6.96469 5.89545 7.10088 5.78238 7.10402 5.60318C7.09354 5.43252 7.07259 5.26185 6.99926 5.09118C7.00973 5.06132 6.95735 4.98132 6.96783 4.95038C7.00764 5.01438 7.0705 5.01012 7.08307 4.95038C7.04535 4.81918 6.98459 4.69438 6.88612 4.64105C6.80545 4.56638 6.68707 4.58238 6.64307 4.73385C6.62212 4.90878 6.70592 5.11572 6.83164 5.28532C6.85678 5.35145 6.8945 5.46132 6.87773 5.56052C6.81173 5.59891 6.74573 5.58185 6.68916 5.52318C6.68916 5.52318 6.50793 5.38452 6.50793 5.35252C6.55716 5.03785 6.5184 5.00051 6.49221 4.91518C6.47335 4.79358 6.41678 4.75518 6.37173 4.67198C6.32564 4.62185 6.26383 4.62185 6.23554 4.67198C6.15383 4.81385 6.19154 5.11998 6.25021 5.25545C6.29212 5.38132 6.35707 5.46025 6.32669 5.46025C6.30154 5.52958 6.24916 5.51358 6.21145 5.43145C6.15907 5.26078 6.1465 5.00905 6.1465 4.89492C6.13078 4.75412 6.11297 4.45225 6.02078 4.37545C5.99669 4.34132 5.9684 4.32958 5.94012 4.33278L5.93907 4.33598ZM7.24021 4.33598C7.2224 4.34025 7.20145 4.35092 7.17735 4.35732C7.09878 4.38185 7.02545 4.45118 7.0485 4.58558C7.14278 5.16158 7.2025 5.60211 7.29573 6.17811C7.30935 6.24638 7.25383 6.33492 7.18259 6.32745C7.06107 6.24212 7.03069 6.07145 6.82326 6.07998C6.6724 6.07998 6.50059 6.24852 6.47964 6.40851C6.4545 6.53651 6.44612 6.67518 6.47964 6.78612C6.5844 6.91412 6.71221 6.90131 6.82326 6.87145C6.9144 6.83412 6.99088 6.74345 7.02231 6.76478C7.04326 6.79998 7.02021 7.09972 6.59278 7.33012C6.32878 7.45172 6.11926 7.47945 6.00612 7.26185C5.93697 7.12532 6.0124 6.60478 5.84059 6.72425C5.33145 8.05971 7.03173 8.24532 7.22135 6.77972C7.23393 6.73705 7.27059 6.69652 7.29783 6.70718C7.30831 6.71252 7.31878 6.72852 7.32297 6.75838C7.28316 8.08531 6.00716 8.17705 5.79135 7.75892C5.73688 7.66078 5.72116 7.44105 5.71592 7.31092C5.70545 7.23092 5.68659 7.18505 5.66354 7.16691C5.61116 7.12745 5.54202 7.23092 5.52735 7.40905C5.5064 7.55305 5.51164 7.59252 5.51164 7.73118C5.58078 8.77972 7.2224 8.32852 7.48954 7.46452C7.62154 7.01652 7.4864 6.67838 7.53145 6.63678L7.53459 6.63465H7.53773L7.54297 6.63251C7.7064 6.81172 7.93478 6.65385 7.98507 6.59305C8.00602 6.56105 8.0605 6.53972 8.09821 6.58238C8.22393 6.67412 8.44812 6.63038 8.49421 6.46505C8.52145 6.30505 8.5445 6.14078 8.54973 5.96905C8.46593 5.99572 8.39888 6.01491 8.37164 6.04372C8.36535 6.05118 8.36116 6.05972 8.35907 6.06825L8.33812 6.21012C8.33812 6.21545 8.33602 6.21865 8.33393 6.22078C8.33078 6.22825 8.32345 6.23358 8.31926 6.23678C8.28993 6.25278 8.23859 6.24425 8.23545 6.20052C8.19669 6.01918 8.03431 5.99572 7.93583 6.27838C7.86983 6.33172 7.74726 6.34238 7.73678 6.26132C7.7525 6.07145 7.67707 6.04585 7.52726 6.13545L7.38269 5.02612C7.44554 5.02292 7.50212 5.06878 7.56078 4.99625C7.49793 4.79998 7.36697 4.40105 7.29259 4.36265H7.2905L7.28002 4.35198C7.28002 4.34985 7.27688 4.34878 7.27478 4.34772L7.27059 4.34132C7.2664 4.34132 7.26221 4.33918 7.26012 4.33812C7.25278 4.33598 7.2465 4.33598 7.23916 4.33598H7.24021ZM12.3128 4.34025C12.2478 4.33812 12.1766 4.37972 12.2038 4.46292C12.1871 4.50878 12.3432 4.66238 12.3683 4.74558C12.4134 4.87358 12.3337 4.99838 12.3809 5.01652C12.4249 5.03572 12.4856 4.88318 12.5066 4.74132C12.5338 4.62612 12.4542 4.39145 12.339 4.34345L12.3128 4.34132V4.34025ZM8.36012 4.47998C8.38945 4.47785 8.42507 4.50558 8.44393 4.54398C8.46174 4.58665 8.45231 4.62612 8.42297 4.63358C8.39154 4.64105 8.35173 4.61438 8.33288 4.57172C8.31402 4.52905 8.3224 4.48958 8.35383 4.48212H8.36012V4.47998ZM15.6903 4.67412C15.6306 4.67198 15.5646 4.71678 15.5918 4.80745C15.5772 4.85652 15.7175 5.02292 15.7416 5.11465C15.7626 5.17865 15.7102 5.38771 15.7521 5.40691C15.7919 5.42825 15.8464 5.26185 15.8674 5.10825C15.8799 5.02292 15.8192 4.72958 15.7154 4.67732C15.7081 4.67518 15.6997 4.67305 15.6914 4.67305L15.6903 4.67412ZM11.636 4.77652C11.6434 4.80105 11.6486 4.82558 11.6517 4.85118C11.6643 4.90452 11.6748 4.95785 11.6853 5.01332C11.6392 4.94718 11.6014 4.89385 11.5836 4.87465C11.4789 4.74665 11.5857 4.79145 11.636 4.77652ZM12.5715 5.24372C12.5485 5.24798 12.5265 5.26825 12.5192 5.30025C12.5129 5.31945 12.5275 5.35358 12.5087 5.36425C12.4982 5.37492 12.4563 5.36852 12.4594 5.31092C12.4594 5.29172 12.4458 5.27145 12.4385 5.26078C12.4301 5.25545 12.4249 5.25332 12.4102 5.25332C12.3924 5.25332 12.3924 5.25865 12.383 5.27465C12.3788 5.28958 12.3725 5.30452 12.3725 5.32265C12.3725 5.34398 12.3641 5.35038 12.3494 5.35465C12.3327 5.35465 12.3358 5.35465 12.3222 5.34718C12.3138 5.33652 12.3044 5.33438 12.3044 5.31945C12.3044 5.30345 12.3013 5.27892 12.296 5.26825C12.2887 5.25758 12.2782 5.25438 12.2646 5.25012C12.1965 5.25012 12.1913 5.33118 12.1954 5.36105C12.1913 5.36745 12.1881 5.51252 12.2824 5.55305C12.4102 5.61385 12.6491 5.58505 12.6386 5.37812C12.6386 5.35998 12.6334 5.29812 12.6323 5.28212C12.6187 5.25012 12.5946 5.23945 12.5726 5.24265L12.5715 5.24372ZM8.30773 5.28638C8.29307 5.28638 8.27212 5.29065 8.24802 5.30558C8.13593 5.36745 8.09297 5.55092 8.16421 5.65758C8.22707 5.75358 8.33183 5.71838 8.34545 5.71838C8.45545 5.73332 8.5204 5.50932 8.5204 5.50932C8.5204 5.50932 8.52354 5.44532 8.39469 5.56478C8.33811 5.57545 8.33183 5.55412 8.31716 5.52212C8.30459 5.46558 8.30669 5.40478 8.33288 5.34825C8.34545 5.31305 8.33288 5.29065 8.30773 5.28852V5.28638ZM14.3347 5.31518C14.2718 5.31198 14.2058 5.35358 14.188 5.43998C14.188 5.49118 14.2111 5.51892 14.2069 5.56585C14.2016 5.59252 14.1754 5.60852 14.1105 5.57865C14.121 5.56798 14.0686 5.49545 14.0686 5.49545C14.0194 5.46345 13.9534 5.49545 13.9094 5.52532C13.8853 5.57011 13.8674 5.64585 13.8947 5.72265C13.9659 5.85811 14.2121 6.08852 14.3294 6.09065C14.3315 5.96905 14.3431 5.80692 14.3504 5.70665C14.3525 5.66825 14.3609 5.62665 14.3975 5.61705C14.4332 5.60638 14.495 5.65332 14.495 5.61385C14.4887 5.53705 14.474 5.42185 14.4321 5.36852C14.4091 5.33652 14.3724 5.31731 14.3357 5.31518H14.3347ZM9.34488 5.73865L9.34173 5.74185C9.34173 5.74185 9.33964 5.74185 9.33859 5.74398C9.32602 5.75465 9.31135 5.77598 9.27888 5.79732C9.22335 5.86132 9.21392 5.90718 9.21602 6.03518C9.22021 6.04905 9.32078 6.33705 9.40773 6.53865C9.4664 6.74878 9.51983 6.98985 9.48107 7.21705C9.34488 7.51785 9.0725 7.78772 8.80745 7.93492C8.67126 7.97758 8.55602 7.96265 8.52459 7.93278C8.44707 7.87945 8.44602 7.78345 8.45126 7.76852V7.76532C8.67335 7.60745 8.92793 7.47945 9.12697 7.05385C9.18564 6.89065 9.2045 6.79252 9.14583 6.54185C9.12278 6.44585 9.09345 6.37118 9.03059 6.30292H9.03269C9.0704 6.28478 9.16888 6.35838 9.18459 6.31358C9.1605 6.19198 9.07983 6.03092 8.99078 5.94772C8.91116 5.87305 8.82316 5.86558 8.75192 5.93278C8.67021 5.97971 8.65345 6.14611 8.69221 6.29118C8.73621 6.39998 8.85459 6.41918 8.9384 6.63998C8.9405 6.65492 8.96669 6.80532 8.92478 6.86718C8.88916 6.97598 8.44812 7.33012 8.41669 7.35145L8.41354 7.35358L8.41145 7.35572H8.40935H8.40726V7.35252C8.40516 7.34398 8.40726 7.32051 8.40726 7.28532C8.40412 7.21918 8.43135 7.06878 8.42821 7.04212V7.03998C8.28154 7.13598 8.23231 7.42932 8.20612 7.51678C7.83631 7.77598 7.41726 7.96905 7.17526 8.23145C7.04954 8.43411 8.04269 8.00318 8.15793 7.95092L8.16107 7.95411C8.18412 7.97865 8.18516 8.06398 8.25116 8.14185C8.35592 8.28371 8.57383 8.37118 8.78754 8.31678C9.14583 8.18558 9.35326 7.93705 9.56278 7.66078C9.59212 7.61812 9.63926 7.58185 9.68326 7.61598C9.82678 7.94451 10.2437 8.17918 10.7812 8.20265C10.9069 8.04905 10.8472 7.97332 10.7969 7.94132C10.7812 7.93065 10.5297 7.83038 10.4899 7.73118C10.4658 7.63945 10.5255 7.55731 10.645 7.49652C10.9907 7.45385 11.3301 7.40585 11.6591 7.29812C11.6622 7.18505 11.7272 7.01758 11.7712 6.94398C11.8026 6.89385 11.8204 6.88852 11.8277 6.88212V6.87998H11.8298V6.87678V6.86611L11.7733 6.83198L10.6701 6.82772C10.6565 6.82238 10.6471 6.81705 10.6408 6.81172L10.6387 6.80852C10.6387 6.80852 10.6366 6.80852 10.6366 6.80638C10.6366 6.80425 10.6345 6.80425 10.6345 6.80425V6.80532V6.80318V6.80105V6.79892L10.6366 6.79571C10.6418 6.78931 10.6554 6.78185 10.6712 6.77438C10.9352 6.73918 11.4024 6.66132 11.4338 6.20372C11.4286 5.96478 11.3333 5.80905 11.0462 5.76638C10.8346 5.78238 10.6837 5.99038 10.7078 6.21865C10.6974 6.27945 10.7288 6.39998 10.6659 6.41385C10.2615 6.45225 9.81945 6.71038 9.80478 6.89598H9.80269H9.80059H9.7985C9.7985 6.89812 9.7964 6.89812 9.79535 6.89812H9.79116H9.78907H9.78488C9.75869 6.88958 9.72516 6.84478 9.7304 6.78398C9.71469 6.46398 9.61202 6.10132 9.45278 5.82398C9.39516 5.76532 9.36897 5.74185 9.35431 5.73865H9.35116H9.34802H9.34592H9.34488ZM10.4009 5.90718C10.3799 5.91145 10.3558 5.93065 10.3485 5.96265C10.3433 5.98398 10.359 6.01812 10.3401 6.02878C10.3296 6.03945 10.2877 6.03305 10.2898 5.97545C10.2898 5.95732 10.2762 5.93705 10.2689 5.92532C10.2605 5.91998 10.2553 5.91891 10.2416 5.91891C10.2238 5.91891 10.2228 5.92318 10.2134 5.93812C10.2081 5.95305 10.2029 5.97012 10.2029 5.98612C10.2008 6.00745 10.1924 6.01385 10.1788 6.01598C10.162 6.01598 10.1662 6.01918 10.1526 6.01065C10.1442 6.00212 10.1337 5.99785 10.1337 5.98292C10.1337 5.96692 10.1306 5.94025 10.1264 5.92958C10.1191 5.92212 10.1075 5.91892 10.095 5.91465C10.0248 5.91465 10.0216 5.99465 10.0248 6.02558C10.0195 6.03092 10.0164 6.17492 10.1107 6.21545C10.2364 6.27732 10.5402 6.24105 10.4669 6.04158C10.4669 6.02345 10.4616 5.96158 10.4606 5.94558C10.447 5.91358 10.4229 5.90292 10.3998 5.90612L10.4009 5.90718ZM14.6594 6.08532H14.649C14.649 6.08532 14.0602 6.51198 14.0466 6.52692C13.9879 6.58025 14.0173 6.76478 14.0466 6.74345C14.0885 6.75945 14.6804 6.35091 14.6689 6.30292C14.6951 6.30505 14.7076 6.09278 14.6584 6.08425L14.6594 6.08532ZM10.9572 6.14931C10.9802 6.14612 11.0116 6.15465 11.041 6.17065C11.086 6.19838 11.1143 6.23678 11.1091 6.26665V6.27092C11.107 6.27092 11.107 6.27092 11.107 6.27305V6.27518C11.107 6.27518 11.1049 6.27518 11.1049 6.27732C11.1049 6.27945 11.1017 6.28158 11.0996 6.28372C11.0787 6.30505 11.0305 6.30078 10.9844 6.27305C10.9404 6.24852 10.9142 6.20905 10.9163 6.18132V6.17811L10.9215 6.16745C10.9215 6.16745 10.9215 6.16531 10.9236 6.16425L10.9289 6.15785C10.9362 6.15251 10.9456 6.14718 10.9572 6.14718V6.14931ZM5.80497 6.25598C5.50116 6.26238 5.05383 6.66345 5.04231 6.88531L6.00612 6.41598C5.95373 6.33491 6.00297 6.26238 5.80497 6.25598ZM6.79288 6.39465C6.82221 6.39678 6.85364 6.41172 6.8704 6.45438C6.88507 6.49385 6.8704 6.53438 6.85259 6.55465V6.55785C6.83792 6.57491 6.79393 6.56852 6.76145 6.56852C6.72269 6.56638 6.70383 6.55998 6.68078 6.52798C6.66821 6.49065 6.70173 6.45545 6.71745 6.42985L6.72478 6.41918C6.73526 6.40852 6.75621 6.39998 6.77716 6.39785L6.79078 6.39571L6.79288 6.39465ZM14.5453 6.51945C14.4897 6.52585 14.4384 6.57811 14.4614 6.66131C14.4468 6.71038 14.5348 6.88212 14.5589 6.97278C14.5798 7.03678 14.5316 7.22132 14.5746 7.23945C14.6144 7.26078 14.7181 7.13278 14.715 6.96852C14.7254 6.88318 14.6856 6.57385 14.5819 6.52265C14.5694 6.51945 14.5568 6.51838 14.5442 6.51945H14.5453ZM7.96202 6.82238C7.91383 6.82558 7.87088 6.85118 7.89078 6.92052C7.88764 6.96958 8.02697 7.03038 8.03431 7.14452C8.05316 7.19358 8.00288 7.34718 8.04478 7.35998C8.0825 7.37598 8.13488 7.25332 8.15478 7.14238C8.16526 7.08052 8.10659 6.86505 8.00812 6.82558C7.9924 6.82132 7.97669 6.82025 7.96097 6.82132L7.96202 6.82238ZM9.93154 7.09545H9.94412C10.0677 7.12958 10.2479 7.13385 10.4051 7.14878C10.5339 7.15945 10.5968 7.25972 10.4784 7.30345C10.359 7.34398 10.2448 7.37812 10.2448 7.55092C10.2594 7.63625 10.2553 7.68105 10.2427 7.70025C10.2427 7.70345 10.2395 7.70558 10.2385 7.70665C10.2385 7.70665 10.2385 7.70878 10.2364 7.70878V7.71092H10.2333L10.2259 7.71411H10.2207C10.1924 7.71945 10.1515 7.69278 10.1212 7.67572C10.0478 7.62238 9.84354 7.49438 9.81421 7.21705C9.81002 7.15305 9.85611 7.09972 9.92945 7.09438L9.93154 7.09545ZM5.11878 7.30878C5.11145 7.30878 5.09783 7.33225 5.07688 7.35892C4.89459 7.65225 4.87783 8.09065 4.9784 8.22292C5.03078 8.28372 5.11878 8.31145 5.18373 8.29225C5.29897 8.24212 5.34821 8.00638 5.31993 7.92105C5.28326 7.86025 5.25288 7.85065 5.21516 7.90185C5.1345 8.06718 5.09993 7.95305 5.09469 7.85918C5.08212 7.68532 5.09888 7.52318 5.11773 7.39518C5.12821 7.33118 5.12821 7.30665 5.11773 7.30665L5.11878 7.30878ZM11.2966 7.69492C11.283 7.69492 11.2694 7.69705 11.2547 7.70558C11.2515 7.70558 11.1248 7.79092 11.0839 7.85278C11.0588 7.87198 11.063 7.88798 11.0693 7.92212C11.0881 7.96798 11.1216 7.95411 11.1614 7.93278C11.2138 7.92425 11.2379 7.95945 11.2348 8.02238C11.2107 8.10238 11.2453 8.13118 11.2453 8.13651C11.2453 8.14078 11.2945 8.18451 11.3532 8.15038C11.4757 8.10238 11.5522 8.05438 11.7251 8.01705C11.7701 8.01705 11.767 7.89331 11.6957 7.88905C11.6014 7.89331 11.5176 7.89971 11.4234 7.97438C11.3657 7.98718 11.3563 7.95091 11.3427 7.91891C11.328 7.83998 11.3762 7.78452 11.3657 7.72478C11.3678 7.72798 11.3364 7.69918 11.2955 7.69705L11.2966 7.69492ZM15.2524 7.84425L15.1686 7.85278C15.1309 7.86025 15.1183 7.87732 15.111 7.92425C15.1141 7.99358 15.156 7.99038 15.2 8.01812C15.2252 8.05012 15.2419 8.07998 15.1979 8.13545C15.156 8.17278 15.1277 8.19412 15.0858 8.23145C15.068 8.26558 15.0544 8.31678 15.1152 8.33385C15.2252 8.36585 15.4797 8.19732 15.4797 8.19518C15.5216 8.16318 15.507 8.10238 15.5038 8.10238C15.4787 8.07465 15.4242 8.09171 15.3886 8.08638C15.3708 8.08638 15.3153 8.07785 15.3404 8.02665C15.3634 7.99465 15.3718 7.97652 15.3875 7.93705C15.4033 7.89865 15.3875 7.87305 15.3268 7.85172C15.2954 7.84532 15.2744 7.84318 15.2503 7.84425H15.2524ZM13.7302 11.9616C14.0131 11.9754 14.2771 11.9648 14.5578 11.9786C14.6039 12.017 14.5819 12.1066 14.5526 12.1216L14.5474 12.1237H14.5442H14.54L14.3033 12.1173V12.1034C14.2802 12.0373 14.1231 12.0416 14.0854 12.0928V12.096C14.0833 12.096 14.0822 12.0992 14.0822 12.1002L14.0801 12.1056V12.1184C13.9544 12.1344 13.8444 12.1141 13.7208 12.1098C13.6841 12.064 13.6894 11.9818 13.7313 11.9605L13.7302 11.9616Z" fill="white"/>
</g>
<defs>
<clipPath id="clip0_165_1376">
<rect width="22" height="16" rx="2" fill="white"/>
</clipPath>
</defs>
</svg>
