<svg width="22" height="16" viewBox="0 0 22 16" fill="none" xmlns="http://www.w3.org/2000/svg">
<g clip-path="url(#clip0_165_1343)">
<rect width="22" height="16" fill="white"/>
<path fill-rule="evenodd" clip-rule="evenodd" d="M0 0H22V10H0V0Z" fill="#F93939"/>
<path fill-rule="evenodd" clip-rule="evenodd" d="M6.28569 8.38723C5.98188 8.48323 5.65712 8.53336 5.31874 8.53336C3.53779 8.53336 2.09521 7.10083 2.09521 5.33336C2.09521 3.5659 3.53883 2.13336 5.31874 2.13336C5.65607 2.13336 5.98083 2.18456 6.28569 2.2795C4.97826 2.68803 4.02912 3.90083 4.02912 5.33336C4.02912 6.76589 4.97826 7.97869 6.28569 8.38723ZM8.38093 3.20003H9.42855V4.2667H8.38093V3.20003ZM10.4762 4.2667H11.5238V5.33336H10.4762V4.2667ZM9.42855 6.40003H10.4762V7.46669H9.42855V6.40003ZM6.28569 4.2667H7.33331V5.33336H6.28569V4.2667ZM7.33331 6.40003H8.38093V7.46669H7.33331V6.40003Z" fill="white"/>
</g>
<defs>
<clipPath id="clip0_165_1343">
<rect width="22" height="16" rx="2" fill="white"/>
</clipPath>
</defs>
</svg>
