<svg width="22" height="16" viewBox="0 0 22 16" fill="none" xmlns="http://www.w3.org/2000/svg">
<g clip-path="url(#clip0_165_1312)">
<rect width="22" height="16" fill="#1A47B8"/>
<path fill-rule="evenodd" clip-rule="evenodd" d="M0 16H22V0L0 16Z" fill="#FFDA2C"/>
<path fill-rule="evenodd" clip-rule="evenodd" d="M2.09521 16H22V2.13336L2.09521 16Z" fill="#249F58"/>
<path fill-rule="evenodd" clip-rule="evenodd" d="M5.36588 6.03523L4.71845 6.40003L4.84207 5.62776L4.31826 5.08163L5.04112 4.96856L5.36588 4.2667L5.69064 4.96856L6.4135 5.08163L5.88969 5.62776L6.01331 6.40003L5.36588 6.03523ZM3.27064 3.9019L2.62321 4.2667L2.74683 3.49443L2.22302 2.9483L2.94588 2.83523L3.27064 2.13336L3.5954 2.83523L4.31826 2.9483L3.79445 3.49443L3.91807 4.2667L3.27064 3.9019ZM7.46112 3.9019L6.81369 4.2667L6.93731 3.49443L6.4135 2.9483L7.13635 2.83523L7.46112 2.13336L7.78588 2.83523L8.50874 2.9483L7.98493 3.49443L8.10855 4.2667L7.46112 3.9019ZM7.46112 8.16856L6.81369 8.53336L6.93731 7.7611L6.4135 7.21496L7.13635 7.10189L7.46112 6.40003L7.78588 7.10189L8.50874 7.21496L7.98493 7.7611L8.10855 8.53336L7.46112 8.16856ZM3.27064 8.16856L2.62321 8.53336L2.74683 7.7611L2.22302 7.21496L2.94588 7.10189L3.27064 6.40003L3.5954 7.10189L4.31826 7.21496L3.79445 7.7611L3.91807 8.53336L3.27064 8.16856Z" fill="white"/>
</g>
<defs>
<clipPath id="clip0_165_1312">
<rect width="22" height="16" rx="2" fill="white"/>
</clipPath>
</defs>
</svg>
