<svg width="22" height="16" viewBox="0 0 22 16" fill="none" xmlns="http://www.w3.org/2000/svg">
<g clip-path="url(#clip0_165_1291)">
<rect width="22" height="16" fill="white"/>
<path fill-rule="evenodd" clip-rule="evenodd" d="M14.6667 8.00002C14.6667 10.0619 13.0251 11.7334 11 11.7334C8.97499 11.7334 7.33337 10.0619 7.33337 8.00002C7.33337 6.80536 9.79528 6.30402 11.8675 6.49282C12.0875 6.43309 12.3242 6.40002 12.5715 6.40002C13.7291 6.40002 14.6667 7.11682 14.6667 8.00002Z" fill="#232C80"/>
<path fill-rule="evenodd" clip-rule="evenodd" d="M10.4762 7.46666C10.4762 7.46666 11.4139 6.4 12.5715 6.4C13.7291 6.4 14.6667 7.1168 14.6667 8C14.6667 5.93813 13.0251 4.26666 11 4.26666C9.53652 4.26666 8.27309 5.1392 7.68537 6.40213C7.33337 7.46666 7.33337 7.77813 7.33337 8C7.85718 8.53333 8.43966 8.53333 8.9048 8.53333C9.36995 8.53333 9.78795 8.32746 10.076 8L10.4762 7.46666Z" fill="#F93939"/>
<path fill-rule="evenodd" clip-rule="evenodd" d="M15.7142 5.33335H17.8095L15.7142 3.20001H14.6666L15.7142 5.33335ZM6.28567 5.33335H4.19043L6.28567 3.20001H7.33329L6.28567 5.33335ZM15.7142 10.6667H17.8095L15.7142 12.8H14.6666L15.7142 10.6667ZM6.28567 10.6667H4.19043L6.28567 12.8H7.33329L6.28567 10.6667Z" fill="#151515"/>
</g>
<defs>
<clipPath id="clip0_165_1291">
<rect width="22" height="16" rx="2" fill="white"/>
</clipPath>
</defs>
</svg>
