<svg width="22" height="16" viewBox="0 0 22 16" fill="none" xmlns="http://www.w3.org/2000/svg">
<g clip-path="url(#clip0_165_1260)">
<rect width="22" height="16" fill="#FFDA2C"/>
<rect width="22" height="16" fill="#FFDA2C"/>
<rect opacity="0.3" width="22" height="16" fill="#FF6C2D"/>
<path fill-rule="evenodd" clip-rule="evenodd" d="M2.09521 2.13336H5.23807V13.8667H2.09521V2.13336Z" fill="#0A6A30"/>
<path fill-rule="evenodd" clip-rule="evenodd" d="M5.23804 2.13336H8.38089V13.8667H5.23804V2.13336Z" fill="#FF6C2D"/>
<path opacity="0.2" fill-rule="evenodd" clip-rule="evenodd" d="M5.23804 2.13336H8.38089V13.8667H5.23804V2.13336Z" fill="#151515"/>
<path fill-rule="evenodd" clip-rule="evenodd" d="M9.42859 2.13336H19.9048V13.8667H9.42859V2.13336ZM13.1319 11.3238L13.1927 11.2769L13.2178 11.3238C13.2524 11.3878 13.3477 11.3857 13.4106 11.3238L13.4598 11.2737L13.5017 11.3217C13.5541 11.3857 13.6526 11.3857 13.7155 11.3217C13.7615 11.2769 13.7678 11.2758 13.7972 11.311C13.8139 11.3302 13.8653 11.3537 13.9103 11.3611C13.992 11.3761 13.9941 11.375 14.0413 11.2779C14.0832 11.1969 14.0884 11.1649 14.079 11.0859C14.0727 11.0326 14.0654 10.9494 14.0633 10.8993C14.0612 10.8075 14.0612 10.8065 14.1596 10.7606C14.212 10.735 14.2749 10.7009 14.299 10.6838C14.3377 10.6561 14.4456 10.4843 14.4456 10.4491C14.4456 10.4406 14.4037 10.4278 14.3514 10.4193C14.1471 10.3873 14.1125 10.2379 14.2466 9.96059C14.4635 9.51045 14.5944 9.06992 14.5955 8.78938C14.5955 8.66458 14.6007 8.62192 14.6133 8.65072C14.6615 8.76058 14.5745 9.22672 14.4425 9.56272L14.3901 9.69818L14.4404 9.68218C14.4676 9.67152 14.6321 9.57872 14.8039 9.47312C15.2754 9.18512 15.4377 9.12752 15.7436 9.14458C15.9993 9.15952 16.1082 9.22672 16.2884 9.48378C16.3848 9.61925 16.477 9.71632 16.6446 9.85925C17.005 10.1643 17.0196 10.1899 17.0364 10.5483C17.0542 10.911 17.0469 10.9323 16.8426 10.9921C16.6697 11.0433 16.5597 11.1521 16.5315 11.3046C16.5168 11.3867 16.5493 11.3899 16.6362 11.3131L16.6991 11.2577L16.7284 11.3131C16.7661 11.3878 16.8457 11.3878 16.9117 11.3131L16.961 11.2598L17.0113 11.3131C17.0909 11.3985 17.1967 11.3793 17.226 11.2705C17.2313 11.2513 17.247 11.2577 17.2784 11.2939C17.336 11.3622 17.4837 11.3921 17.5005 11.3366C17.5068 11.3174 17.4942 11.2673 17.4743 11.2257C17.3884 11.0507 17.3612 10.9665 17.3591 10.8715C17.3591 10.7393 17.3874 10.6753 17.4995 10.5665C17.6356 10.4353 17.6775 10.2678 17.5749 10.2678C17.512 10.2678 17.4471 10.1899 17.4073 10.0651C17.3235 9.81445 17.3392 9.53179 17.4638 9.06245C17.5896 8.58245 17.6042 8.49712 17.6053 8.17712C17.6053 7.91792 17.6021 7.87312 17.5581 7.73125C17.5319 7.64592 17.4775 7.51579 17.4387 7.44538L17.3685 7.31739L17.4596 7.21285C17.7394 6.89925 17.6828 6.38512 17.3444 6.18885C17.2428 6.12698 17.2166 6.12165 17.0364 6.12485C16.9275 6.12485 16.764 6.14405 16.6697 6.16752C16.5734 6.18885 16.412 6.20805 16.301 6.20805C16.125 6.20805 16.0956 6.20378 16.0286 6.15472C15.9574 6.10352 15.9448 6.08005 15.9312 5.96272C15.9291 5.93712 15.9165 5.91365 15.9039 5.90938C15.8798 5.89872 15.7677 6.02672 15.7531 6.08645C15.7447 6.11418 15.7374 6.11205 15.7143 6.07578C15.6986 6.04912 15.6766 5.99045 15.6651 5.94565C15.6368 5.83045 15.6714 5.74298 15.7698 5.67898L15.8484 5.62992L15.8044 5.59152C15.7101 5.51258 15.5498 5.56592 15.4922 5.69818C15.4755 5.73338 15.4576 5.76432 15.4524 5.76432C15.4472 5.76432 15.4157 5.72912 15.3833 5.68645C15.2617 5.52645 15.3036 5.28752 15.4671 5.21392C15.553 5.17552 15.6295 5.20538 15.6452 5.28325C15.6693 5.40272 15.7457 5.24592 15.7321 5.10405C15.7216 5.01018 15.7216 5.00592 15.7709 5.00592C15.8379 5.00592 15.9804 5.12538 16.0255 5.21925C16.0778 5.32592 16.0726 5.49658 16.015 5.62245L15.9731 5.72165L16.0296 5.70672C16.1135 5.68325 16.1973 5.61072 16.2392 5.52538C16.2832 5.43365 16.2884 5.25552 16.2496 5.15845C16.2109 5.06565 16.2151 5.05178 16.2706 5.08378C16.367 5.13712 16.4173 5.19472 16.456 5.29712C16.4916 5.38778 16.4937 5.41018 16.4749 5.50512C16.4644 5.56378 16.4382 5.64058 16.4183 5.67578C16.3869 5.73232 16.3869 5.74192 16.411 5.74192C16.456 5.74192 16.5524 5.68325 16.5859 5.63525C16.6027 5.60965 16.6278 5.54992 16.6415 5.49872L16.6656 5.40912L16.6938 5.47738C16.7336 5.57338 16.8091 5.66192 16.9034 5.71632C17.005 5.77605 17.0469 5.78032 16.9945 5.72485C16.9589 5.68752 16.8929 5.42618 16.9128 5.40165C16.9233 5.38672 17.0616 5.52965 17.2166 5.71952C17.3654 5.90085 17.4576 5.95845 17.5937 5.95845C17.7687 5.95845 17.8693 5.75365 17.7928 5.56058C17.7456 5.44752 17.644 5.43258 17.5854 5.52858C17.5581 5.57338 17.5508 5.60858 17.5581 5.65445C17.5686 5.71205 17.5644 5.71845 17.5267 5.71845C17.4743 5.71845 17.3758 5.63312 17.1998 5.43258C16.9306 5.12858 16.6027 4.87045 16.367 4.77658C16.2151 4.71472 15.8914 4.69125 15.7384 4.72965C15.5708 4.77018 15.3717 4.90032 15.2649 5.03898C15.0742 5.28432 15.0721 5.60965 15.2576 5.90725L15.3099 5.99258L15.2743 6.06725C15.2219 6.17818 15.2261 6.32645 15.2848 6.43525C15.311 6.48325 15.3372 6.52272 15.3435 6.52272C15.3497 6.52272 15.356 6.49072 15.3581 6.45338C15.3634 6.35739 15.3937 6.29338 15.4461 6.26885C15.4922 6.24538 15.5226 6.25605 15.7374 6.37125C15.9626 6.49392 16.3324 6.50138 16.7263 6.39258C16.9201 6.34138 17.1475 6.34458 17.248 6.40112C17.4314 6.50565 17.4743 6.77658 17.3392 6.98245C17.2805 7.06992 17.2239 7.10618 17.0354 7.17659C16.8908 7.22992 16.8573 7.23418 16.5294 7.22992C16.2496 7.22565 16.1491 7.23312 16.0349 7.26512C15.9113 7.30032 15.8358 7.30352 15.4713 7.29178L15.0501 7.27685L15.0973 7.33019C15.1224 7.35792 15.1601 7.39419 15.1779 7.40805C15.2094 7.43152 15.2094 7.43472 15.1612 7.45819C15.1329 7.47312 15.0721 7.48378 15.025 7.48378H14.938L14.9276 7.58405C14.9213 7.63952 14.9213 7.70138 14.9276 7.72592C14.938 7.76112 14.9349 7.76538 14.9066 7.75258C14.8898 7.74192 14.8396 7.72592 14.7956 7.71312C14.7516 7.70032 14.6929 7.67578 14.6646 7.65658C14.6164 7.62458 14.6122 7.62458 14.5934 7.66725C14.5787 7.70565 14.432 7.85285 14.41 7.85285C14.4069 7.85285 14.4027 7.82405 14.3996 7.78885C14.3996 7.75472 14.3786 7.66405 14.3535 7.58832C14.3304 7.51365 14.3053 7.43045 14.299 7.40485C14.2885 7.36645 14.2854 7.36432 14.2728 7.39418C14.2655 7.41232 14.2539 7.46352 14.2476 7.50832C14.2424 7.55098 14.2204 7.62565 14.1995 7.66832L14.1617 7.74725L14.1376 7.67898C14.1125 7.60645 14.0696 7.52965 14.0538 7.52965C14.0486 7.52965 14.0392 7.55418 14.0329 7.58298C14.0224 7.64165 13.9208 7.80698 13.8967 7.80698C13.8862 7.80698 13.8789 7.76005 13.8789 7.70352C13.8789 7.64592 13.8716 7.60005 13.8611 7.60005C13.8527 7.60005 13.8443 7.61392 13.8443 7.63205C13.8443 7.67472 13.7574 7.80592 13.7291 7.80592C13.7155 7.80592 13.6955 7.82085 13.683 7.84005C13.6516 7.88912 13.6254 7.88272 13.6379 7.82938C13.6453 7.80272 13.6411 7.74405 13.6296 7.69605L13.6013 7.58405C13.5971 7.56698 13.5667 7.57125 13.5007 7.60005C13.3938 7.64592 13.3582 7.63845 13.4127 7.57872C13.4336 7.55738 13.4651 7.48485 13.4808 7.41658C13.4976 7.34832 13.5227 7.28859 13.5374 7.28112C13.5562 7.27472 13.5552 7.28432 13.5321 7.32592C13.5164 7.35578 13.5028 7.39632 13.5028 7.41552C13.5028 7.43472 13.4892 7.47952 13.4745 7.51685C13.4598 7.55525 13.4504 7.58832 13.4536 7.59152C13.4577 7.59685 13.4976 7.57658 13.5436 7.54672L13.6275 7.49339V7.54139C13.6275 7.56805 13.6379 7.63738 13.6484 7.69712L13.6715 7.80378L13.728 7.76858C13.7856 7.73232 13.8412 7.60325 13.8412 7.50405C13.8412 7.45285 13.8621 7.46138 13.8705 7.51472L13.8998 7.64272L13.925 7.74298L13.9637 7.67898C13.9847 7.64378 14.013 7.57552 14.0245 7.52645C14.0455 7.44325 14.0748 7.40698 14.0748 7.46778C14.0748 7.51258 14.1649 7.67045 14.1816 7.65765C14.19 7.65125 14.2068 7.59152 14.2183 7.52538C14.2435 7.38672 14.2833 7.29285 14.3095 7.31205C14.3199 7.32058 14.322 7.33338 14.3168 7.34405C14.3126 7.35472 14.3325 7.44538 14.3629 7.54458C14.3943 7.64378 14.4257 7.74405 14.431 7.76645C14.4415 7.80378 14.4519 7.79845 14.5169 7.72058C14.5588 7.67259 14.5944 7.61925 14.5986 7.60112C14.6049 7.57552 14.6143 7.57658 14.651 7.60752C14.7034 7.65232 14.8815 7.72485 14.8951 7.70565C14.9003 7.69925 14.9056 7.63632 14.9056 7.56698L14.9087 7.43898L14.9611 7.45285C14.9894 7.46138 15.048 7.46032 15.092 7.45285L15.1716 7.43685L15.1015 7.37072C15.0627 7.33445 15.0229 7.28752 15.0135 7.26618C15.003 7.24485 14.9674 7.22352 14.9296 7.22032C14.8217 7.20752 14.6321 7.06352 14.6321 6.99632C14.6321 6.98245 14.6583 7.00379 14.6908 7.04432C14.762 7.13178 14.8605 7.18725 14.9464 7.18725H15.0114L14.9716 7.11685C14.9485 7.07418 14.9276 6.99739 14.9223 6.93232C14.915 6.83098 14.9066 6.81498 14.828 6.74032C14.7809 6.69552 14.7212 6.62832 14.6971 6.59098L14.6531 6.52378L14.63 6.60378C14.6175 6.64858 14.6017 6.68378 14.5965 6.68378C14.5902 6.68378 14.5651 6.65818 14.5441 6.62725C14.52 6.59525 14.4959 6.56965 14.4917 6.56965C14.4844 6.56965 14.4645 6.61232 14.4446 6.66565L14.41 6.75845L14.3828 6.70512C14.3671 6.67312 14.3325 6.62192 14.3042 6.58779C14.2759 6.55152 14.2602 6.52378 14.2707 6.52378C14.2812 6.52378 14.3168 6.56005 14.3493 6.60378L14.409 6.68485L14.4331 6.62512C14.4467 6.59098 14.4519 6.53658 14.4456 6.49285C14.4352 6.42885 14.4373 6.42672 14.4561 6.46618C14.4666 6.49178 14.5012 6.54085 14.5326 6.57285L14.5892 6.63685L14.6279 6.54085C14.6667 6.44485 14.6677 6.44485 14.6845 6.50032C14.7086 6.57712 14.8783 6.76698 15.0229 6.87578C15.0438 6.89285 15.0355 6.83312 14.9946 6.69978C14.9841 6.66458 14.9736 6.60058 14.9736 6.55792C14.9736 6.49392 14.9611 6.46512 14.9003 6.40325C14.8144 6.31365 14.7872 6.25072 14.7704 6.10672C14.7641 6.04805 14.7495 5.98298 14.7369 5.96272C14.7191 5.93072 14.7159 5.94885 14.7212 6.05658C14.7233 6.13125 14.7159 6.22085 14.7044 6.25925L14.6835 6.32752L14.6667 6.26992C14.6562 6.23792 14.6175 6.18458 14.5776 6.14725C14.5357 6.11205 14.5096 6.07685 14.5148 6.06938C14.52 6.06298 14.5619 6.09498 14.6059 6.14192C14.674 6.21338 14.6897 6.22085 14.6981 6.18992C14.7086 6.15258 14.6981 5.99152 14.6772 5.88058C14.6667 5.82298 14.6667 5.82298 14.7191 5.89125C14.7568 5.94458 14.7767 6.00432 14.7924 6.11098C14.8134 6.24645 14.8238 6.27098 14.916 6.37765C14.9716 6.44485 15.0208 6.49498 15.0229 6.49072C15.0271 6.48645 15.0334 6.31578 15.0386 6.11205C15.0491 5.72272 15.0386 5.62992 14.9684 5.50938L14.9328 5.44752L14.9883 5.36538C15.0616 5.25872 15.0952 5.17338 15.1098 5.05605L15.1224 4.96005L15.0596 5.04218C15.0072 5.10832 14.9831 5.12325 14.9234 5.12325C14.8636 5.12325 14.8396 5.11045 14.8008 5.05178C14.7526 4.98245 14.6667 4.91632 14.585 4.88325C14.5536 4.87258 14.5431 4.87685 14.5431 4.90458C14.5431 4.92592 14.5274 4.98352 14.5064 5.03472L14.4697 5.12858L14.3922 5.02405C14.344 4.96005 14.2875 4.91098 14.2456 4.89605C14.1376 4.85765 14.1324 4.86085 14.1324 4.97072C14.1324 5.13392 14.08 5.16485 13.9857 5.05605C13.9156 4.97072 13.8558 4.95365 13.7207 4.97392L13.6159 4.98992L13.6369 5.05392C13.6516 5.10725 13.6474 5.12858 13.6138 5.18938C13.5594 5.28752 13.4881 5.33018 13.3792 5.33018C13.3289 5.33018 13.266 5.34405 13.2388 5.36218C13.2126 5.37818 13.1466 5.39845 13.0921 5.40485C13.0376 5.41232 12.98 5.42618 12.9633 5.43365C12.9381 5.44645 12.935 5.43578 12.9423 5.35685C12.9559 5.23525 12.8941 5.14672 12.7956 5.14672C12.6699 5.14672 12.6123 5.29925 12.6616 5.50085C12.6708 5.53493 12.6801 5.58748 12.6865 5.62348L12.6888 5.63632C12.6961 5.67365 12.7516 5.77285 12.8229 5.86778C12.8899 5.95952 12.9528 6.05445 12.9633 6.07898C12.9737 6.10352 13.0083 6.14298 13.0397 6.16645L13.0974 6.20912L13.09 6.12698C13.0816 6.03525 13.0963 6.02032 13.1319 6.08432C13.1456 6.10885 13.178 6.14618 13.2053 6.16965C13.2472 6.20378 13.2545 6.20485 13.2545 6.17392C13.2545 6.15259 13.2629 6.10992 13.2734 6.07365L13.2943 6.00965L13.3257 6.09712C13.3446 6.14512 13.4054 6.25498 13.4598 6.34245C13.5667 6.50778 13.6316 6.69445 13.5981 6.73712C13.5845 6.75525 13.5478 6.75312 13.4724 6.73285C13.4127 6.71792 13.3394 6.70938 13.309 6.71472C13.2461 6.72538 13.243 6.71472 13.2807 6.65072C13.3205 6.58352 13.3142 6.57285 13.2356 6.57285C13.1445 6.57285 12.9193 6.51312 12.8323 6.46618C12.7485 6.42352 12.7276 6.43418 12.7035 6.54085L12.6584 6.73818L12.6343 6.84485L12.7255 6.83419C12.7757 6.82672 12.8407 6.81285 12.869 6.80005C12.8983 6.78938 12.9245 6.78298 12.9276 6.78618C12.9308 6.79045 12.9172 6.83312 12.8994 6.88005L12.8637 6.96538L12.9214 6.95045C12.9528 6.94192 12.9999 6.92058 13.0261 6.90352C13.0722 6.87365 13.0754 6.87578 13.112 6.95365C13.156 7.04965 13.1916 7.04645 13.199 6.94298C13.2074 6.83845 13.2336 6.85445 13.2828 6.99418C13.3278 7.12858 13.3771 7.17552 13.3855 7.09658C13.3886 7.07098 13.4127 7.02725 13.441 7.00059C13.4965 6.94725 13.5384 6.96432 13.5615 7.04752C13.5876 7.13285 13.5321 7.22245 13.3729 7.35472C13.0481 7.61925 12.8616 7.98192 12.8072 8.44272C12.759 8.85872 12.9098 9.28965 13.2126 9.59898C13.3572 9.74832 13.5876 9.90298 13.573 9.84432C13.5122 9.59045 13.5143 9.10832 13.5772 9.02618C13.5876 9.01338 13.5835 9.06352 13.5698 9.13712C13.5196 9.41232 13.5416 9.63098 13.6715 10.1441C13.7867 10.6091 13.772 10.8075 13.6065 10.9377C13.5541 10.9803 13.5185 10.9867 13.376 10.9846C13.221 10.9825 13.2042 10.9867 13.1539 11.0401C13.1057 11.0934 13.0439 11.2641 13.0439 11.343C13.0439 11.3857 13.0785 11.3803 13.1487 11.3259L13.1319 11.3238ZM11.9586 10.4705C11.9754 10.4417 11.9879 10.3958 11.9879 10.3691C11.9879 10.3286 12.0016 10.3179 12.0686 10.3051L12.1493 10.2902L12.0969 10.2315C12.0319 10.1633 12.0256 10.1099 12.0822 10.1099C12.1377 10.1099 12.2331 10.031 12.2477 9.97125C12.2551 9.94565 12.2509 9.90939 12.2394 9.89018C12.2079 9.84219 12.1482 9.84965 12.1377 9.90299C12.1252 9.96059 12.1063 9.96165 12.0613 9.90299C11.9942 9.81765 11.9921 9.63845 12.0581 9.53392C12.0875 9.48485 12.0875 9.48058 12.0476 9.43152C12.0057 9.37605 11.9743 9.26832 11.9953 9.24272C12.0015 9.23525 12.0351 9.24272 12.0686 9.25765C12.1189 9.27898 12.1388 9.28112 12.1587 9.25765C12.2215 9.19365 12.1535 9.10832 12.0539 9.12752C12.0152 9.13498 11.9995 9.12752 11.9932 9.09978C11.989 9.07845 11.9544 9.04965 11.9146 9.03578C11.8455 9.01232 11.8444 9.01445 11.8444 9.07845C11.8444 9.14992 11.813 9.16378 11.7575 9.11792C11.7103 9.08059 11.6653 9.10938 11.6653 9.17658C11.6653 9.23845 11.7124 9.26938 11.7952 9.26192C11.858 9.25658 11.8612 9.32165 11.8004 9.41338L11.7564 9.48058L11.791 9.54778C11.8434 9.64698 11.8381 9.81232 11.7805 9.89445L11.7386 9.95845L11.7093 9.90725C11.6695 9.83578 11.615 9.84112 11.5993 9.91792C11.5888 9.96805 11.5993 9.99045 11.6443 10.0438C11.6757 10.079 11.7208 10.1078 11.7449 10.1078C11.8056 10.1078 11.8035 10.1718 11.7407 10.2379L11.6915 10.2891L11.769 10.3051C11.8109 10.3137 11.8444 10.3307 11.8444 10.3425C11.8444 10.3851 11.8968 10.5217 11.9146 10.5217C11.9251 10.5217 11.946 10.5003 11.9596 10.4715L11.9586 10.4705ZM12.2236 8.15578C12.3976 8.05232 12.4122 7.78885 12.2488 7.71845C12.1807 7.69072 12.1377 7.70778 12.1126 7.76858C12.0916 7.81658 12.1053 7.90299 12.1335 7.90299C12.1419 7.90299 12.1493 7.91792 12.1493 7.93712C12.1493 8.02885 11.8842 8.07045 11.7763 7.99578C11.7386 7.96912 11.7239 7.90192 11.7554 7.90192C11.7763 7.90192 11.7941 7.83152 11.7826 7.78245C11.7658 7.71632 11.7155 7.69285 11.6443 7.71845C11.4819 7.77605 11.4872 8.03418 11.6516 8.14512C11.7878 8.23365 12.0854 8.23898 12.2257 8.15578H12.2236ZM12.1157 7.95312C12.1262 7.94245 12.122 7.92112 12.1053 7.90299C12.0686 7.86352 12.0707 7.80485 12.1105 7.73765C12.1419 7.68752 12.1451 7.61285 12.1555 6.85659C12.1734 5.55098 12.2446 4.57072 12.3389 4.33605C12.3766 4.24218 12.3703 4.24005 12.2739 4.33072C12.1482 4.44592 12.0539 4.59738 11.9701 4.81072C11.8109 5.21605 11.7554 5.76218 11.7554 6.92698C11.7554 7.58832 11.7596 7.67365 11.7868 7.73765C11.814 7.79525 11.8151 7.81765 11.7973 7.88059C11.7847 7.92112 11.7795 7.96058 11.7847 7.96592C11.8203 8.01285 12.078 8.00112 12.1168 7.95205L12.1157 7.95312ZM11.5238 3.20003H10.4762V4.2667H11.5238V3.20003ZM18.8572 3.20003H17.8095V4.2667H18.8572V3.20003ZM11.5238 11.7334H10.4762V12.8H11.5238V11.7334ZM18.8572 11.7334H17.8095V12.8H18.8572V11.7334Z" fill="#AF010D"/>
</g>
<defs>
<clipPath id="clip0_165_1260">
<rect width="22" height="16" rx="2" fill="white"/>
</clipPath>
</defs>
</svg>
