<svg width="22" height="16" viewBox="0 0 22 16" fill="none" xmlns="http://www.w3.org/2000/svg">
<g clip-path="url(#clip0_165_1227)">
<rect width="22" height="16" fill="white"/>
<path fill-rule="evenodd" clip-rule="evenodd" d="M0 11H22V16H0V11Z" fill="#249F58"/>
<path fill-rule="evenodd" clip-rule="evenodd" d="M12.54 7.68002C12.561 7.78349 12.5714 7.89016 12.5714 8.00002C12.5714 8.88322 11.8674 9.60002 11 9.60002C10.1326 9.60002 9.42859 8.88322 9.42859 8.00002C9.42859 7.89016 9.43906 7.78349 9.46002 7.68002C9.60668 8.16642 10.2394 8.53336 11 8.53336C11.7606 8.53336 12.3934 8.16642 12.54 7.68002ZM11 7.46669C11.2892 7.46669 11.5238 7.22776 11.5238 6.93336C11.5238 6.63896 11.2892 6.40002 11 6.40002C10.7109 6.40002 10.4762 6.63896 10.4762 6.93336C10.4762 7.22776 10.7109 7.46669 11 7.46669Z" fill="#FFDA2C"/>
<path fill-rule="evenodd" clip-rule="evenodd" d="M0 0H22V5H0V0Z" fill="#AF010D"/>
</g>
<defs>
<clipPath id="clip0_165_1227">
<rect width="22" height="16" rx="2" fill="white"/>
</clipPath>
</defs>
</svg>
