<svg width="22" height="16" viewBox="0 0 22 16" fill="none" xmlns="http://www.w3.org/2000/svg">
<g clip-path="url(#clip0_165_1186)">
<rect width="22" height="16" fill="#F93939"/>
<path d="M11 11.7333C13.0251 11.7333 14.6667 10.0619 14.6667 8C14.6667 5.93813 13.0251 4.26666 11 4.26666C8.975 4.26666 7.33337 5.93813 7.33337 8C7.33337 10.0619 8.975 11.7333 11 11.7333Z" fill="white"/>
<path fill-rule="evenodd" clip-rule="evenodd" d="M12.5714 7.46667H13.619V8.53334H12.5714V7.46667Z" fill="#F93939"/>
<path fill-rule="evenodd" clip-rule="evenodd" d="M13.0953 9.59998C12.6176 10.2474 11.857 10.6666 11 10.6666C9.55431 10.6666 8.38098 9.47198 8.38098 7.99998C8.38098 6.52798 9.55431 5.33331 11 5.33331C11.857 5.33331 12.6176 5.75251 13.0953 6.39998H11.5238C10.6564 6.39998 9.95241 7.11678 9.95241 7.99998C9.95241 8.88318 10.6564 9.59998 11.5238 9.59998H13.0953Z" fill="#F93939"/>
</g>
<defs>
<clipPath id="clip0_165_1186">
<rect width="22" height="16" rx="2" fill="white"/>
</clipPath>
</defs>
</svg>
