<svg width="22" height="16" viewBox="0 0 22 16" fill="none" xmlns="http://www.w3.org/2000/svg">
<g clip-path="url(#clip0_165_1174)">
<rect width="22" height="16" fill="#249F58"/>
<path fill-rule="evenodd" clip-rule="evenodd" d="M2.09521 0H3.14283V16H2.09521V0ZM4.19045 0H5.23807V16H4.19045V0ZM6.28569 0H7.33331V16H6.28569V0Z" fill="#D4AF2C"/>
<path fill-rule="evenodd" clip-rule="evenodd" d="M5.23807 0L7.33331 1.6L5.23807 3.2V0ZM5.23807 3.2L7.33331 4.8L5.23807 6.4V3.2ZM5.23807 6.4L7.33331 8L5.23807 9.6V6.4ZM5.23807 9.6L7.33331 11.2L5.23807 12.8V9.6ZM5.23807 12.8L7.33331 14.4L5.23807 16V12.8ZM4.19045 0L2.09521 1.6L4.19045 3.2V0ZM4.19045 3.2L2.09521 4.8L4.19045 6.4V3.2ZM4.19045 6.4L2.09521 8L4.19045 9.6V6.4ZM4.19045 9.6L2.09521 11.2L4.19045 12.8V9.6ZM4.19045 12.8L2.09521 14.4L4.19045 16V12.8ZM4.19045 0H5.23807V2.13333H4.19045V0ZM4.19045 13.8667H5.23807V16H4.19045V13.8667ZM4.19045 5.33333H5.23807V7.46667H4.19045V5.33333ZM4.19045 3.2H5.23807V4.26667H4.19045V3.2ZM4.19045 11.7333H5.23807V12.8H4.19045V11.7333ZM4.19045 8.53333H5.23807V10.6667H4.19045V8.53333Z" fill="#AE6A3E"/>
<path fill-rule="evenodd" clip-rule="evenodd" d="M11.7711 3.21495C11.8622 3.20428 11.9544 3.20001 12.0476 3.20001C13.4934 3.20001 14.6667 4.39468 14.6667 5.86668C14.6667 7.33868 13.4934 8.53335 12.0476 8.53335C10.6019 8.53335 9.42859 7.33868 9.42859 5.86668C9.42859 5.77068 9.43383 5.67788 9.44326 5.58508C9.56478 6.64535 10.449 7.46668 11.5238 7.46668C12.6814 7.46668 13.6191 6.51201 13.6191 5.33335C13.6191 4.24001 12.8124 3.33868 11.7711 3.21495ZM10.4762 4.26668H11.5238V5.33335H10.4762V4.26668Z" fill="white"/>
<path opacity="0.5" fill-rule="evenodd" clip-rule="evenodd" d="M8.38098 4.2667H9.4286V5.33336H8.38098V4.2667ZM10.4762 2.13336H11.5238V3.20003H10.4762V2.13336Z" fill="white"/>
</g>
<defs>
<clipPath id="clip0_165_1174">
<rect width="22" height="16" rx="2" fill="white"/>
</clipPath>
</defs>
</svg>
