<svg width="22" height="16" viewBox="0 0 22 16" fill="none" xmlns="http://www.w3.org/2000/svg">
<g clip-path="url(#clip0_165_1181)">
<rect width="22" height="16" fill="#F93939"/>
<path fill-rule="evenodd" clip-rule="evenodd" d="M14.6687 9.2288L13.4514 9.87946L13.684 8.50026L12.6992 7.52213L14.0611 7.31946L14.6687 6.06506L15.2764 7.32053L16.6383 7.5232L15.6535 8.4992L15.8861 9.8784" fill="white"/>
<path fill-rule="evenodd" clip-rule="evenodd" d="M9.95243 11.7333C11.9775 11.7333 13.6191 10.0619 13.6191 8C13.6191 5.93813 11.9775 4.26666 9.95243 4.26666C7.92739 4.26666 6.28577 5.93813 6.28577 8C6.28577 10.0619 7.92739 11.7333 9.95243 11.7333ZM11.0001 10.6667C12.4458 10.6667 13.6191 9.472 13.6191 8C13.6191 6.528 12.4458 5.33333 11.0001 5.33333C9.55434 5.33333 8.381 6.528 8.381 8C8.381 9.472 9.55434 10.6667 11.0001 10.6667Z" fill="white"/>
</g>
<defs>
<clipPath id="clip0_165_1181">
<rect width="22" height="16" rx="2" fill="white"/>
</clipPath>
</defs>
</svg>
