<svg width="22" height="16" viewBox="0 0 22 16" fill="none" xmlns="http://www.w3.org/2000/svg">
<g clip-path="url(#clip0_165_1168)">
<rect width="22" height="16" fill="#3A99FF"/>
<path fill-rule="evenodd" clip-rule="evenodd" d="M14.6667 5.33331V6.39998H15.7143V5.33331H14.6667ZM17.8096 5.33331V6.39998H18.8572V5.33331H17.8096ZM12.5715 8.53331V9.59998H13.6191V8.53331H12.5715ZM16.7619 9.59998V10.6666H17.8096V9.59998H16.7619ZM12.5715 11.7333V12.8H13.6191V11.7333H12.5715ZM8.38098 10.6666V11.7333H9.4286V10.6666H8.38098Z" fill="#FFDA2C"/>
<path d="M9.42856 1.06665H2.09523C1.51664 1.06665 1.04761 1.54421 1.04761 2.13332V7.46665C1.04761 8.05575 1.51664 8.53332 2.09523 8.53332H9.42856C10.0071 8.53332 10.4762 8.05575 10.4762 7.46665V2.13332C10.4762 1.54421 10.0071 1.06665 9.42856 1.06665Z" fill="white"/>
<path fill-rule="evenodd" clip-rule="evenodd" d="M5.23807 5.33336H2.09521V4.2667H5.23807V2.13336H6.28569V4.2667H9.42855V5.33336H6.28569V7.4667H5.23807V5.33336ZM7.85712 6.40003V7.4667H9.42855V6.40003H7.85712ZM7.85712 2.13336V3.20003H9.42855V2.13336H7.85712ZM2.09521 6.40003V7.4667H3.66664V6.40003H2.09521ZM2.09521 2.13336V3.20003H3.66664V2.13336H2.09521Z" fill="#F93939"/>
</g>
<defs>
<clipPath id="clip0_165_1168">
<rect width="22" height="16" rx="2" fill="white"/>
</clipPath>
</defs>
</svg>
