<svg width="22" height="16" viewBox="0 0 22 16" fill="none" xmlns="http://www.w3.org/2000/svg">
<g clip-path="url(#clip0_165_1159)">
<rect width="22" height="16" fill="#FFDA2C"/>
<path fill-rule="evenodd" clip-rule="evenodd" d="M0 0H22V2.13333H0V0Z" fill="#151515"/>
<path fill-rule="evenodd" clip-rule="evenodd" d="M0 4.26666H22V7.46666H0V4.26666Z" fill="#F93939"/>
<path fill-rule="evenodd" clip-rule="evenodd" d="M0 7.46667H22V10.6667H0V7.46667Z" fill="#151515"/>
<path d="M10.4762 10.6667C12.212 10.6667 13.6191 9.23397 13.6191 7.46666C13.6191 5.69935 12.212 4.26666 10.4762 4.26666C8.74048 4.26666 7.33337 5.69935 7.33337 7.46666C7.33337 9.23397 8.74048 10.6667 10.4762 10.6667Z" fill="white"/>
<path fill-rule="evenodd" clip-rule="evenodd" d="M10.4762 4.26666L9.42859 7.46666L10.4762 9.6L11.5238 7.46666V10.6667L12.5714 7.46666L11.5238 6.4L10.4762 7.46666V4.26666Z" fill="#151515"/>
<rect y="12.8" width="22" height="3.2" fill="#F93939"/>
</g>
<defs>
<clipPath id="clip0_165_1159">
<rect width="22" height="16" rx="2" fill="white"/>
</clipPath>
</defs>
</svg>
