<svg width="22" height="16" viewBox="0 0 22 16" fill="none" xmlns="http://www.w3.org/2000/svg">
<g clip-path="url(#clip0_165_1126)">
<rect width="22" height="16" fill="white"/>
<path fill-rule="evenodd" clip-rule="evenodd" d="M10.4762 3.20001H22V5.33335H10.4762V3.20001ZM10.4762 7.46668H22V9.60001H10.4762V7.46668ZM0 11.7333H22V13.8667H0V11.7333Z" fill="#3A99FF"/>
<path fill-rule="evenodd" clip-rule="evenodd" d="M7.2076 7.3387C6.96664 8.6667 6.41141 9.60003 5.76188 9.60003C5.11236 9.60003 4.55712 8.66776 4.31617 7.3387C3.01188 7.09336 2.09521 6.52803 2.09521 5.8667C2.09521 5.20536 3.01083 4.64003 4.31617 4.3947C4.55712 3.0667 5.11236 2.13336 5.76188 2.13336C6.41141 2.13336 6.96664 3.06563 7.2076 4.3947C8.51188 4.64003 9.42855 5.20536 9.42855 5.8667C9.42855 6.52803 8.51293 7.09336 7.2076 7.3387Z" fill="#D4AF2C"/>
<path fill-rule="evenodd" clip-rule="evenodd" d="M6.4816 6.59949C6.41455 8.30936 6.11807 9.60003 5.76188 9.60003C5.40569 9.60003 5.10922 8.30936 5.04217 6.59949C3.36283 6.53123 2.09521 6.22936 2.09521 5.8667C2.09521 5.50403 3.36283 5.20216 5.04217 5.1339C5.10922 3.42403 5.40569 2.13336 5.76188 2.13336C6.11807 2.13336 6.41455 3.42403 6.4816 5.1339C8.16093 5.20216 9.42855 5.50403 9.42855 5.8667C9.42855 6.22936 8.16093 6.53123 6.4816 6.59949Z" fill="#FFDA2C"/>
<path d="M5.76186 7.46666C6.62973 7.46666 7.33329 6.75032 7.33329 5.86666C7.33329 4.98301 6.62973 4.26666 5.76186 4.26666C4.89398 4.26666 4.19043 4.98301 4.19043 5.86666C4.19043 6.75032 4.89398 7.46666 5.76186 7.46666Z" fill="#FFDA2C"/>
</g>
<defs>
<clipPath id="clip0_165_1126">
<rect width="22" height="16" rx="2" fill="white"/>
</clipPath>
</defs>
</svg>
