<svg width="22" height="16" viewBox="0 0 22 16" fill="none" xmlns="http://www.w3.org/2000/svg">
<g clip-path="url(#clip0_165_1108)">
<path d="M19.9048 0H2.09524C0.93807 0 0 0.955126 0 2.13333V13.8667C0 15.0449 0.93807 16 2.09524 16H19.9048C21.0619 16 22 15.0449 22 13.8667V2.13333C22 0.955126 21.0619 0 19.9048 0Z" fill="white"/>
<path fill-rule="evenodd" clip-rule="evenodd" d="M0 9.59998H22V16H0V9.59998Z" fill="#249F58"/>
<path fill-rule="evenodd" clip-rule="evenodd" d="M0 0H22V6.4H0V0Z" fill="#AF010D"/>
<path fill-rule="evenodd" clip-rule="evenodd" d="M9.64648 9.6L2.09524 16.0352H0V0H2.09524L9.6381 6.4H22V9.6H9.64648Z" fill="#151515"/>
<path fill-rule="evenodd" clip-rule="evenodd" d="M9.32381 8.53333L0.52381 16L0 16.0352V0H0.52381L9.32381 7.46667H22V8.53333H9.32381Z" fill="#FFDA2C"/>
<path fill-rule="evenodd" clip-rule="evenodd" d="M0 1.06665L8.38095 7.99998L0 14.9333V1.06665Z" fill="#151515"/>
<path fill-rule="evenodd" clip-rule="evenodd" d="M1.7317 9.97011C1.31266 9.48265 1.04761 8.78078 1.04761 7.99998C1.04761 6.52798 1.98523 5.33331 3.14285 5.33331C4.30046 5.33331 5.23808 6.52798 5.23808 7.99998C5.23808 9.47198 4.30046 10.6666 3.14285 10.6666V9.59998C3.72113 9.59998 4.19046 8.88318 4.19046 7.99998C4.19046 7.11678 3.72113 6.39998 3.14285 6.39998C2.56456 6.39998 2.09523 7.11678 2.09523 7.99998C2.09523 8.49065 2.2398 8.92798 2.46608 9.22238L1.73275 9.96905L1.7317 9.97011Z" fill="#FFDA2C"/>
</g>
<defs>
<clipPath id="clip0_165_1108">
<rect width="22" height="16" rx="2" fill="white"/>
</clipPath>
</defs>
</svg>
