<svg width="22" height="16" viewBox="0 0 22 16" fill="none" xmlns="http://www.w3.org/2000/svg">
<g clip-path="url(#clip0_165_1080)">
<rect width="22" height="16" fill="white"/>
<mask id="mask0_165_1080" style="mask-type:alpha" maskUnits="userSpaceOnUse" x="0" y="0" width="22" height="16">
<path d="M19.9048 0H2.09524C0.93807 0 0 0.955126 0 2.13333V13.8667C0 15.0449 0.93807 16 2.09524 16H19.9048C21.0619 16 22 15.0449 22 13.8667V2.13333C22 0.955126 21.0619 0 19.9048 0Z" fill="white"/>
</mask>
<g mask="url(#mask0_165_1080)">
<path d="M19.9048 0H2.09524C0.93807 0 0 0.955126 0 2.13333V13.8667C0 15.0449 0.93807 16 2.09524 16H19.9048C21.0619 16 22 15.0449 22 13.8667V2.13333C22 0.955126 21.0619 0 19.9048 0Z" fill="white"/>
<path fill-rule="evenodd" clip-rule="evenodd" d="M15.9762 9.59998L16.7619 10.4L14.4047 12.8L13.619 12L15.9762 9.59998Z" fill="#3A99FF"/>
<path fill-rule="evenodd" clip-rule="evenodd" d="M7.07148 9.59998L6.28577 10.4L8.64291 12.8L9.42862 12L7.07148 9.59998Z" fill="#249F58"/>
<path fill-rule="evenodd" clip-rule="evenodd" d="M7.33339 9.59998H8.381V10.6666L6.28577 11.7333L7.33339 9.59998Z" fill="#FFDA2C"/>
<path fill-rule="evenodd" clip-rule="evenodd" d="M3.14282 7.46667H4.19044V10.6667H3.14282V7.46667ZM17.8095 7.46667H18.8571V10.6667H17.8095V7.46667Z" fill="#3A99FF"/>
<path fill-rule="evenodd" clip-rule="evenodd" d="M11.5238 4.26668V3.20001H9.42852V4.26668L10.4761 5.33335V7.46668H11.5238V4.26668ZM4.19043 4.26668L8.38091 5.33335V8.53335L4.19043 5.33335V4.26668ZM17.8095 4.26668L13.619 5.33335V8.53335L17.8095 5.33335V4.26668ZM8.38091 11.7333L11 12.8L13.619 11.7333L12.5714 10.6667H9.42852L8.38091 11.7333Z" fill="#FFDA2C"/>
<path fill-rule="evenodd" clip-rule="evenodd" d="M8.38098 6.40002H13.6191V10.6667L11 11.7334L8.38098 10.6667V6.40002Z" fill="#AF010D"/>
<path fill-rule="evenodd" clip-rule="evenodd" d="M8.38098 5.33331H13.6191V7.46665H8.38098V5.33331Z" fill="#232C80"/>
<path fill-rule="evenodd" clip-rule="evenodd" d="M9.42859 7.46667H10.4762V10.6667H9.42859V7.46667ZM11.5238 7.46667H12.5714V10.6667H11.5238V7.46667Z" fill="white"/>
<path fill-rule="evenodd" clip-rule="evenodd" d="M14.6666 9.59998H13.619V10.6666L15.7143 11.7333L14.6666 9.59998Z" fill="#FFDA2C"/>
</g>
</g>
<defs>
<clipPath id="clip0_165_1080">
<rect width="22" height="16" rx="2" fill="white"/>
</clipPath>
</defs>
</svg>
